<?xml version="1.0" standalone="no"?><!DOCTYPE svg PUBLIC "-//W3C//DTD SVG 1.1//EN" "http://www.w3.org/Graphics/SVG/1.1/DTD/svg11.dtd"><svg t="1592741256204" class="icon" viewBox="0 0 1024 1024" version="1.1" xmlns="http://www.w3.org/2000/svg" p-id="23975" xmlns:xlink="http://www.w3.org/1999/xlink" width="32" height="32"><defs><style type="text/css"></style></defs><path d="M899.4 73.9H160.8c-68.4 0-124.6 55.6-124.6 124.6v663.2c0 68.4 55.6 124.6 124.6 124.6h738.7c68.4 0 124.6-55.6 124.6-124.6V197.9c-0.1-68.4-55.7-124-124.7-124zM718.7 292.1c67.3 0 122.2 55 122.2 122.2 0 67.3-55 122.2-122.2 122.2-67.3 0-122.2-55-122.2-122.2 0-67.3 55-122.2 122.2-122.2zM408.2 719.6H223.4c-17 0-31-14-31-31s14-31 31-31h184.2c17 0 31 14 31 31s-13.5 31-30.4 31z m0-175.5H223.4c-17 0-31-14-31-31s14-31 31-31h184.2c17 0 31 14 31 31s-13.5 31-30.4 31z m0-164.9H223.4c-17 0-31-14-31-31s14-31 31-31h184.2c17 0 31 14 31 31s-13.5 31-30.4 31z m310.5 352.1c-129.2 0-186.6-29.2-186.6-40.4 0-16.4 4.7-34.5 12.3-52 28.7-68.4 95.3-105.9 163.8-98.3 4.1 0.6 7.6 0.6 11.7 0.6 2.9 0 6.4 0 9.4-0.6 69-5.8 136.3 31 164.3 100 7 17.5 11.7 35.1 11.7 50.9 0.6 11.1-57.3 39.8-186.6 39.8z m0 0" fill="#E8C09D" p-id="23976"></path><path d="M76.3 175.7h828.6v596.4H76.3z" fill="#FFFFFF" p-id="23977"></path><path d="M863.2 37.7H124.6C56.1 37.7 0 93.3 0 162.3v663.2c0 68.4 55.6 124.6 124.6 124.6h738.7c68.4 0 124.6-55.6 124.6-124.6V161.7c-0.1-68.4-55.7-124-124.7-124zM682.5 255.9c67.3 0 122.2 55 122.2 122.2 0 67.3-55 122.2-122.2 122.2-67.3 0-122.2-55-122.2-122.2 0-67.3 55-122.2 122.2-122.2zM372 683.4H187.2c-17 0-31-14-31-31s14-31 31-31h184.2c17 0 31 14 31 31s-13.5 31-30.4 31z m0-175.5H187.2c-17 0-31-14-31-31s14-31 31-31h184.2c17 0 31 14 31 31s-13.5 31-30.4 31z m0-164.9H187.2c-17 0-31-14-31-31s14-31 31-31h184.2c17 0 31 14 31 31s-13.5 31-30.4 31z m310.5 352.1c-129.2 0-186.6-29.2-186.6-40.4 0-16.4 4.7-34.5 12.3-52 28.7-68.4 95.3-105.9 163.8-98.3 4.1 0.6 7.6 0.6 11.7 0.6 2.9 0 6.4 0 9.4-0.6 69-5.8 136.3 31 164.3 100 7 17.5 11.7 35.1 11.7 50.9 0.6 11.1-57.3 39.8-186.6 39.8z m0 0" fill="#D97316" p-id="23978"></path></svg>