<?xml version="1.0" standalone="no"?><!DOCTYPE svg PUBLIC "-//W3C//DTD SVG 1.1//EN" "http://www.w3.org/Graphics/SVG/1.1/DTD/svg11.dtd"><svg t="1592740465439" class="icon" viewBox="0 0 1024 1024" version="1.1" xmlns="http://www.w3.org/2000/svg" p-id="7266" xmlns:xlink="http://www.w3.org/1999/xlink" width="32" height="32"><defs><style type="text/css"></style></defs><path d="M624 208H400a16 16 0 0 1-16-16V96a16 16 0 0 1 16-16h224a16 16 0 0 1 16 16v96a16 16 0 0 1-16 16z" fill="#FFD740" p-id="7267"></path><path d="M624 216H400c-13.232 0-24-10.768-24-24V96c0-13.232 10.768-24 24-24h224c13.232 0 24 10.768 24 24v96c0 13.232-10.768 24-24 24z m-224-128a8 8 0 0 0-8 8v96a8 8 0 0 0 8 8h224a8 8 0 0 0 8-8V96a8 8 0 0 0-8-8H400z" fill="#263238" p-id="7268"></path><path d="M944 208H720a16 16 0 0 1-16-16V96a16 16 0 0 1 16-16h224a16 16 0 0 1 16 16v96a16 16 0 0 1-16 16z" fill="#40C4FF" p-id="7269"></path><path d="M944 216H720c-13.232 0-24-10.768-24-24V96c0-13.232 10.768-24 24-24h224c13.232 0 24 10.768 24 24v96c0 13.232-10.768 24-24 24z m-224-128a8 8 0 0 0-8 8v96a8 8 0 0 0 8 8h224a8 8 0 0 0 8-8V96a8 8 0 0 0-8-8H720z" fill="#263238" p-id="7270"></path><path d="M304 208H80a16 16 0 0 1-16-16V96a16 16 0 0 1 16-16h224a16 16 0 0 1 16 16v96a16 16 0 0 1-16 16z" fill="#FF5252" p-id="7271"></path><path d="M304 216H80c-13.232 0-24-10.768-24-24V96c0-13.232 10.768-24 24-24h224c13.232 0 24 10.768 24 24v96c0 13.232-10.768 24-24 24z m-224-128a8 8 0 0 0-8 8v96a8 8 0 0 0 8 8h224a8 8 0 0 0 8-8V96a8 8 0 0 0-8-8H80zM352 333.728c-44.032 0-88.064-13.776-124.8-41.328l-8-6a8 8 0 0 1 9.584-12.8l8 6c67.84 50.88 162.56 50.88 230.4 0l8-6a7.984 7.984 0 1 1 9.584 12.8l-8 6A207.664 207.664 0 0 1 352 333.728zM672 333.728c-44.032 0-88.064-13.776-124.8-41.328l-8-6a8 8 0 0 1 9.584-12.8l8 6c67.84 50.88 162.56 50.88 230.4 0l8-6a7.984 7.984 0 1 1 9.584 12.8l-8 6A207.664 207.664 0 0 1 672 333.728z" fill="#263238" p-id="7272"></path><path d="M224 696a16 16 0 0 1-16-16v-208h-16a16 16 0 0 0-16 16v224a16 16 0 0 0 16 16h176a16 16 0 0 0 16-16v-16H224z" fill="#4DB6AC" p-id="7273"></path><path d="M400 704H224c-13.232 0-24-10.768-24-24v-224c0-13.232 10.768-24 24-24h176c13.232 0 24 10.768 24 24v224c0 13.232-10.768 24-24 24zM224 448a8 8 0 0 0-8 8v224a8 8 0 0 0 8 8h176a8 8 0 0 0 8-8v-224a8 8 0 0 0-8-8H224z" fill="#263238" p-id="7274"></path><path d="M364 528h-104a8 8 0 0 1 0-16h104a8 8 0 0 1 0 16zM364 576h-104a8 8 0 0 1 0-16h104a8 8 0 0 1 0 16zM364 624h-104a8 8 0 0 1 0-16h104a8 8 0 0 1 0 16zM144 576H112c-13.232 0-24-10.768-24-24v-272a8 8 0 0 1 16 0v272a8 8 0 0 0 8 8h32a8 8 0 0 1 0 16zM912 576h-32a8 8 0 0 1 0-16h32a8 8 0 0 0 8-8v-272a8 8 0 0 1 16 0v272c0 13.232-10.768 24-24 24zM440 912a8.032 8.032 0 0 1-5.664-2.336L312 787.312l-122.336 122.336a8 8 0 0 1-11.312-11.312l128-128a8 8 0 0 1 11.312 0l128 128A8 8 0 0 1 440 912z" fill="#263238" p-id="7275"></path><path d="M184 904m-40 0a40 40 0 1 0 80 0 40 40 0 1 0-80 0Z" fill="#FFFFFF" p-id="7276"></path><path d="M184 952c-26.464 0-48-21.536-48-48s21.536-48 48-48 48 21.536 48 48-21.536 48-48 48z m0-80c-17.648 0-32 14.352-32 32s14.352 32 32 32 32-14.352 32-32-14.352-32-32-32z" fill="#263238" p-id="7277"></path><path d="M440 904m-40 0a40 40 0 1 0 80 0 40 40 0 1 0-80 0Z" fill="#FFFFFF" p-id="7278"></path><path d="M440 952c-26.464 0-48-21.536-48-48s21.536-48 48-48 48 21.536 48 48-21.536 48-48 48z m0-80c-17.648 0-32 14.352-32 32s14.352 32 32 32 32-14.352 32-32-14.352-32-32-32z" fill="#263238" p-id="7279"></path><path d="M656 696a16 16 0 0 1-16-16v-208h-16a16 16 0 0 0-16 16v224a16 16 0 0 0 16 16h176a16 16 0 0 0 16-16v-16H656z" fill="#4DB6AC" p-id="7280"></path><path d="M832 704H656c-13.232 0-24-10.768-24-24v-224c0-13.232 10.768-24 24-24h176c13.232 0 24 10.768 24 24v224c0 13.232-10.768 24-24 24zM656 448a8 8 0 0 0-8 8v224a8 8 0 0 0 8 8h176a8 8 0 0 0 8-8v-224a8 8 0 0 0-8-8H656z" fill="#263238" p-id="7281"></path><path d="M796 528h-104a8 8 0 0 1 0-16h104a8 8 0 0 1 0 16z" fill="#263238" p-id="7282"></path><path d="M796 576h-104a8 8 0 0 1 0-16h104a8 8 0 0 1 0 16z" fill="#263238" p-id="7283"></path><path d="M796 624h-104a8 8 0 0 1 0-16h104a8 8 0 0 1 0 16z" fill="#263238" p-id="7284"></path><path d="M872 912a8.032 8.032 0 0 1-5.664-2.336L744 787.312l-122.336 122.336a8 8 0 0 1-11.312-11.312l128-128a8 8 0 0 1 11.312 0l128 128A8 8 0 0 1 872 912z" fill="#263238" p-id="7285"></path><path d="M616 904m-40 0a40 40 0 1 0 80 0 40 40 0 1 0-80 0Z" fill="#FFFFFF" p-id="7286"></path><path d="M616 952c-26.464 0-48-21.536-48-48s21.536-48 48-48 48 21.536 48 48-21.536 48-48 48z m0-80c-17.648 0-32 14.352-32 32s14.352 32 32 32 32-14.352 32-32-14.352-32-32-32z" fill="#263238" p-id="7287"></path><path d="M872 904m-40 0a40 40 0 1 0 80 0 40 40 0 1 0-80 0Z" fill="#FFFFFF" p-id="7288"></path><path d="M872 952c-26.464 0-48-21.536-48-48s21.536-48 48-48 48 21.536 48 48-21.536 48-48 48z m0-80c-17.648 0-32 14.352-32 32s14.352 32 32 32 32-14.352 32-32-14.352-32-32-32z" fill="#263238" p-id="7289"></path></svg>