<svg width="120" height="100" xmlns="http://www.w3.org/2000/svg" xmlns:xlink="http://www.w3.org/1999/xlink">
 <!-- Created with Method Draw - http://github.com/duopixel/Method-Draw/ -->

 <g>
  <title>background</title>
  <rect fill="#fff" id="canvas_background" height="102" width="122" y="-1" x="-1"/>
  <g display="none" overflow="visible" y="0" x="0" height="100%" width="100%" id="canvasGrid">
   <rect fill="url(#gridpattern)" stroke-width="0" y="0" x="0" height="100%" width="100%"/>
  </g>
 </g>
 <g>
  <title>Layer 1</title>
  <defs>
   <linearGradient y2="-0.000029" x2="0.5" y1="1" x1="0.5" id="svg_13">
    <stop stop-opacity="0.25" stop-color="gray" offset="0"/>
    <stop stop-opacity="0.12" stop-color="gray" offset="0.54"/>
    <stop stop-opacity="0.1" stop-color="gray" offset="1"/>
   </linearGradient>
   <linearGradient xlink:href="#svg_13" y2="260.1" x2="919.02" y1="298.54" x1="919.02" id="svg_12"/>
   <linearGradient xlink:href="#svg_13" gradientTransform="matrix(-1, 0, 0, 1, 923.85, 0)" y2="220.6" x2="532.43" y1="677.74" x1="532.43" id="svg_11"/>
   <linearGradient xlink:href="#svg_13" y2="578.64" x2="441.23" y1="805.83" x1="441.23" id="svg_10"/>
   <linearGradient xlink:href="#svg_13" y2="390.97" x2="467.66" y1="592.77" x1="467.66" id="svg_9"/>
  </defs>
  <g stroke="null" id="svg_160">
   <path stroke="null" id="svg_15" opacity="0.1" fill="#6366ff" d="m7.141793,50.595318c4.032246,5.641971 2.465721,13.882758 -0.096141,20.48435c-0.858478,2.210488 -1.827801,4.547929 -1.470384,6.917731c0.442246,2.897531 2.792599,5.01716 5.260583,6.139829c4.498245,2.047439 9.882114,1.559539 14.016156,-1.270781c3.571903,-2.445725 6.130372,-6.422363 9.763352,-8.75607c6.080605,-3.905693 13.819351,-2.43079 20.421377,0.260131c4.671298,1.903061 9.778056,4.378657 14.418815,2.389716c3.265384,-1.400224 5.52299,-4.806815 6.753589,-8.418772c0.593809,-1.742502 1.024745,-3.630626 2.159203,-5.013426c0.678639,-0.821465 1.554083,-1.405203 2.455542,-1.896837c8.230759,-4.490675 18.625246,-2.086023 26.619612,-7.065844c5.398573,-3.360539 8.855107,-9.708223 10.385438,-16.32475s1.357278,-13.554172 0.963667,-20.367353c-0.27598,-4.84291 -0.771386,-10.011916 -3.583214,-13.749582c-2.974701,-3.952989 -8.079197,-5.424158 -12.69281,-4.672393s-8.796292,3.430239 -12.475646,6.584166c-4.597779,3.943032 -8.863025,8.851908 -14.508169,10.455009c-3.845621,1.087819 -7.889178,0.497858 -11.854691,0.286268c-6.629171,-0.344766 -13.260605,0.421934 -19.853582,1.25958c-6.311342,0.802795 -12.667927,1.686493 -18.680668,3.945521c-4.253935,1.593144 -7.662965,4.495654 -11.680507,6.5182c-2.618415,1.321812 -5.474354,1.686493 -7.954779,3.370496c-3.053875,2.073577 -5.854392,5.680555 -5.071695,9.901142c0.744241,4.016466 4.564978,6.029055 6.704953,9.023669z"/>
   <path stroke="#535461" id="svg_16" stroke-width="2" stroke-miterlimit="10" fill="none" d="m21.769855,75.259182s-0.373251,-12.167639 -6.355454,-19.043052c-2.510964,-2.885085 -4.160057,-6.549316 -4.596648,-10.514752a28.192924,31.023995 0 0 1 -0.140252,-5.671842"/>
   <path stroke="null" id="svg_17" fill="#6366ff" d="m6.930284,35.675771c0.409445,1.359151 3.832048,4.480718 3.832048,4.480718s1.048497,-4.755784 0.639052,-6.113691a2.354877,2.591349 0 0 0 -4.4711,1.631728l0,0.001245z"/>
   <path stroke="null" id="svg_18" fill="#6366ff" d="m5.507404,44.548838c1.017958,0.896144 5.429112,1.471169 5.429112,1.471169s-1.470384,-4.618874 -2.488343,-5.513773a2.354877,2.591349 0 0 0 -2.940769,4.042603z"/>
   <path stroke="null" id="svg_19" fill="#6366ff" d="m9.539651,57.35c1.287152,0.2091 5.362379,-1.742502 5.362379,-1.742502s-3.386408,-3.171353 -4.67356,-3.380453a2.354877,2.591349 0 0 0 -0.688819,5.127933l0,-0.004979z"/>
   <path stroke="null" id="svg_20" fill="#6366ff" d="m14.575152,66.279076c1.236254,0.445583 5.553529,-0.724383 5.553529,-0.724383s-2.851415,-3.755091 -4.087669,-4.200673a2.354877,2.591349 0 0 0 -1.470384,4.925056l0.004524,0z"/>
   <path stroke="null" id="svg_21" fill="#6366ff" d="m15.706217,44.569997c-0.600595,1.269537 -4.430381,3.756335 -4.430381,3.756335s-0.348368,-4.87776 0.252227,-6.148541a2.354877,2.591349 0 1 1 4.178154,2.392206z"/>
   <path stroke="null" id="svg_22" fill="#6366ff" d="m21.475779,55.094706c-0.918425,1.014385 -5.248141,2.124607 -5.248141,2.124607s0.994206,-4.769476 1.9115,-5.78386a2.354877,2.591349 0 1 1 3.336641,3.658009l0,0.001245z"/>
   <path stroke="null" id="svg_23" fill="#6366ff" d="m25.807757,66.170792c-0.748765,1.169965 -4.846613,3.070537 -4.846613,3.070537s0.246572,-4.885227 0.996468,-6.056437a2.354877,2.591349 0 1 1 3.845621,2.987145l0.004524,-0.001245z"/>
   <path stroke="null" id="svg_24" fill="#6366ff" d="m74.33949,66.997236s-1.796131,-0.669618 -2.660265,1.071638a2.886478,3.176331 0 0 0 0.038456,3.05809c0.565532,1.128892 1.737316,2.595083 3.958727,2.464395c1.87983,-0.110773 2.499653,-1.688982 2.671575,-3.157662a2.947555,3.243542 0 0 0 -3.914616,-3.472557l-0.093878,0.036095z"/>
   <path stroke="null" id="svg_25" opacity="0.1" fill="#fff" d="m72.097719,71.283789a2.886478,3.176331 0 0 1 -0.038456,-3.05809c0.864134,-1.742502 2.660265,-1.071638 2.660265,-1.071638l0.091616,-0.036095a2.921541,3.214915 0 0 1 2.110567,0.052275a2.922672,3.21616 0 0 0 -2.488343,-0.261375l-0.091616,0.036095s-1.796131,-0.669618 -2.660265,1.071638a2.886478,3.176331 0 0 0 0.038456,3.05809c0.374382,0.746786 1.00891,1.631728 2.035917,2.115895a4.45074,4.897674 0 0 1 -1.658141,-1.906795z"/>
   <path stroke="null" id="svg_26" opacity="0.2" d="m73.412017,67.834881s0.666197,0.57627 2.282489,0"/>
   <path stroke="null" id="svg_27" fill="#6366ff" d="m73.269502,63.647899s1.141244,3.401612 1.046235,4.291532l0.904852,-0.10455s-1.522413,-2.987145 -1.141244,-4.186982l-0.809842,0z"/>
   <path stroke="null" id="svg_28" opacity="0.2" d="m73.269502,63.647899s1.141244,3.401612 1.046235,4.291532l0.904852,-0.10455s-1.522413,-2.987145 -1.141244,-4.186982l-0.809842,0z"/>
   <path stroke="null" id="svg_29" fill="#6366ff" d="m77.928359,63.931678s-1.796131,-1.010651 -2.601449,-0.175495s-0.927473,2.96972 -0.927473,2.96972s2.930589,0.443093 3.528922,-2.794226z"/>
   <path stroke="null" id="svg_30" opacity="0.1" fill="#fff" d="m77.928359,63.931678s-1.796131,-1.010651 -2.601449,-0.175495s-0.927473,2.96972 -0.927473,2.96972s2.930589,0.443093 3.528922,-2.794226z"/>
   <path stroke="#6366ff" id="svg_31" stroke-miterlimit="10" fill="none" d="m74.400567,66.725903s0.471654,-2.478086 3.527791,-2.794226"/>
   <path stroke="#535461" id="svg_32" stroke-width="2" stroke-miterlimit="10" fill="none" d="m22.770848,51.897215s0.366465,-6.579188 -2.536979,-10.621791a9.075665,9.987023 0 0 1 -1.987281,-5.926994a15.269376,16.802693 0 0 1 0.190019,-3.065558"/>
   <path stroke="null" id="svg_33" fill="#6366ff" d="m16.621248,29.723884c0.157218,0.755499 1.856077,2.632422 1.856077,2.632422s0.791745,-2.504224 0.630003,-3.258478a1.27471,1.402714 0 1 0 -2.488343,0.622322l0.002262,0.003734z"/>
   <path stroke="null" id="svg_34" fill="#6366ff" d="m15.438154,34.426149c0.505586,0.540175 2.858201,1.100265 2.858201,1.100265s-0.575712,-2.572679 -1.081298,-3.11161a1.27471,1.402714 0 1 0 -1.776903,2.012589l0,-0.001245z"/>
   <path stroke="null" id="svg_35" fill="#6366ff" d="m17.01599,41.554224c0.678639,0.185452 2.971307,-0.638502 2.971307,-0.638502s-1.677369,-1.900571 -2.360532,-2.086023a1.27471,1.402714 0 0 0 -0.610775,2.724526z"/>
   <path stroke="null" id="svg_36" fill="#6366ff" d="m19.313183,46.649797c0.645838,0.309916 3.02673,-0.077168 3.02673,-0.077168s-1.357278,-2.185595 -2.006509,-2.489288a1.27471,1.402714 0 1 0 -1.017958,2.571434l-0.002262,-0.004979z"/>
   <path stroke="null" id="svg_37" fill="#6366ff" d="m20.936261,35.014865c-0.3823,0.650949 -2.562993,1.773618 -2.562993,1.773618s0.039587,-2.648602 0.423018,-3.299551a1.27471,1.402714 0 0 1 2.139975,1.525933z"/>
   <path stroke="null" id="svg_38" fill="#6366ff" d="m23.554676,41.012804c-0.54178,0.497858 -2.928327,0.848847 -2.928327,0.848847s0.757813,-2.514181 1.300725,-3.009549a1.27471,1.402714 0 0 1 1.627602,2.160702z"/>
   <path stroke="null" id="svg_39" fill="#6366ff" d="m25.372297,47.227311c-0.458081,0.588717 -2.755274,1.381555 -2.755274,1.381555s0.36081,-2.613752 0.820022,-3.207447a1.27471,1.402714 0 0 1 1.936383,1.827137l-0.001131,-0.001245z"/>
   <path stroke="null" id="svg_40" opacity="0.5" fill="#fff" d="m16.621248,29.723884c0.157218,0.755499 1.856077,2.632422 1.856077,2.632422s0.791745,-2.504224 0.630003,-3.258478a1.27471,1.402714 0 1 0 -2.488343,0.622322l0.002262,0.003734z"/>
   <path stroke="null" id="svg_41" opacity="0.5" fill="#fff" d="m15.438154,34.426149c0.505586,0.540175 2.858201,1.100265 2.858201,1.100265s-0.575712,-2.572679 -1.081298,-3.11161a1.27471,1.402714 0 1 0 -1.776903,2.012589l0,-0.001245z"/>
   <path stroke="null" id="svg_42" opacity="0.5" fill="#fff" d="m17.01599,41.554224c0.678639,0.185452 2.971307,-0.638502 2.971307,-0.638502s-1.677369,-1.900571 -2.360532,-2.086023a1.27471,1.402714 0 0 0 -0.610775,2.724526z"/>
   <path stroke="null" id="svg_43" opacity="0.5" fill="#fff" d="m19.313183,46.649797c0.645838,0.309916 3.02673,-0.077168 3.02673,-0.077168s-1.357278,-2.185595 -2.006509,-2.489288a1.27471,1.402714 0 1 0 -1.017958,2.571434l-0.002262,-0.004979z"/>
   <path stroke="null" id="svg_44" opacity="0.5" fill="#fff" d="m20.936261,35.014865c-0.3823,0.650949 -2.562993,1.773618 -2.562993,1.773618s0.039587,-2.648602 0.423018,-3.299551a1.27471,1.402714 0 0 1 2.139975,1.525933z"/>
   <path stroke="null" id="svg_45" opacity="0.5" fill="#fff" d="m23.554676,41.012804c-0.54178,0.497858 -2.928327,0.848847 -2.928327,0.848847s0.757813,-2.514181 1.300725,-3.009549a1.27471,1.402714 0 0 1 1.627602,2.160702z"/>
   <path stroke="null" id="svg_46" opacity="0.5" fill="#fff" d="m25.372297,47.227311c-0.458081,0.588717 -2.755274,1.381555 -2.755274,1.381555s0.36081,-2.613752 0.820022,-3.207447a1.27471,1.402714 0 0 1 1.936383,1.827137l-0.001131,-0.001245z"/>
   <polygon stroke="null" id="svg_47" fill="url(#svg_13)" points="57.36668395996094,1.598706705902103 57.36668395996094,3.758110247268661 57.36668395996094,44.409459284201375 114.47639465332031,44.409459284201375 114.47639465332031,3.758110247268661 114.47639465332031,1.598706705902103 57.36668395996094,1.598706705902103 "/>
   <rect stroke="null" transform="matrix(0.11310648984262206,0,0,0.12446439315051466,-1352.0299228544434,-2056.984985957043) " id="svg_48" fill="#fff" height="322.13" width="492.08" y="16555.13873" x="12468.283848"/>
   <rect stroke="null" transform="matrix(0.11310648984262206,0,0,0.12446439315051466,-1352.0299228544434,-2056.984985957043) " id="svg_49" fill="#eee" height="23.7" width="492.08" y="16539.81873" x="12468.283848"/>
   <circle stroke="null" transform="matrix(0.11310648984262206,0,0,0.12446439315051466,-1352.0299228544434,-2056.984985957043) " id="svg_50" fill="#ff5252" r="5.75" cy="16551.30873" cx="12487.003848"/>
   <circle stroke="null" transform="matrix(0.11310648984262206,0,0,0.12446439315051466,-1352.0299228544434,-2056.984985957043) " id="svg_51" fill="#ff0" r="5.75" cy="16551.30873" cx="12502.813848"/>
   <circle stroke="null" transform="matrix(0.11310648984262206,0,0,0.12446439315051466,-1352.0299228544434,-2056.984985957043) " id="svg_52" fill="#69f0ae" r="5.75" cy="16551.30873" cx="12518.613848"/>
   <rect stroke="null" transform="matrix(0.11310648984262206,0,0,0.12446439315051466,-1352.0299228544434,-2056.984985957043) " id="svg_53" opacity="0.5" fill="#6366ff" height="7.64" width="183.37" y="16601.47873" x="12487.143848"/>
   <rect stroke="null" transform="matrix(0.11310648984262206,0,0,0.12446439315051466,-1352.0299228544434,-2056.984985957043) " id="svg_54" opacity="0.5" fill="#6366ff" height="7.64" width="183.37" y="16616.75873" x="12487.143848"/>
   <rect stroke="null" transform="matrix(0.11310648984262206,0,0,0.12446439315051466,-1352.0299228544434,-2056.984985957043) " id="svg_55" opacity="0.5" fill="#6366ff" height="7.64" width="183.37" y="16632.03873" x="12487.143848"/>
   <rect stroke="null" transform="matrix(0.11310648984262206,0,0,0.12446439315051466,-1352.0299228544434,-2056.984985957043) " id="svg_56" opacity="0.5" fill="#6366ff" height="7.64" width="120.16" y="16647.31873" x="12550.343848"/>
   <rect stroke="null" transform="matrix(0.11310648984262206,0,0,0.12446439315051466,-1352.0299228544434,-2056.984985957043) " id="svg_57" opacity="0.5" fill="#6366ff" height="7.64" width="96.55" y="16662.60873" x="12487.143848"/>
   <rect stroke="null" transform="matrix(0.11310648984262206,0,0,0.12446439315051466,-1352.0299228544434,-2056.984985957043) " id="svg_58" opacity="0.5" fill="#6366ff" height="7.64" width="74.32" y="16677.88873" x="12539.233848"/>
   <rect stroke="null" transform="matrix(0.11310648984262206,0,0,0.12446439315051466,-1352.0299228544434,-2056.984985957043) " id="svg_59" opacity="0.5" fill="#6366ff" height="124.33" width="216.02" y="16654.96873" x="12694.823848"/>
   <rect stroke="null" transform="matrix(0.11310648984262206,0,0,0.12446439315051466,-1352.0299228544434,-2056.984985957043) " id="svg_60" fill="#eee" height="124.33" width="216.02" y="16666.76873" x="12720.523848"/>
   <path stroke="null" id="svg_61" fill="#6366ff" d="m100.413929,32.905194l-13.67005,0l0,-2.83032c3.340035,-1.717609 8.478462,-2.682208 13.67005,2.83032z"/>
   <g stroke="null" transform="matrix(0.11310648984262206,0,0,0.12446439315051466,-1352.0299228544434,-2056.984985957043) " id="svg_62" opacity="0.1">
    <path stroke="null" id="svg_63" d="m12935.154312,16787.84926l0,3.22l-150.73,0l0,-0.69s74.17,-72.18 150.73,-2.53z"/>
   </g>
   <path stroke="null" id="svg_64" fill="#6366ff" d="m111.177143,32.504418l0,0.400775l-17.048541,0l0,-0.08588s8.389108,-8.98384 17.048541,-0.314895z"/>
   <circle stroke="null" transform="matrix(0.11310648984262206,0,0,0.12446439315051466,-1352.0299228544434,-2056.984985957043) " id="svg_65" fill="#6366ff" r="11.11" cy="16688.99873" cx="12745.533848"/>
   <path stroke="null" id="svg_66" fill="#f4f4f4" d="m100.273677,19.153123c-0.143645,0 -0.304256,0 -0.412839,0.009957a0.502193,0.552622 0 0 0 -0.143645,0.032361l-0.739716,0.292491c0.597202,0.01618 1.220419,0.011202 1.831194,0l3.431651,-0.028627c0.349499,0 0.718226,-0.006223 1.010041,-0.029871c0.195674,-0.014936 0.339319,-0.038584 0.519159,-0.056009c0.649231,-0.063477 1.597064,-0.05103 2.4431,-0.048541s1.867388,-0.021159 2.164858,-0.114507l-1.815359,0c-0.195674,0 -0.401528,0 -0.574581,-0.011202c-0.202461,-0.012446 -0.325747,-0.037339 -0.503324,-0.054764c-0.294077,-0.027382 -0.698998,-0.031116 -1.076774,-0.032361c-2.067587,-0.001245 -4.111421,0.05352 -6.133765,0.041073z"/>
   <path stroke="null" id="svg_67" fill="#f4f4f4" d="m102.310725,20.832148c-0.03167,0 -0.065602,0 -0.089354,0a0.113106,0.124464 0 0 0 -0.030539,0.007468l-0.160611,0.063477c0.128941,0 0.264669,0 0.397004,0l0.74311,-0.006223c0.075781,0 0.154956,0 0.218296,-0.006223l0.113106,-0.012446c0.140252,-0.013691 0.346106,-0.011202 0.529338,-0.009957a2.884215,3.173842 0 0 0 0.469392,-0.024893l-0.393611,0c-0.04298,0 -0.087092,0 -0.124417,0s-0.070126,-0.008713 -0.113106,-0.011202c-0.06334,0 -0.151563,-0.006223 -0.232999,-0.007468c-0.44564,-0.002489 -0.887886,0.007468 -1.325608,0.007468z"/>
   <path stroke="null" id="svg_68" fill="#f4f4f4" d="m97.046749,23.251735c-0.03167,0 -0.065602,0 -0.089354,0a0.113106,0.124464 0 0 0 -0.030539,0.007468l-0.160611,0.063477c0.128941,0 0.264669,0 0.397004,0l0.74311,-0.006223c0.075781,0 0.154956,0 0.218296,-0.006223l0.113106,-0.012446c0.140252,-0.013691 0.346106,-0.011202 0.529338,-0.009957a2.884215,3.173842 0 0 0 0.469392,-0.024893l-0.393611,0c-0.04298,0 -0.087092,0 -0.124417,0s-0.070126,-0.008713 -0.113106,-0.011202c-0.06334,0 -0.151563,-0.006223 -0.232999,-0.007468c-0.444509,-0.001245 -0.887886,0.009957 -1.325608,0.007468z"/>
   <path stroke="null" id="svg_69" fill="#6366ff" d="m94.090145,32.142227l-0.585892,0s-0.184364,-7.109406 0.590416,-9.303713l0.14817,0s-0.521421,8.045378 -0.152694,9.303713z"/>
   <path stroke="null" id="svg_70" fill="#6366ff" d="m93.684093,22.473833s-0.479572,1.462457 -0.257883,2.115895c0,0 0.332533,-1.340482 0.720488,-1.543358s0.791745,1.543358 0.791745,1.543358s0.226213,-1.096531 -0.184364,-1.99143a3.209962,3.532299 0 0 1 1.218157,1.421383s0.073519,-0.609876 -0.885624,-1.866966c0,0 0.84943,0.248929 1.40252,0.812752c0,0 0.184364,-0.446827 -0.960274,-1.178678c0,0 0.14817,-0.527729 1.033793,-0.283779c0,0 0,-0.690777 -1.40252,-0.568802c0,0 0,-0.446827 0.922949,-0.365925c0,0 0,-0.568802 -1.071118,-0.365925c0,0 0.226213,-0.365925 0.368727,-0.446827a0.741979,0.816486 0 0 0 -0.516897,0.163048s0.037325,-0.731851 -0.516897,-1.015629l-0.073519,1.015629s-0.620955,-0.805285 -0.479572,-0.649704a1.619685,1.78233 0 0 1 0.113106,0.771679s-0.627741,-0.568802 -1.40252,0.041073c0,0 0.960274,0.080902 1.107313,0.446827c0,0 -0.812105,-0.163048 -0.996468,-0.041073c0,0 0.627741,0.248929 0.590416,0.405754c0,0 -1.107313,0 -1.255482,0.446827c0,0 1.144638,0.163048 1.218157,0.283779c0,0 -1.329001,1.056703 -1.40252,1.340482c0,0 1.366326,-0.893654 1.583491,-0.893654s-0.996468,1.300653 -0.922949,1.625505c0.003393,-0.001245 0.999861,-1.304387 1.257744,-1.22224z"/>
   <path stroke="null" id="svg_71" fill="#6366ff" d="m101.377596,31.877118l0.452426,0s0.141383,-5.431626 -0.452426,-7.108161l-0.113106,0s0.394742,6.144807 0.113106,7.108161z"/>
   <path stroke="null" id="svg_72" fill="#6366ff" d="m101.687508,24.488911s0.366465,1.12018 0.197936,1.618037c0,0 -0.253359,-1.024342 -0.549698,-1.179922s-0.606251,1.179922 -0.606251,1.179922s-0.16966,-0.837645 0.141383,-1.520955a2.452149,2.698388 0 0 0 -0.930866,1.086574s-0.056553,-0.465497 0.678639,-1.427607c0,0 -0.649231,0.186697 -1.07225,0.622322c0,0 -0.141383,-0.341032 0.73293,-0.899878c0,0 -0.113106,-0.403265 -0.791745,-0.217813c0,0 0,-0.527729 1.07225,-0.434381c0,0 0,-0.341032 -0.704653,-0.2788c0,0 0,-0.434381 0.81776,-0.2788a1.244171,1.369108 0 0 0 -0.281635,-0.341032a0.565532,0.622322 0 0 1 0.394742,0.124464s-0.028277,-0.558845 0.394742,-0.775413l0.056553,0.775413s0.473916,-0.614854 0.366465,-0.497858a1.237385,1.36164 0 0 0 -0.08483,0.589961s0.479572,-0.434381 1.07225,0.031116c0,0 -0.73293,0.062232 -0.846037,0.341032c0,0 0.620955,-0.124464 0.761207,-0.031116c0,0 -0.479572,0.186697 -0.452426,0.309916c0,0 0.846037,0 0.959143,0.341032c0,0 -0.874313,0.124464 -0.930866,0.217813c0,0 1.017958,0.806529 1.07225,1.024342c0,0 -1.043973,-0.68331 -1.212502,-0.68331s0.761207,0.995715 0.704653,1.244644c0,-0.008713 -0.761207,-1.001938 -0.959143,-0.939706z"/>
   <path stroke="null" id="svg_73" fill="#6366ff" d="m106.7773,30.815436l0.279373,0s0.087092,-3.360539 -0.279373,-4.402306l-0.070126,0s0.24431,3.806121 0.070126,4.402306z"/>
   <path stroke="null" id="svg_74" fill="#6366ff" d="m106.963926,26.240125s0.226213,0.692022 0.122155,0.995715c0,0 -0.157218,-0.634768 -0.339319,-0.730606s-0.375514,0.730606 -0.375514,0.730606a1.459074,1.605591 0 0 1 0.087092,-0.942195a1.51902,1.671557 0 0 0 -0.576843,0.673352s-0.035063,-0.288757 0.419625,-0.883697a1.772379,1.950357 0 0 0 -0.663935,0.384595s-0.087092,-0.211589 0.452426,-0.5576c0,0 -0.070126,-0.248929 -0.48862,-0.134422c0,0 0,-0.327341 0.663935,-0.268843c0,0 0,-0.211589 -0.436591,-0.173006c0,0 0,-0.268843 0.506717,-0.173006a0.767993,0.845113 0 0 0 -0.174184,-0.211589a0.351761,0.387084 0 0 1 0.24431,0.077168a0.472785,0.520261 0 0 1 0.24431,-0.480433l0.035063,0.480433s0.294077,-0.380861 0.226213,-0.307427a0.765731,0.842624 0 0 0 -0.052029,0.364681a0.544042,0.598674 0 0 1 0.663935,0.01867s-0.452426,0.038584 -0.523683,0.211589c0,0 0.384562,-0.077168 0.471654,-0.01867c0,0 -0.29747,0.115752 -0.279373,0.191675c0,0 0.523683,0 0.593809,0.211589c0,0 -0.54178,0.077168 -0.576843,0.134422c0,0 0.628872,0.497858 0.663935,0.634768c0,0 -0.645838,-0.423179 -0.751027,-0.423179s0.471654,0.614854 0.436591,0.76919c0.005655,0.002489 -0.465999,-0.612365 -0.593809,-0.573781z"/>
   <path stroke="null" id="svg_75" fill="url(#svg_12)" d="m96.558129,27.011805l0,0l-0.058815,-0.346011a0.170791,0.187941 0 0 0 -0.05316,-0.135666l-0.272587,-0.146868l0,0a0.308781,0.339788 0 0 1 -0.048636,-0.089614l0,-0.007468a0.164004,0.180473 0 0 0 0.03167,-0.070945a0.113106,0.124464 0 0 0 0,-0.019914l0,0a0.100665,0.110773 0 0 0 0.113106,-0.089614l0,-0.007468a0.100665,0.110773 0 0 1 -0.091616,0.083391a0.278242,0.306182 0 0 0 0.123286,-0.248929s0,-0.008713 0,-0.012446a0.100665,0.110773 0 0 0 0.046374,-0.074679l0,-0.007468a0.100665,0.110773 0 0 1 -0.048636,0.0697a0.277111,0.304938 0 0 0 -0.016966,-0.083391l0.006786,0a0.100665,0.110773 0 0 0 0.100665,-0.110773s0,0 0,-0.007468a0.100665,0.110773 0 0 1 -0.100665,0.103305l-0.012442,0l0,0a0.165135,0.181718 0 0 0 0.113106,-0.148113s0,0 0,-0.007468a0.100665,0.110773 0 0 1 -0.020359,0.059743a0.100665,0.110773 0 0 0 -0.200198,-0.032361l-0.018097,-0.011202a0.100665,0.110773 0 0 1 0.091616,-0.080902l-0.006786,0a0.100665,0.110773 0 0 0 -0.097272,0.074679a0.278242,0.306182 0 0 0 -0.35063,0.110773c-0.02149,0.017425 -0.048636,0.042318 -0.047505,0.063477a0.192281,0.211589 0 0 0 -0.023752,0.032361a0.385693,0.424424 0 0 0 -0.03167,0.230259a0.226213,0.248929 0 0 1 -0.072388,0.211589a0.096141,0.105795 0 0 0 0.07465,0a0.283897,0.312406 0 0 0 0.065602,-0.042318a0.145907,0.160559 0 0 0 0.046374,-0.048541l0,0a0.226213,0.248929 0 0 0 0.041849,0.023648c0.005655,0.052275 0.006786,0.112018 -0.013573,0.130688l0,0l0,0l0,-0.009957a0.255621,0.28129 0 0 1 -0.177577,0.056009a0.226213,0.248929 0 0 0 -0.183233,0.124464l-0.08483,0.399531l0,0l0,0.006223l0,0l0,0.006223l0,0a0.027146,0.029871 0 0 0 0.020359,0.022404l0.026014,0.007468a0.554222,0.609876 0 0 1 -0.001131,0.191675a1.549559,1.705162 0 0 0 -0.030539,0.293736c0.006786,0.049786 0.018097,0.306182 0.022621,0.428158a1.152555,1.268292 0 0 0 -0.022621,0.124464l-0.126679,0.835156s-0.093878,0.668374 -0.089354,0.871251l-0.016966,0.116997s-0.256752,0.354724 -0.18097,0.404509s0.19115,0.072189 0.301994,-0.116997a0.277111,0.304938 0 0 1 0.070126,-0.116997a0.104058,0.114507 0 0 0 0.035063,-0.097082l-0.007917,-0.082146l0.013573,0l0,0l0.007917,0a2.621808,2.885085 0 0 0 0.113106,-0.776658s0.23413,-0.918547 0.412839,-1.062926l0,0l0.016966,-0.008713l0.038456,0.888676l-0.038456,0.980779l-0.007917,0.058498s-0.256752,0.354724 -0.18097,0.404509s0.19115,0.072189 0.301994,-0.116997a0.277111,0.304938 0 0 1 0.070126,-0.116997a0.104058,0.114507 0 0 0 0.035063,-0.097082l-0.011311,-0.124464c0.044112,-0.164293 0.158349,-0.640992 0.113106,-0.916058l0.078043,-0.586227c0.079175,-0.097082 0.067864,-0.344766 0.067864,-0.344766c0.062209,-0.141889 0.075781,-0.701979 0.075781,-0.701979l0.015835,-0.276311l0.035063,0l0.012442,0l0,0l0.005655,-0.007468l0,0l0,-0.006223l0,0l0.001131,-0.01867zm-0.220558,0.580004c-0.006786,-0.01867 -0.014704,-0.038584 -0.023752,-0.057254l-0.006786,0l0,-0.007468l0,-0.006223l0,-0.007468a0.217164,0.238972 0 0 0 0.009049,-0.028627a0.098403,0.108284 0 0 0 0.014704,-0.059743a0.513503,0.565068 0 0 1 0.012442,0.148113l-0.005655,0.01867zm-0.023752,-0.236482l-0.015835,-0.185452l0,-0.014936l0.02149,0.235238l-0.005655,-0.03485zm-0.745372,0.024893a0.058815,0.064721 0 0 0 -0.013573,0.049786s0,0 0,0a0.19115,0.210345 0 0 0 0.006786,0.056009l-0.024883,0.115752l0,-0.221547a0.444509,0.489145 0 0 0 0.041849,-0.074679a0.113106,0.124464 0 0 1 -0.003393,0.056009l-0.006786,0.01867z"/>
   <path stroke="null" id="svg_76" fill="#72351c" d="m95.733582,25.935188a0.370989,0.408243 0 0 0 -0.030539,0.221547a0.213771,0.235238 0 0 1 -0.070126,0.204122a0.092747,0.102061 0 0 0 0.071257,0a0.273718,0.301204 0 0 0 0.06334,-0.041073a0.140252,0.154336 0 0 0 0.044112,-0.047296a0.167398,0.184207 0 0 0 0.01018,-0.094593a0.904852,0.995715 0 0 1 0.013573,-0.168027c0,-0.03485 0.035063,-0.124464 0,-0.146868s-0.085961,0.044807 -0.101796,0.072189z"/>
   <path stroke="null" id="svg_77" fill="#333" d="m95.214424,29.608132l-0.023752,0.170516s-0.247703,0.342277 -0.174184,0.389574s0.184364,0.0697 0.290684,-0.112018a0.266931,0.293736 0 0 1 0.067864,-0.112018l0,0a0.100665,0.110773 0 0 0 0.033932,-0.093348l-0.023752,-0.263865l-0.170791,0.021159z"/>
   <path stroke="null" id="svg_78" fill="#333" d="m95.959795,29.676587l-0.023752,0.170516s-0.247703,0.342277 -0.174184,0.389574s0.184364,0.0697 0.290684,-0.112018a0.266931,0.293736 0 0 1 0.067864,-0.112018l0,0a0.100665,0.110773 0 0 0 0.033932,-0.093348l-0.023752,-0.263865l-0.170791,0.021159z"/>
   <path stroke="null" id="svg_79" fill="#4d8af0" d="m95.574102,27.609234s-0.113106,0.092104 -0.15948,0.414466l-0.122155,0.80404a6.44707,7.09447 0 0 0 -0.083699,0.871251l0.205854,0.077168a2.525668,2.77929 0 0 0 0.113106,-0.746786s0.247703,-0.969578 0.420756,-1.038033l0.036194,0.856315l-0.038456,0.965844l0.176446,0.038584s0.178708,-0.613609 0.122155,-0.938462l0.091616,-0.690777a0.929735,1.023097 0 0 0 -0.040718,-0.688288l-0.721619,0.074679z"/>
   <g stroke="null" transform="matrix(0.11310648984262206,0,0,0.12446439315051466,-1352.0299228544434,-2056.984985957043) " id="svg_80" opacity="0.1">
    <path stroke="null" id="svg_81" d="m12801.724312,16751.68926l0,-0.12c-1.53,0.55 -3.72,8.34 -3.72,8.34a21.88,21.88 0 0 1 -0.94,5.94l0.2,0.07a22.33,22.33 0 0 0 1,-6s1.94,-7.11 3.46,-8.23z"/>
    <path stroke="null" id="svg_82" d="m12805.004312,16747.89926l-0.21,0a8.23,8.23 0 0 1 0.35,5.51l-0.81,5.55c0.48,2.47 -0.92,7 -1.06,7.5l0.2,0s1.58,-4.93 1.08,-7.54l0.81,-5.55a8.22,8.22 0 0 0 -0.36,-5.47z"/>
   </g>
   <path stroke="null" id="svg_83" fill="#f55f44" d="m95.415753,26.979444a0.026014,0.028627 0 0 0 0.020359,0.028627a0.407183,0.448072 0 0 1 0.156087,0.082146c0.087092,0.074679 -0.091616,-0.149357 -0.091616,-0.149357l-0.059946,0.014936l-0.024883,0.023648z"/>
   <path stroke="null" id="svg_84" opacity="0.1" d="m95.415753,26.979444a0.026014,0.028627 0 0 0 0.020359,0.028627a0.407183,0.448072 0 0 1 0.156087,0.082146c0.087092,0.074679 -0.091616,-0.149357 -0.091616,-0.149357l-0.059946,0.014936l-0.024883,0.023648z"/>
   <path stroke="null" id="svg_85" fill="#f55f44" d="m96.266314,27.179832a0.546304,0.601163 0 0 1 0.245441,-0.107039a0.022621,0.024893 0 0 0 0.022621,-0.024893l0,0a0.195674,0.215323 0 0 0 -0.268062,0.131932z"/>
   <path stroke="null" id="svg_86" opacity="0.1" d="m96.534376,27.044165a0.195674,0.215323 0 0 0 -0.268062,0.131932s0.151563,-0.124464 0.256752,-0.107039"/>
   <circle stroke="null" transform="matrix(0.11310648984262206,0,0,0.12446439315051466,-1352.0299228544434,-2056.984985957043) " id="svg_87" fill="#72351c" r="2.37" cy="16735.60873" cx="12802.603848"/>
   <path stroke="null" id="svg_88" fill="#fdb797" d="m95.842165,26.209009s0.038456,0.173006 0,0.2091s-0.113106,0.100816 -0.056553,0.151847s0.262407,0.136911 0.330271,0.095838s0.145907,-0.029871 0.12781,-0.115752s-0.167398,-0.068455 -0.170791,-0.497858l-0.230737,0.156825z"/>
   <path stroke="null" id="svg_89" opacity="0.1" d="m95.463258,26.930903a0.980633,1.079106 0 0 1 -0.015835,0.280045a1.493006,1.64293 0 0 0 -0.029408,0.282534c0.007917,0.062232 0.024883,0.474209 0.024883,0.474209s-0.029408,0.360947 0.130072,0.327341s-0.024883,-0.410732 -0.024883,-0.410732l0.007917,-0.497858a0.417363,0.459274 0 0 0 0.081437,-0.220302c0.006786,-0.110773 -0.174184,-0.235238 -0.174184,-0.235238z"/>
   <path stroke="null" id="svg_90" fill="#fdb797" d="m95.459865,26.930903a0.980633,1.079106 0 0 1 -0.015835,0.280045a1.493006,1.64293 0 0 0 -0.029408,0.282534c0.007917,0.062232 0.024883,0.474209 0.024883,0.474209s-0.029408,0.360947 0.130072,0.327341s-0.024883,-0.410732 -0.024883,-0.410732l0.007917,-0.497858a0.417363,0.459274 0 0 0 0.081437,-0.220302c0.007917,-0.110773 -0.174184,-0.235238 -0.174184,-0.235238z"/>
   <path stroke="null" id="svg_91" opacity="0.1" d="m96.481216,26.954551l-0.02149,0.384595s-0.013573,0.538931 -0.073519,0.675842c0,0 0.015835,0.373393 -0.143645,0.373393s0.027146,-0.414466 0.027146,-0.414466s0.085961,-0.42069 0.041849,-0.555111l-0.041849,-0.461763l0.211509,-0.002489z"/>
   <path stroke="null" id="svg_92" fill="#fdb797" d="m96.483478,26.954551l-0.02149,0.384595s-0.013573,0.538931 -0.073519,0.675842c0,0 0.015835,0.373393 -0.143645,0.373393s0.027146,-0.414466 0.027146,-0.414466s0.085961,-0.42069 0.041849,-0.555111l-0.041849,-0.461763l0.211509,-0.002489z"/>
   <path stroke="null" id="svg_93" opacity="0.1" d="m95.96432,26.581158s0.128941,0.065966 0.200198,-0.124464l0.263538,0.141889a0.164004,0.180473 0 0 1 0.050898,0.130688l0.056553,0.333565a0.193412,0.212834 0 0 0 -0.252227,0.124464l0.015835,0.187941l0,0a0.183233,0.201632 0 0 1 -0.007917,0.140645a0.028277,0.031116 0 0 0 0,0.024893a0.083699,0.092104 0 0 1 -0.075781,0.124464a1.597064,1.757437 0 0 0 -0.211509,0.017425c-0.056553,0.017425 -0.226213,-0.036095 -0.283897,0s-0.176446,-0.027382 -0.176446,-0.027382l0.032801,-0.151847s-0.02149,-0.074679 0,-0.100816a0.589285,0.648459 0 0 0 -0.013573,-0.324852s-0.097272,-0.100816 -0.153825,-0.083391l0.081437,-0.384595a0.21264,0.233993 0 0 1 0.176446,-0.124464a0.246572,0.271332 0 0 0 0.170791,-0.05352s-0.06334,0.125709 0.126679,0.149357z"/>
   <path stroke="null" id="svg_94" opacity="0.1" d="m95.977892,26.574935c0.035063,0.009957 0.130072,0.022404 0.186626,-0.134422l0.263538,0.141889a0.164004,0.180473 0 0 1 0.050898,0.130688l0.056553,0.333565a0.193412,0.212834 0 0 0 -0.252227,0.124464l0.015835,0.187941l0.01018,0.037339a0.096141,0.105795 0 0 1 -0.013573,0.094593a0.030539,0.033605 0 0 0 0,0.03485a0.083699,0.092104 0 0 1 -0.075781,0.124464a1.597064,1.757437 0 0 0 -0.211509,0.017425c-0.056553,0.017425 -0.226213,-0.036095 -0.283897,0s-0.176446,-0.027382 -0.176446,-0.027382l0.032801,-0.151847s-0.02149,-0.074679 0,-0.100816a0.589285,0.648459 0 0 0 -0.013573,-0.324852s-0.097272,-0.100816 -0.153825,-0.083391l0.081437,-0.384595a0.21264,0.233993 0 0 1 0.176446,-0.124464a0.246572,0.271332 0 0 0 0.170791,-0.05352s-0.06334,0.124464 0.104058,0.15558l0.03167,0.002489z"/>
   <path stroke="null" id="svg_95" fill="#f55f44" d="m95.977892,26.581158c0.035063,0.009957 0.130072,0.022404 0.186626,-0.134422l0.263538,0.141889a0.164004,0.180473 0 0 1 0.050898,0.130688l0.056553,0.333565a0.193412,0.212834 0 0 0 -0.252227,0.124464l0.015835,0.187941l0,0a0.183233,0.201632 0 0 1 -0.007917,0.140645a0.028277,0.031116 0 0 0 0,0.024893a0.083699,0.092104 0 0 1 -0.075781,0.124464a1.597064,1.757437 0 0 0 -0.211509,0.017425c-0.056553,0.017425 -0.226213,-0.036095 -0.283897,0s-0.176446,-0.027382 -0.176446,-0.027382l0.032801,-0.151847s-0.02149,-0.074679 0,-0.100816a0.589285,0.648459 0 0 0 -0.013573,-0.324852s-0.097272,-0.100816 -0.153825,-0.083391l0.081437,-0.384595a0.21264,0.233993 0 0 1 0.176446,-0.124464a0.246572,0.271332 0 0 0 0.170791,-0.05352s-0.06334,0.124464 0.104058,0.15558l0.036194,0.003734z"/>
   <path stroke="null" id="svg_96" opacity="0.1" d="m96.077426,26.065875l-0.226213,0.15807a0.747634,0.82271 0 0 1 0.013573,0.082146a0.226213,0.248929 0 0 0 0.082568,0.017425a0.231868,0.255152 0 0 0 0.149301,-0.074679a0.894672,0.984513 0 0 1 -0.019228,-0.182963z"/>
   <circle stroke="null" transform="matrix(0.11310648984262206,0,0,0.12446439315051466,-1352.0299228544434,-2056.984985957043) " id="svg_97" fill="#fdb797" r="1.96" cy="16736.10873" cx="12801.813848"/>
   <circle stroke="null" transform="matrix(0.11310648984262206,0,0,0.12446439315051466,-1352.0299228544434,-2056.984985957043) " id="svg_98" fill="#72351c" r="0.86" cy="16733.73873" cx="12804.713848"/>
   <path stroke="null" id="svg_99" fill="#72351c" d="m96.284411,25.882913a0.097272,0.107039 0 0 1 -0.097272,-0.099572s0,0 0,0.007468a0.097272,0.107039 0 1 0 0.194543,0s0,0 0,-0.007468a0.097272,0.107039 0 0 1 -0.097272,0.099572z"/>
   <path stroke="null" id="svg_100" fill="#72351c" d="m96.228989,25.989952a0.097272,0.107039 0 0 1 -0.079175,-0.116997l0,0.007468a0.097272,0.107039 0 0 0 0.192281,0.038584l0,-0.007468a0.097272,0.107039 0 0 1 -0.113106,0.078413z"/>
   <path stroke="null" id="svg_101" fill="#72351c" d="m96.153207,26.246349a0.097272,0.107039 0 0 1 -0.079175,-0.116997l0,0.007468a0.097272,0.107039 0 1 0 0.192281,0.038584l0,-0.007468a0.097272,0.107039 0 0 1 -0.113106,0.078413z"/>
   <path stroke="null" id="svg_102" fill="#72351c" d="m96.284411,25.826904a0.097272,0.107039 0 0 1 -0.097272,-0.099572s0,0 0,0.007468a0.097272,0.107039 0 0 0 0.194543,0s0,0 0,-0.007468a0.097272,0.107039 0 0 1 -0.097272,0.099572z"/>
   <path stroke="null" id="svg_103" fill="#72351c" d="m96.148683,25.768405a0.097272,0.107039 0 0 1 0.091616,-0.105795l-0.006786,0a0.097272,0.107039 0 0 0 0,0.214079l0.006786,0a0.097272,0.107039 0 0 1 -0.091616,-0.108284z"/>
   <path stroke="null" id="svg_104" opacity="0.1" d="m96.247086,26.780301a0.35063,0.38584 0 0 1 0,0.160559s-0.013573,0.140645 0.007917,0.164293"/>
   <path stroke="null" id="svg_105" opacity="0.1" d="m95.588806,26.806438a0.35063,0.38584 0 0 1 0,0.160559s-0.013573,0.140645 0.007917,0.164293"/>
   <path stroke="null" id="svg_106" opacity="0.1" d="m95.583151,27.387687a0.097272,0.107039 0 0 0 0.064471,0a0.135728,0.149357 0 0 1 0.078043,0"/>
   <path stroke="null" id="svg_107" opacity="0.1" d="m95.615952,27.179832a0.565532,0.622322 0 0 0 0.226213,-0.038584s0.27598,0.074679 0.355154,0.021159"/>
   <rect stroke="null" transform="matrix(0.11310648984262206,0,0,0.12446439315051466,-1352.0299228544434,-2056.984985957043) " id="svg_108" fill="#fdb797" ry="0.42" rx="0.42" height="0.93" width="1.51" y="16755.35873" x="12797.193848"/>
   <path stroke="null" id="svg_109" fill="#f0e4e4" d="m95.415753,28.490442l0.091616,0l0.079175,0.013691l-0.028277,0l-0.142514,-0.013691z"/>
   <path stroke="null" id="svg_110" fill="#f0e4e4" d="m96.029921,28.00752l0.091616,0l0.079175,0.008713l-0.028277,0l-0.142514,-0.008713z"/>
   <path stroke="null" id="svg_111" fill="#f0e4e4" d="m96.029921,28.028679l0.091616,0l0.079175,0.008713l-0.028277,0l-0.142514,-0.008713z"/>
   <path stroke="null" id="svg_112" fill="#f0e4e4" d="m96.029921,28.051082l0.091616,0l0.079175,0.008713l-0.028277,0l-0.142514,-0.008713z"/>
   <path stroke="null" id="svg_113" fill="#f0e4e4" d="m96.029921,28.069752l0.091616,0l0.079175,0.008713l-0.028277,0l-0.142514,-0.008713z"/>
   <path stroke="null" id="svg_114" fill="#f0e4e4" d="m95.415753,28.572588l0.091616,0l0.079175,0.009957l-0.028277,0l-0.142514,-0.009957z"/>
   <path stroke="null" id="svg_115" fill="#f0e4e4" d="m95.415753,28.562631l0.091616,0l0.079175,0.009957l-0.028277,0l-0.142514,-0.009957z"/>
   <path stroke="null" id="svg_116" fill="#f0e4e4" d="m95.415753,28.54894l0.091616,0l0.079175,0.009957l-0.028277,0l-0.142514,-0.009957z"/>
   <path stroke="null" id="svg_117" fill="#f0e4e4" d="m95.415753,28.541472l0.091616,0l0.079175,0.009957l-0.028277,0l-0.142514,-0.009957z"/>
   <path stroke="null" id="svg_118" fill="#f0e4e4" d="m95.415753,28.476751l0.091616,0l0.079175,0.013691l-0.028277,0l-0.142514,-0.013691z"/>
   <path stroke="null" id="svg_119" fill="#f0e4e4" d="m95.415753,28.459326l0.091616,0l0.079175,0.013691l-0.028277,0l-0.142514,-0.013691z"/>
   <path stroke="null" id="svg_120" opacity="0.1" d="m95.97563,25.907805a0.537256,0.591206 0 0 0 0.030539,0.268843a0.291815,0.321118 0 0 1 -0.013573,0.256397a0.076912,0.084636 0 0 0 0.068995,-0.01867a0.268062,0.294981 0 0 0 0.049767,-0.064721a0.157218,0.173006 0 0 0 0.030539,-0.067211a0.243179,0.267598 0 0 0 -0.015835,-0.113263a1.331263,1.464946 0 0 1 -0.032801,-0.201632c0,-0.041073 0,-0.160559 -0.041849,-0.171761s-0.067864,0.077168 -0.075781,0.112018z"/>
   <path stroke="null" id="svg_121" fill="#72351c" d="m95.981286,25.905316a0.537256,0.591206 0 0 0 0.030539,0.268843a0.291815,0.321118 0 0 1 -0.012442,0.258886a0.076912,0.084636 0 0 0 0.068995,-0.01867a0.268062,0.294981 0 0 0 0.049767,-0.064721a0.157218,0.173006 0 0 0 0.030539,-0.067211a0.243179,0.267598 0 0 0 -0.015835,-0.113263a1.331263,1.464946 0 0 1 -0.032801,-0.201632c0,-0.041073 0,-0.160559 -0.041849,-0.171761s-0.065602,0.074679 -0.076912,0.109529z"/>
   <path stroke="null" id="svg_122" opacity="0.1" d="m95.886276,25.968793c0.018097,0.021159 0.022621,0.05352 0.038456,0.078413a0.139121,0.153091 0 0 0 0.113106,0.048541a0.062209,0.068455 0 0 1 0.03167,0.007468c0.016966,0.012446 0.018097,0.039829 0.029408,0.058498a0.062209,0.068455 0 0 0 0.092747,0a0.151563,0.166782 0 0 0 0.027146,-0.102061a0.60512,0.665885 0 0 0 0,-0.124464a0.179839,0.197898 0 0 0 -0.049767,-0.131932a0.208116,0.229014 0 0 0 -0.087092,-0.041073a0.257883,0.283779 0 0 0 -0.134597,-0.011202a0.242048,0.266354 0 0 0 -0.061078,0.033605l-0.079175,0.058498c-0.029408,0.022404 -0.083699,0.067211 -0.030539,0.092104c0.038456,0.008713 0.081437,0 0.109713,0.033605z"/>
   <path stroke="null" id="svg_123" fill="#72351c" d="m95.891931,25.966304c0.018097,0.021159 0.022621,0.05352 0.038456,0.078413a0.139121,0.153091 0 0 0 0.113106,0.048541a0.062209,0.068455 0 0 1 0.03167,0.007468c0.016966,0.012446 0.018097,0.039829 0.029408,0.058498a0.062209,0.068455 0 0 0 0.092747,0a0.151563,0.166782 0 0 0 0.035063,-0.107039a0.60512,0.665885 0 0 0 0,-0.124464a0.179839,0.197898 0 0 0 -0.049767,-0.131932a0.208116,0.229014 0 0 0 -0.087092,-0.041073a0.257883,0.283779 0 0 0 -0.134597,-0.011202a0.242048,0.266354 0 0 0 -0.061078,0.033605l-0.079175,0.058498c-0.029408,0.022404 -0.083699,0.067211 -0.030539,0.092104c0.030539,0.007468 0.072388,0.007468 0.101796,0.038584z"/>
   <path stroke="null" id="svg_124" fill="#f0e4e4" d="m96.035577,28.00752l0.091616,0l0.079175,0.008713l-0.028277,0l-0.142514,-0.008713z"/>
   <path stroke="null" id="svg_125" fill="#f0e4e4" d="m96.035577,28.028679l0.091616,0l0.079175,0.008713l-0.028277,0l-0.142514,-0.008713z"/>
   <path stroke="null" id="svg_126" fill="#f0e4e4" d="m96.035577,28.051082l0.091616,0l0.079175,0.008713l-0.028277,0l-0.142514,-0.008713z"/>
   <path stroke="null" id="svg_127" fill="#f0e4e4" d="m96.035577,28.069752l0.091616,0l0.079175,0.008713l-0.028277,0l-0.142514,-0.008713z"/>
   <path stroke="null" id="svg_128" fill="#f0e4e4" d="m95.992596,29.218558l0.091616,0l0.079175,0.008713l-0.028277,0l-0.142514,-0.008713z"/>
   <path stroke="null" id="svg_129" fill="#f0e4e4" d="m95.992596,29.238473l0.091616,0l0.079175,0.008713l-0.028277,0l-0.142514,-0.008713z"/>
   <path stroke="null" id="svg_130" fill="#f0e4e4" d="m95.992596,29.259632l0.091616,0l0.079175,0.008713l-0.028277,0l-0.142514,-0.008713z"/>
   <path stroke="null" id="svg_131" fill="#f0e4e4" d="m95.992596,29.280791l0.091616,0l0.079175,0.008713l-0.028277,0l-0.142514,-0.008713z"/>
   <path stroke="null" id="svg_132" opacity="0.2" fill="#6366ff" d="m44.68523,85.523761l-8.99649,0l0,-5.577249l8.99649,0l0,5.577249zm-8.616452,-0.4182l8.234152,0l0,-4.740849l-8.234152,0l0,4.740849z"/>
   <path stroke="null" id="svg_133" fill="url(#svg_11)" d="m29.700883,77.162243c0.565532,0.363436 1.161604,0.511549 1.778034,0.286268a2.757536,3.034442 0 0 0 0.462606,-0.225281c5.768431,0.134422 11.11045,0.072189 11.317435,-0.61112c0.339319,-1.132626 -1.809704,-6.71112 -2.894395,-9.407019a2.746226,3.021995 0 0 0 0.791745,-0.909835c1.506578,1.895593 4.309357,4.341318 5.975416,4.463293c0,0 2.43179,6.356397 5.167836,5.351969s3.040302,-6.356397 1.671714,-7.02477l-9.119776,-6.356397l0,-10.547113a3.59,3.9505 0 0 0 0.381169,-1.954091c0,-0.124464 0.005655,-0.248929 0,-0.373393l-0.304256,-3.010794s-0.015835,-0.099572 -0.057684,-0.280045c-0.678639,-2.901265 -2.190873,-4.854111 -4.32293,-5.144113a1.557476,1.713875 0 0 0 0.185495,-0.675842c0.044112,-0.562579 -0.168529,-1.13636 -0.048636,-1.685248c0.140252,-0.639747 0.678639,-1.052969 1.120885,-1.493573c0.944439,-0.950908 1.539379,-2.240359 2.11396,-3.498694c0.547435,-1.198592 1.102788,-2.4283 1.244171,-3.760069s-0.226213,-2.810406 -1.215895,-3.594532c-0.769124,-0.61112 -1.851553,-0.771679 -2.404644,-1.618037c-0.247703,-0.380861 -0.35063,-0.850092 -0.521421,-1.278249c-0.492013,-1.233442 -1.552952,-2.108427 -2.704376,-2.565211c-4.040164,-1.600612 -8.99649,0.236482 -11.574187,3.928096c-0.841512,1.204815 -1.448894,2.583881 -2.04949,3.951744l-2.171645,4.939992c-0.374382,0.850092 -0.736323,1.911773 -0.236393,2.679718c0.24431,0.373393 0.662804,0.604897 0.832464,1.026831c0.226213,0.56009 -0.056553,1.293185 0.27598,1.786064c0.183233,0.272577 0.501062,0.380861 0.773648,0.540175a3.028992,3.333156 0 0 1 0.935391,0.912324l-4.76857,4.066252a3.211093,3.533544 0 0 0 -1.228336,2.440747l-0.471654,5.17274a5.718664,6.29292 0 0 0 -0.21264,1.805978c-0.016966,0.545154 0.040718,1.146317 0.288422,1.618037l0.104058,-0.027382c0.113106,3.628137 0.309912,8.848174 0.504455,9.812773c0.113106,0.572536 0.826808,1.581942 1.788214,2.622465l-0.339319,1.057947l0.113106,0l-0.113106,0.33232l0.226213,0c-0.959143,3.813589 -3.56851,6.687472 -3.56851,6.687472s6.034231,0.360947 12.275447,0.5576zm-5.671159,-17.621669l0,-4.066252c0.556484,0.094593 0.96706,0.306182 1.098264,0.692022l-1.098264,3.37423zm1.610636,-17.696347l0.018097,0.029871l-0.006786,0l-0.011311,-0.029871z"/>
   <path stroke="null" id="svg_134" fill="#fdb797" d="m39.361308,51.076995s0.288422,11.278963 0.577974,12.709059s4.476755,5.724117 6.640482,5.883432c0,0 2.309635,6.036523 4.908822,5.083126s2.887609,-6.036523 1.583491,-6.672536l-8.65604,-6.036523l0,-12.073046l-5.054729,1.106488z"/>
   <path stroke="null" id="svg_135" fill="#565171" d="m39.578472,64.903744s3.754004,8.896715 3.320807,10.330545s-24.544108,0 -24.544108,0s4.475624,-4.925056 3.609228,-10.330545l17.614074,0z"/>
   <path stroke="null" id="svg_136" fill="#fdb797" d="m36.690864,38.532229s-0.577974,6.195837 0.433198,7.625933s-4.042426,2.222934 -4.4711,2.222934s-5.052467,-1.742502 -5.918863,-2.224179s-1.583491,-3.971659 -1.583491,-3.971659s4.330847,0.953397 5.630441,-4.605183l5.909814,0.952153z"/>
   <path stroke="null" id="svg_137" fill="#8f5a6a" d="m38.204228,22.639371c1.09374,0.433136 2.101519,1.264558 2.568648,2.435768c0.162873,0.406999 0.260145,0.852581 0.495406,1.214772c0.524814,0.806529 1.552952,0.958376 2.28362,1.539625c0.937653,0.746786 1.28489,2.1495 1.154817,3.414058s-0.65828,2.433279 -1.177439,3.570883c-0.546304,1.196103 -1.110706,2.419588 -2.00764,3.323199c-0.418494,0.421934 -0.931997,0.813997 -1.065463,1.421383c-0.113106,0.521506 0.088223,1.065415 0.045243,1.600612c-0.104058,1.320567 -1.538248,1.935421 -2.736046,2.082289c-0.52029,0.063477 -1.116361,0.067211 -1.482826,-0.344766c-0.187757,-0.211589 -0.281635,-0.497858 -0.401528,-0.764211a3.328724,3.662987 0 0 0 -5.93696,-0.067211c-0.280504,0.59494 -0.444509,1.315589 -0.95575,1.679025c-0.782697,0.556356 -1.828932,-0.097082 -2.404644,-0.901122s-0.995337,-1.814691 -1.817621,-2.296368c-0.259014,-0.151847 -0.565532,-0.248929 -0.734061,-0.512793c-0.315567,-0.467986 -0.047505,-1.163742 -0.261276,-1.69645c-0.161742,-0.400775 -0.558746,-0.622322 -0.791745,-0.975801c-0.475047,-0.729361 -0.131204,-1.742502 0.226213,-2.545297l2.063062,-4.692308c0.565532,-1.299408 1.148031,-2.613752 1.946563,-3.753846c2.444231,-3.507407 7.151723,-5.252397 10.989427,-3.731443z"/>
   <path stroke="null" id="svg_138" opacity="0.1" d="m32.93799,47.269629s-5.630441,0 -7.07368,-5.719139l-4.739162,4.041359a3.053875,3.360539 0 0 0 -1.166128,2.318772l-0.452426,4.920077s-0.505586,1.827137 0.072388,2.938604c0,0 5.994644,-1.667823 6.136027,0.237727l-4.182678,12.868374s6.496837,0.159314 8.228497,-1.111467c0,0 7.07368,1.588166 8.806471,-0.159314s3.464452,-1.588166 2.021213,-5.559824c0,0 2.887609,-3.177576 1.583491,-7.625933s-0.072388,0.079657 -0.072388,0.079657s2.815221,-1.509753 2.670444,-4.3687l-0.288422,-2.862681s-0.015835,-0.094593 -0.055422,-0.265109c-0.879968,-3.768782 -3.245025,-5.849826 -6.569225,-4.523036c-0.971585,0.387084 -1.96466,-0.056009 -1.96466,-0.056009s1.086953,5.169006 -2.954342,4.846643z"/>
   <path stroke="null" id="svg_139" fill="#b45181" d="m32.93799,46.952245s-5.630441,0 -7.07368,-5.719139l-4.739162,4.041359a3.053875,3.360539 0 0 0 -1.166128,2.317527l-0.452426,4.920077s-0.505586,1.827137 0.072388,2.938604c0,0 5.994644,-1.667823 6.136027,0.237727l-4.18494,12.868374s6.496837,0.159314 8.228497,-1.111467c0,0 7.07368,1.588166 8.806471,-0.159314s3.464452,-1.588166 2.021213,-5.559824c0,0 2.887609,-3.177576 1.583491,-7.625933s-0.072388,0.079657 -0.072388,0.079657s2.815221,-1.509753 2.670444,-4.3687l-0.288422,-2.862681s-0.015835,-0.094593 -0.055422,-0.265109c-0.879968,-3.768782 -3.245025,-5.849826 -6.569225,-4.523036c-0.971585,0.387084 -1.96466,-0.056009 -1.96466,-0.056009s1.089215,5.165272 -2.952079,4.847888z"/>
   <path stroke="null" id="svg_140" fill="#fdb797" d="m19.583507,52.352755s0.288422,11.278963 0.577974,12.709059s4.475624,5.719139 6.640482,5.878453c0,0 2.309635,6.036523 4.908822,5.083126s2.887609,-6.036523 1.583491,-6.672536l-8.661695,-6.036523l0,-12.073046l-5.049074,1.111467z"/>
   <path stroke="null" id="svg_141" opacity="0.1" d="m25.790791,52.749796s-3.317413,2.479331 -6.207284,2.27272c0,0 -0.288422,-4.257927 0.577974,-4.495654s4.619269,0 5.62931,2.222934z"/>
   <path stroke="null" id="svg_142" fill="#b45181" d="m25.790791,52.591727s-3.317413,2.479331 -6.207284,2.271475c0,0 -0.288422,-4.257927 0.577974,-4.495654s4.619269,0 5.62931,2.224179z"/>
   <path stroke="null" id="svg_143" opacity="0.1" d="m30.483579,37.896216l5.918863,0.953397s-0.133466,1.43383 -0.15948,3.080494a6.643875,7.311038 0 0 1 -6.966229,-1.244644c0.495406,-0.672108 0.922949,-1.575719 1.206846,-2.789247z"/>
   <circle stroke="null" transform="matrix(0.11310648984262206,0,0,0.12446439315051466,-1352.0299228544434,-2056.984985957043) " id="svg_144" fill="#fdb797" r="58.709999" cy="16806.91873" cx="12253.743848"/>
   <path stroke="null" id="svg_145" opacity="0.1" d="m32.200536,33.473996c0.273718,0.1394 0.585892,0.141889 0.887886,0.1394q1.762199,-0.012446 3.521005,-0.143134c0.889017,-0.065966 1.836849,-0.180473 2.522275,-0.806529c0.922949,-0.842624 1.068856,-2.422077 0.592678,-3.633116s-1.447763,-2.103448 -2.473639,-2.785513a7.384723,8.12628 0 0 0 -1.868519,-0.932238c-1.903582,-0.568802 -4.008494,0.124464 -5.520728,1.524689s-2.475901,3.407835 -2.986011,5.50506c-0.176446,0.725627 -0.402659,1.58941 -1.055284,1.809712c0.434329,0.795327 1.494137,0.921037 2.256474,0.52275c1.122016,-0.587472 1.696597,-2.835299 2.704376,-3.188778c1.120885,-0.389574 0.46713,1.507264 1.419486,1.987696z"/>
   <path stroke="null" id="svg_146" fill="#8f5a6a" d="m32.200536,33.314682c0.273718,0.1394 0.585892,0.141889 0.887886,0.1394q1.762199,-0.012446 3.521005,-0.143134c0.889017,-0.065966 1.836849,-0.180473 2.522275,-0.806529c0.922949,-0.842624 1.068856,-2.422077 0.592678,-3.633116s-1.447763,-2.103448 -2.473639,-2.785513a7.384723,8.12628 0 0 0 -1.865126,-0.926015c-1.903582,-0.568802 -4.008494,0.124464 -5.520728,1.524689s-2.475901,3.407835 -2.986011,5.50506c-0.176446,0.725627 -0.402659,1.58941 -1.055284,1.809712c0.434329,0.795327 1.494137,0.921037 2.256474,0.52275c1.122016,-0.587472 1.696597,-2.835299 2.704376,-3.188778c1.117492,-0.394552 0.463737,1.501041 1.416093,1.981473z"/>
   <path stroke="null" id="svg_147" opacity="0.1" d="m40.660901,61.646511a25.574508,28.142644 0 0 0 -6.640482,-0.953397"/>
   <path stroke="null" id="svg_148" opacity="0.1" d="m25.790791,53.068425s2.165989,1.742502 1.583491,2.700877"/>
   <g stroke="null" transform="matrix(0.11310648984262206,0,0,0.12446439315051466,-1352.0299228544434,-2056.984985957043) " id="svg_149" opacity="0.7">
    <polygon stroke="null" id="svg_150" fill="url(#svg_10)" points="12710.874389648438,17097.78988647461 12084.174194335938,17097.78988647461 12084.174194335938,17152.57894897461 12120.654663085938,17152.57894897461 12120.654663085938,17163.28012084961 12120.654663085938,17324.98910522461 12675.694702148438,17324.98910522461 12675.694702148438,17163.28012084961 12675.694702148438,17152.57894897461 12710.874389648438,17152.57894897461 12710.874389648438,17097.78988647461 "/>
   </g>
   <rect stroke="null" transform="matrix(0.11310648984262206,0,0,0.12446439315051466,-1352.0299228544434,-2056.984985957043) " id="svg_151" fill="#e0e0e0" height="195.29" width="543.73" y="17129.69873" x="12126.293848"/>
   <rect stroke="null" transform="matrix(0.11310648984262206,0,0,0.12446439315051466,-1352.0299228544434,-2056.984985957043) " id="svg_152" opacity="0.1" height="30.63" width="543.73" y="17139.90873" x="12126.293848"/>
   <rect stroke="null" transform="matrix(0.11310648984262206,0,0,0.12446439315051466,-1352.0299228544434,-2056.984985957043) " id="svg_153" fill="#e0e0e0" height="52.33" width="613.94" y="17107.99873" x="12090.553848"/>
   <rect stroke="null" transform="matrix(0.11310648984262206,0,0,0.12446439315051466,-1352.0299228544434,-2056.984985957043) " id="svg_154" fill="#535461" ry="6.5" rx="6.5" height="16.59" width="117.43" y="17095.11873" x="12206.553848"/>
   <g stroke="null" transform="matrix(0.11310648984262206,0,0,0.12446439315051466,-1352.0299228544434,-2056.984985957043) " id="svg_155" opacity="0.7">
    <rect stroke="null" id="svg_156" fill="url(#svg_9)" ry="28.22" rx="28.22" height="201.8" width="291.85" y="16910.119261" x="12278.024312"/>
   </g>
   <rect stroke="null" transform="matrix(0.11310648984262206,0,0,0.12446439315051466,-1352.0299228544434,-2056.984985957043) " id="svg_157" fill="#3e3f49" ry="26.84" rx="26.84" height="198.07" width="276.47" y="16913.84873" x="12283.233848"/>
   <rect stroke="null" transform="matrix(0.11310648984262206,0,0,0.12446439315051466,-1352.0299228544434,-2056.984985957043) " id="svg_158" fill="#535461" ry="26.84" rx="26.84" height="198.07" width="276.47" y="16913.84873" x="12287.063848"/>
   <circle stroke="null" transform="matrix(0.11310648984262206,0,0,0.12446439315051466,-1352.0299228544434,-2056.984985957043) " id="svg_159" fill="#e0e0e0" r="8.93" cy="17011.51873" cx="12438.213848"/>
  </g>
 </g>
</svg>