<?xml version="1.0" standalone="no"?><!DOCTYPE svg PUBLIC "-//W3C//DTD SVG 1.1//EN" "http://www.w3.org/Graphics/SVG/1.1/DTD/svg11.dtd"><svg t="1592740342827" class="icon" viewBox="0 0 1248 1024" version="1.1" xmlns="http://www.w3.org/2000/svg" p-id="5331" xmlns:xlink="http://www.w3.org/1999/xlink" width="39" height="32"><defs><style type="text/css"></style></defs><path d="M416.475429 409.053867c0-50.273524 40.764952-91.028724 91.067733-91.028724 0-81.383619 66.004114-147.358476 147.426743-147.358476s147.426743 65.974857 147.426743 147.358476c67.057371 0 121.417143 54.340267 121.417142 121.368381S869.463771 560.761905 802.4064 560.761905H384.760686c-33.392152 0-60.708571-27.306667-60.708572-60.689067 0-33.372648 27.306667-60.689067 60.708572-60.689067h36.893257a90.814171 90.814171 0 0 1-5.178514-30.329904zM1175.161905 24.380952H73.142857c-26.819048 0-48.761905 21.942857-48.761905 48.761905v633.904762h1199.542858v-633.904762c0-26.819048-21.942857-48.761905-48.761905-48.761905z" fill="#C9F3FF" p-id="5332"></path><path d="M1223.92381 707.047619H24.380952v48.761905c0 26.819048 21.942857 48.761905 48.761905 48.761905h1102.019048c26.819048 0 48.761905-21.942857 48.761905-48.761905v-48.761905z" fill="#6A80FF" p-id="5333"></path><path d="M384.760686 560.761905h417.626209c67.067124 0 121.436648-54.340267 121.436648-121.368381S869.454019 318.025143 802.386895 318.025143c0-81.383619-66.013867-147.358476-147.436495-147.358476-81.412876 0-147.41699 65.974857-147.41699 147.358476-50.302781 0-91.077486 40.7552-91.077486 91.028724 0 10.630095 1.833448 20.85059 5.188266 30.339657h-36.893257c-33.401905 0-60.718324 27.306667-60.718323 60.689066 0 33.372648 27.326171 60.679314 60.718323 60.679315z" fill="#E7F2FA" p-id="5334"></path><path d="M733.866667 804.571429h-219.428572l-48.761905 195.047619h316.952381z" fill="#6A80FF" p-id="5335"></path><path d="M1175.161905 0H73.142857C32.80701 0 0 32.816762 0 73.142857v682.666667C0 796.135619 32.816762 828.952381 73.142857 828.952381h410.068114l-41.194057 164.756724A24.380952 24.380952 0 0 0 465.67619 1024h317.010896a24.380952 24.380952 0 0 0 23.210666-31.851276L765.09379 828.952381H1175.161905c40.326095 0 73.142857-32.816762 73.142857-73.142857v-682.666667c0-40.335848-32.816762-73.142857-73.142857-73.142857zM73.142857 48.761905h1102.019048c13.448533 0 24.380952 10.942171 24.380952 24.380952V682.666667H48.761905V73.142857C48.761905 59.704076 59.704076 48.761905 73.142857 48.761905z m678.258591 926.47619H496.903314l36.571429-146.285714h181.355276l36.571429 146.285714zM1175.161905 780.190476H73.142857A24.41021 24.41021 0 0 1 48.761905 755.809524V731.428571h1150.780952v24.380953c0 13.448533-10.932419 24.380952-24.380952 24.380952z" fill="#000000" p-id="5336"></path><path d="M1025.365333 633.904762h101.034667a24.380952 24.380952 0 0 0 0-48.761905h-101.034667a24.380952 24.380952 0 1 0 0 48.761905zM928.914286 609.52381a24.380952 24.380952 0 0 0 24.380952 24.380952h1.170286a24.380952 24.380952 0 0 0 0-48.761905h-1.170286a24.380952 24.380952 0 0 0-24.380952 24.380953zM121.904762 146.285714h101.034667a24.380952 24.380952 0 1 0 0-48.761904H121.904762a24.380952 24.380952 0 1 0 0 48.761904zM293.839238 146.285714h1.160533a24.380952 24.380952 0 1 0 0-48.761904h-1.160533a24.380952 24.380952 0 1 0 0 48.761904zM384.760686 585.142857h417.626209c80.408381 0 145.8176-65.379962 145.8176-145.749333 0-72.586971-53.345524-132.944457-122.909257-143.945143C814.197029 211.373105 742.039162 146.285714 654.969905 146.285714c-87.2448 0-159.509943 65.350705-170.3936 149.650286-52.701867 10.669105-92.481829 57.344-92.481829 113.117867 0 1.989486 0.048762 3.978971 0.146286 5.948952h-7.480076c-46.918705 0-85.089524 38.170819-85.089524 85.079771 0 46.908952 38.170819 85.060267 85.089524 85.060267z m0-121.368381h36.893257a24.380952 24.380952 0 0 0 22.996114-32.514438 66.481981 66.481981 0 0 1-3.803428-22.206171c0-36.756724 29.920305-66.647771 66.696533-66.647772a24.380952 24.380952 0 0 0 24.380952-24.380952c0-67.808305 55.198476-122.977524 123.045791-122.977524 67.847314 0 123.04579 55.169219 123.04579 122.977524a24.380952 24.380952 0 0 0 24.380953 24.380952c53.511314 0 97.03619 43.505371 97.03619 96.987429 0 53.472305-43.524876 96.987429-97.03619 96.987428H384.760686a36.356876 36.356876 0 0 1-36.337372-36.308114 36.356876 36.356876 0 0 1 36.337372-36.298362z" fill="#000000" p-id="5337"></path></svg>