<?xml version="1.0" standalone="no"?><!DOCTYPE svg PUBLIC "-//W3C//DTD SVG 1.1//EN" "http://www.w3.org/Graphics/SVG/1.1/DTD/svg11.dtd"><svg t="1592740625956" class="icon" viewBox="0 0 1024 1024" version="1.1" xmlns="http://www.w3.org/2000/svg" p-id="10753" xmlns:xlink="http://www.w3.org/1999/xlink" width="32" height="32"><defs><style type="text/css"></style></defs><path d="M829.344 672.016s-93.312 72-316 72-316-72-316-72v-496h632v496z" fill="#A0D468" p-id="10754"></path><path d="M829.344 150.672c0 43.438-141.468 78.656-316 78.656s-316-35.218-316-78.656 141.468-78.656 316-78.656 316 35.218 316 78.656z" fill="#8CC153" p-id="10755"></path><path d="M30 874.68h972v80.5H30z" fill="#656D78" p-id="10756"></path><path d="M556 864.172v-114.5h-91v114.5h-94.468v91h287.5v-91z" fill="#FFCE54" p-id="10757"></path><path d="M576 853.328v-87.218c157.906-9.376 277.312-52.688 277.312-104.782v-512c0-58.906-152.812-106.656-341.312-106.656-188.532 0-341.344 47.75-341.344 106.656v512c0 52.094 119.406 95.406 277.344 104.782v87.218H0v128h1024v-128H576z m-64-597.344c128.532 0 240.438-22.188 298.656-55v117.218c-1.626 2.468-7.25 8.5-20.25 15.906-15.968 9.126-38.406 17.75-64.844 25-58.656 16.062-134.468 24.876-213.562 24.876s-154.938-8.812-213.562-24.876c-26.468-7.25-48.906-15.876-64.844-25-13.032-7.406-18.656-13.438-20.282-15.906v-117.218c58.25 32.812 170.156 55 298.688 55zM233.594 504.796c-13.032-7.438-18.656-13.438-20.282-15.938v-117.188c58.25 32.812 170.156 55 298.688 55s240.438-22.188 298.656-55v117.188c-1.626 2.5-7.25 8.5-20.25 15.938-15.968 9.094-38.406 17.75-64.844 25-58.656 16.032-134.468 24.876-213.562 24.876s-154.938-8.844-213.562-24.876c-26.47-7.25-48.906-15.906-64.844-25z m0-369.562c15.938-9.126 38.376-17.75 64.844-25C357.062 94.172 432.906 85.328 512 85.328s154.906 8.844 213.562 24.906c26.438 7.25 48.876 15.876 64.844 25 10.532 6 16.218 11.062 18.876 14.094-2.656 3.032-8.344 8.126-18.876 14.126-15.968 9.094-38.406 17.75-64.844 24.968-58.656 16.062-134.468 24.906-213.562 24.906s-154.938-8.844-213.562-24.906c-26.468-7.218-48.906-15.876-64.844-24.968-10.532-6-16.218-11.094-18.876-14.126 2.658-3.032 8.344-8.094 18.876-14.094z m0 540.22c-13.032-7.406-18.656-13.406-20.282-15.906v-117.218c58.25 32.782 170.156 55 298.688 55s240.438-22.218 298.656-55v117.218c-1.626 2.5-7.25 8.5-20.25 15.906-15.968 9.094-38.406 17.75-64.844 24.968-58.656 16.062-134.468 24.906-213.562 24.906s-154.938-8.844-213.562-24.906c-26.47-7.218-48.906-15.876-64.844-24.968zM42.656 895.984h298.656v42.688H42.656v-42.688zM448 938.672h-64v-42.688h106.656v-128.188a1194.82 1194.82 0 0 0 42.656 0v128.188H640v42.688h-192z m533.312 0H682.656v-42.688h298.656v42.688z" fill="" p-id="10758"></path></svg>