<?xml version="1.0" standalone="no"?><!DOCTYPE svg PUBLIC "-//W3C//DTD SVG 1.1//EN" "http://www.w3.org/Graphics/SVG/1.1/DTD/svg11.dtd"><svg t="1592741342178" class="icon" viewBox="0 0 1396 1024" version="1.1" xmlns="http://www.w3.org/2000/svg" p-id="28140" xmlns:xlink="http://www.w3.org/1999/xlink" width="43.625" height="32"><defs><style type="text/css"></style></defs><path d="M1204.649749 898.257204a11.084158 11.084158 0 0 1-11.010753-11.010752V286.27957a77.148674 77.148674 0 0 0-77.075268-77.075269h-44.043011a11.010753 11.010753 0 0 1 0-22.021505h44.043011a99.170179 99.170179 0 0 1 99.096774 99.096774v600.966882a11.010753 11.010753 0 0 1-11.010753 11.010752zM162.22509 854.214194a11.010753 11.010753 0 0 1-11.010753-11.010753v-47.713262a11.010753 11.010753 0 0 1 22.021505 0v47.713262a11.084158 11.084158 0 0 1-11.010752 11.010753z" fill="#FF8B17" p-id="28141"></path><path d="M1167.139785 895.541219H211.186237V310.576631a66.064516 66.064516 0 0 1 66.064516-66.064516h248.475985a11.010753 11.010753 0 0 1 0 22.021505H277.544373a44.043011 44.043011 0 0 0-44.043011 44.043011V873.519713H1145.11828V299.932903a33.692903 33.692903 0 0 0-33.692904-33.619498h-38.978064a11.010753 11.010753 0 0 1 0-22.021505h38.757849a55.714409 55.714409 0 0 1 55.934624 55.641003z" fill="#FF8B17" p-id="28142"></path><path d="M1269.90681 1024H117.448029a117.448029 117.448029 0 0 1-117.448029-117.448029v-9.469247a21.06724 21.06724 0 0 1 20.993835-20.993835h1354.689606a20.993835 20.993835 0 0 1 20.993835 20.993835A126.917276 126.917276 0 0 1 1269.90681 1024zM22.021505 898.257204v8.441577a95.426523 95.426523 0 0 0 95.426524 95.426524h1152.458781a104.822366 104.822366 0 0 0 104.748961-103.721291z" fill="#FF8B17" p-id="28143"></path><path d="M546.059928 887.246452l304.630825 0 0 33.032258-304.630825 0 0-33.032258Z" fill="#FFD3AB" p-id="28144"></path><path d="M834.174624 931.289462h-271.598567a27.526882 27.526882 0 1 1 0-55.053763h271.598567a27.526882 27.526882 0 0 1 0 55.053763z m-271.598567-33.032258a5.505376 5.505376 0 1 0 0 11.010753h271.598567a5.505376 5.505376 0 0 0 0-11.010753z" fill="#FF8B17" p-id="28145"></path><path d="M999.335914 613.152115H594.580645a36.702509 36.702509 0 0 1-36.702509-36.702509V38.537634a27.600287 27.600287 0 0 1 27.526882-27.526881h243.044014a46.979211 46.979211 0 0 1 31.710968 12.332043L1012.989247 163.326165a41.98767 41.98767 0 0 1 13.653334 30.903512v391.468961a27.600287 27.600287 0 0 1-27.306667 27.453477z" fill="#FFD3AB" p-id="28146"></path><path d="M999.335914 623.942652H567.934624a47.566452 47.566452 0 0 1-47.566452-47.566451V38.537634A38.537634 38.537634 0 0 1 558.832401 0h269.616631a57.989964 57.989964 0 0 1 39.124875 15.194839L1020.329749 155.251613a52.851613 52.851613 0 0 1 17.250179 38.978064v391.468961a38.537634 38.537634 0 0 1-38.244014 38.244014z m-440.430108-601.921147a16.442724 16.442724 0 0 0-16.442724 16.516129v538.058782A25.544946 25.544946 0 0 0 567.934624 601.921147h431.40129a16.442724 16.442724 0 0 0 16.516129-16.442724v-391.248746a30.903513 30.903513 0 0 0-10.056487-22.755555L852.746093 31.417348A36.188674 36.188674 0 0 0 828.449032 22.021505z" fill="#FF8B17" p-id="28147"></path><path d="M828.449032 11.010753v149.379211a20.33319 20.33319 0 0 0 20.33319 20.33319h176.172043" fill="#FFFFFF" p-id="28148"></path><path d="M1024.58724 191.733907h-176.172043a31.343943 31.343943 0 0 1-31.343943-31.343943V11.010753a11.010753 11.010753 0 0 1 22.021506 0v149.379211a9.322437 9.322437 0 0 0 9.322437 9.322437h176.172043a11.010753 11.010753 0 0 1 0 22.021506zM699.109391 360.565448a10.937348 10.937348 0 0 1-4.991542-1.247885l-61.953835-31.710968a22.608746 22.608746 0 0 1-1.541505-39.418495L693.310394 249.577061A11.010753 11.010753 0 1 1 704.688172 268.368746l-62.76129 38.611039V308.301075l61.88043 31.710968a11.010753 11.010753 0 0 1-4.991541 20.847025zM829.476703 360.565448a11.010753 11.010753 0 0 1-5.725592-20.406595l62.687885-38.611039v-1.027671l-61.953835-31.710967a11.010753 11.010753 0 1 1 9.689463-19.232115l61.88043 31.637563a22.608746 22.608746 0 0 1 1.61491 39.418494l-62.76129 38.61104a11.304373 11.304373 0 0 1-5.431971 1.32129zM790.645448 360.565448a10.937348 10.937348 0 0 1-9.616057-5.652186l-53.218638-95.426524a10.937348 10.937348 0 0 1 4.257491-14.681003 11.084158 11.084158 0 0 1 14.681003 4.257491l53.218638 95.426523a11.157563 11.157563 0 0 1-4.257491 14.681004 11.671398 11.671398 0 0 1-5.064946 1.394695z" fill="#FF8B17" p-id="28149"></path><path d="M303.529749 331.203441l91.756273 0 0 29.362007-91.756273 0 0-29.362007Z" fill="#FFD3AB" p-id="28150"></path><path d="M303.529749 408.27871l91.756273 0 0 29.362007-91.756273 0 0-29.362007Z" fill="#FFD3AB" p-id="28151"></path><path d="M303.529749 483.518853l91.756273 0 0 29.362007-91.756273 0 0-29.362007Z" fill="#FFD3AB" p-id="28152"></path><path d="M303.529749 563.016487l91.756273 0 0 29.362008-91.756273 0 0-29.362008Z" fill="#FFD3AB" p-id="28153"></path><path d="M303.529749 637.669391l91.756273 0 0 29.362007-91.756273 0 0-29.362007Z" fill="#FFD3AB" p-id="28154"></path><path d="M303.529749 703.073262l91.756273 0 0 29.362007-91.756273 0 0-29.362007Z" fill="#FFD3AB" p-id="28155"></path><path d="M479.701792 703.073262l91.756273 0 0 29.362007-91.756273 0 0-29.362007Z" fill="#FFD3AB" p-id="28156"></path><path d="M479.701792 637.669391l91.756273 0 0 29.362007-91.756273 0 0-29.362007Z" fill="#FFD3AB" p-id="28157"></path><path d="M656.68129 637.669391l91.756273 0 0 29.362007-91.756273 0 0-29.362007Z" fill="#FFD3AB" p-id="28158"></path><path d="M656.68129 703.073262l91.756273 0 0 29.362007-91.756273 0 0-29.362007Z" fill="#FFD3AB" p-id="28159"></path><path d="M832.853333 703.073262l91.756273 0 0 29.362007-91.756273 0 0-29.362007Z" fill="#FFD3AB" p-id="28160"></path><path d="M832.853333 637.669391l91.756273 0 0 29.362007-91.756273 0 0-29.362007Z" fill="#FFD3AB" p-id="28161"></path><path d="M1006.382796 703.073262l91.756272 0 0 29.362007-91.756272 0 0-29.362007Z" fill="#FFD3AB" p-id="28162"></path><path d="M303.529749 780.809176l91.756273 0 0 29.362007-91.756273 0 0-29.362007Z" fill="#FFD3AB" p-id="28163"></path><path d="M479.701792 780.809176l91.756273 0 0 29.362007-91.756273 0 0-29.362007Z" fill="#FFD3AB" p-id="28164"></path><path d="M656.68129 780.809176l91.756273 0 0 29.362007-91.756273 0 0-29.362007Z" fill="#FFD3AB" p-id="28165"></path><path d="M832.853333 780.809176l91.756273 0 0 29.362007-91.756273 0 0-29.362007Z" fill="#FFD3AB" p-id="28166"></path><path d="M1006.382796 780.809176l91.756272 0 0 29.362007-91.756272 0 0-29.362007Z" fill="#FFD3AB" p-id="28167"></path><path d="M1006.382796 637.669391l91.756272 0 0 29.362007-91.756272 0 0-29.362007Z" fill="#FFD3AB" p-id="28168"></path><path d="M531.232115 187.182796H250.311111A99.170179 99.170179 0 0 0 151.214337 286.27957v460.543082a11.010753 11.010753 0 0 0 22.021505 0V286.27957a77.148674 77.148674 0 0 1 77.075269-77.075269h280.921004z" fill="#FF8B17" p-id="28169"></path></svg>