<svg width="120" height="100" xmlns="http://www.w3.org/2000/svg">
 <!-- Created with Method Draw - http://github.com/duopixel/Method-Draw/ -->

 <g>
  <title>background</title>
  <rect fill="#fff" id="canvas_background" height="102" width="122" y="-1" x="-1"/>
  <g display="none" overflow="visible" y="0" x="0" height="100%" width="100%" id="canvasGrid">
   <rect fill="url(#gridpattern)" stroke-width="0" y="0" x="0" height="100%" width="100%"/>
  </g>
 </g>
 <g>
  <title>Layer 1</title>

  <defs>
   <linearGradient y2="-0.000022" x2="0.499719" y1="0.999976" x1="0.499719" id="svg_86">
    <stop stop-opacity="0.25" stop-color="gray" offset="0"/>
    <stop stop-opacity="0.12" stop-color="gray" offset="0.54"/>
    <stop stop-opacity="0.1" stop-color="gray" offset="1"/>
   </linearGradient>
  </defs>
  <g stroke="null" id="svg_210">
   <ellipse stroke="null" transform="matrix(0.10781948255909203,0,0,0.12130251621275355,-1626.737254329684,-1622.627501205672) " id="svg_88" opacity="0.1" fill="#6366ff" ry="26.18" rx="122.56" cy="14166.057984" cx="15726.161244"/>
   <path stroke="null" id="svg_89" opacity="0.1" fill="#6366ff" d="m116.379376,84.018598c-2.625404,2.450311 -6.361349,3.4644 -9.97438,4.104877l-0.608102,0.10432c-6.314987,1.060184 -12.757201,1.276102 -19.169226,1.489595c-17.884018,0.595595 -35.814398,1.189978 -53.650975,-0.183167c-7.888073,-0.606513 -15.9713,-1.669123 -22.884685,-5.30092l-0.180059,-0.095829c-0.08949,-0.047308 -0.17898,-0.094616 -0.268471,-0.14435a24.163424,27.185107 0 0 1 -3.514915,-2.315665c-1.974175,-1.584211 -3.604405,-3.517773 -4.465883,-5.811604c-1.3499,-3.597833 -0.636135,-7.642059 0.905684,-11.159831s3.859937,-6.686195 5.858911,-9.998966c0.586538,-0.97042 1.142887,-1.977231 1.66042,-3.009515c3.234584,-6.473915 4.838938,-13.965559 1.448016,-20.204147a24.645377,27.727329 0 0 0 -1.448016,-2.304748c-0.826975,-1.213025 -1.667967,-2.42605 -2.236176,-3.768869c-1.325101,-3.124753 -1.040458,-6.638887 -0.557427,-9.977132c0.646917,-4.438459 1.838322,-9.218991 5.539765,-11.991967c3.845921,-2.879722 9.304821,-2.734159 14.07799,-1.698235c7.421215,1.59998 14.270987,4.949143 21.18545,7.969575s14.162089,5.771574 21.764441,6.067552c6.712841,0.263226 14.54377,-1.698235 19.001027,-6.802645c4.328952,-4.955208 12.463932,-5.330033 18.329312,-2.337499c5.596909,2.855461 9.216409,8.898753 8.949017,14.934766c-0.34071,7.532886 -5.922524,13.56526 -10.339888,19.978524c-0.734251,1.066249 -1.437234,2.144628 -2.07876,3.241203c-2.093854,3.582063 -3.574216,7.884664 -2.132669,11.751788c0.808646,2.16525 2.351543,3.81739 4.211429,5.259677c4.167223,3.230286 9.919392,5.404027 12.50706,9.926185c2.228629,3.901089 1.402731,9.165618 -1.928891,12.277028z"/>
   <ellipse stroke="null" transform="matrix(0.10781948255909203,0,0,0.12130251621275355,-1626.737254329684,-1622.627501205672) " id="svg_90" fill="#6366ff" ry="10.96" rx="57.01" cy="14090.347984" cx="16068.941244"/>
   <ellipse stroke="null" transform="matrix(0.10781948255909203,0,0,0.12130251621275355,-1626.737254329684,-1622.627501205672) " id="svg_91" fill="#3f3d56" ry="8.69" rx="6.64" cy="14085.687984" cx="16067.991244"/>
   <ellipse stroke="null" transform="matrix(0.10781948255909203,0,0,0.12130251621275355,-1626.737254329684,-1622.627501205672) " id="svg_92" fill="#3f3d56" ry="8.69" rx="6.64" cy="14075.067984" cx="16067.991244"/>
   <ellipse stroke="null" transform="matrix(0.10781948255909203,0,0,0.12130251621275355,-1626.737254329684,-1622.627501205672) " id="svg_93" fill="#3f3d56" ry="8.69" rx="6.64" cy="14064.437984" cx="16067.991244"/>
   <ellipse stroke="null" transform="matrix(0.10781948255909203,0,0,0.12130251621275355,-1626.737254329684,-1622.627501205672) " id="svg_94" fill="#3f3d56" ry="8.69" rx="6.64" cy="14053.817984" cx="16067.991244"/>
   <ellipse stroke="null" transform="matrix(0.10781948255909203,0,0,0.12130251621275355,-1626.737254329684,-1622.627501205672) " id="svg_95" fill="#3f3d56" ry="8.69" rx="6.64" cy="14043.197984" cx="16067.991244"/>
   <ellipse stroke="null" transform="matrix(0.10781948255909203,0,0,0.12130251621275355,-1626.737254329684,-1622.627501205672) " id="svg_96" fill="#3f3d56" ry="8.69" rx="6.64" cy="14032.577984" cx="16067.991244"/>
   <ellipse stroke="null" transform="matrix(0.10781948255909203,0,0,0.12130251621275355,-1626.737254329684,-1622.627501205672) " id="svg_97" fill="#3f3d56" ry="8.69" rx="6.64" cy="14021.957984" cx="16067.991244"/>
   <path stroke="null" id="svg_98" fill="#6366ff" d="m108.384562,69.455017a3.342404,3.760378 0 0 0 0.266314,-0.441541l-1.880372,-0.346925l2.033475,0.016982a3.426503,3.854994 0 0 0 0.06577,-3.056823l-2.728911,1.595128l2.516507,-2.080338a3.42866,3.85742 0 1 0 -5.661601,4.315944a3.401705,3.827094 0 0 0 -0.391385,0.703555l2.441033,1.427731l-2.602762,-0.98255a3.427581,3.856207 0 0 0 0.553114,3.622093a3.42866,3.85742 0 1 0 5.390974,0a3.426503,3.854994 0 0 0 0,-4.769615l-0.002156,-0.003639z"/>
   <path stroke="null" id="svg_99" opacity="0.1" d="m102.261493,71.839825a3.415721,3.842864 0 0 0 0.734251,2.384807a3.42866,3.85742 0 1 0 5.390974,0c0.457155,-0.656247 -6.125225,-2.817857 -6.125225,-2.384807z"/>
   <path stroke="null" id="svg_100" fill="#6366ff" d="m15.479748,82.814064c0,0.678081 -2.351543,1.238499 -5.390974,1.318558l-0.180059,0c-0.08949,-0.047308 -0.17898,-0.094616 -0.268471,-0.14435a24.163424,27.185107 0 0 1 -3.511681,-2.310813c0.738563,-0.097042 1.578477,-0.162545 2.479848,-0.18438l0.121836,0c0.196231,0 0.395698,-0.007278 0.59732,-0.007278c0.13154,0 0.262001,0 0.390307,0l0.127227,0c0.081943,0 0.162807,0 0.242594,0c3.040509,0.088551 5.392052,0.656247 5.392052,1.328263z"/>
   <ellipse stroke="null" transform="matrix(0.10781948255909203,0,0,0.12130251621275355,-1626.737254329684,-1622.627501205672) " id="svg_101" fill="#3f3d56" ry="8.69" rx="6.64" cy="14054.747984" cx="15173.201244"/>
   <ellipse stroke="null" transform="matrix(0.10781948255909203,0,0,0.12130251621275355,-1626.737254329684,-1622.627501205672) " id="svg_102" fill="#3f3d56" ry="8.69" rx="6.64" cy="14044.127984" cx="15173.201244"/>
   <ellipse stroke="null" transform="matrix(0.10781948255909203,0,0,0.12130251621275355,-1626.737254329684,-1622.627501205672) " id="svg_103" fill="#3f3d56" ry="8.69" rx="6.64" cy="14033.507984" cx="15173.201244"/>
   <ellipse stroke="null" transform="matrix(0.10781948255909203,0,0,0.12130251621275355,-1626.737254329684,-1622.627501205672) " id="svg_104" fill="#3f3d56" ry="8.69" rx="6.64" cy="14022.887984" cx="15173.201244"/>
   <ellipse stroke="null" transform="matrix(0.10781948255909203,0,0,0.12130251621275355,-1626.737254329684,-1622.627501205672) " id="svg_105" fill="#3f3d56" ry="8.69" rx="6.64" cy="14012.267984" cx="15173.201244"/>
   <ellipse stroke="null" transform="matrix(0.10781948255909203,0,0,0.12130251621275355,-1626.737254329684,-1622.627501205672) " id="svg_106" fill="#3f3d56" ry="8.69" rx="6.64" cy="14001.647984" cx="15173.201244"/>
   <ellipse stroke="null" transform="matrix(0.10781948255909203,0,0,0.12130251621275355,-1626.737254329684,-1622.627501205672) " id="svg_107" fill="#3f3d56" ry="8.69" rx="6.64" cy="13991.017984" cx="15173.201244"/>
   <path stroke="null" id="svg_108" fill="#6366ff" d="m11.908767,65.701918a3.480413,3.915645 0 0 0 0.267392,-0.440328l-1.88145,-0.344499l2.034554,0.016982a3.42866,3.85742 0 0 0 0.064692,-3.05561l-2.727833,1.592702l2.516507,-2.081551a3.42866,3.85742 0 1 0 -5.662679,4.315944a3.498742,3.936267 0 0 0 -0.391385,0.703555l2.441033,1.419239l-2.602762,-0.978911a3.436207,3.865911 0 0 0 0.553114,3.622093a3.42866,3.85742 0 1 0 5.390974,0a3.426503,3.854994 0 0 0 0,-4.769615l-0.002156,0z"/>
   <path stroke="null" id="svg_109" opacity="0.1" d="m5.786776,68.086725a3.414643,3.841651 0 0 0 0.733172,2.384807a3.42866,3.85742 0 1 0 5.390974,0c0.457155,-0.656247 -6.124147,-2.817857 -6.124147,-2.384807z"/>
   <g stroke="null" transform="matrix(0.10781948255909203,0,0,0.12130251621275355,-1626.737254329684,-1622.627501205672) " id="svg_110" opacity="0.2">
    <path stroke="null" id="svg_111" fill="#3f3d56" d="m15402.28104,13940.788397c0,0.94 -0.1,1.86 -0.2,2.76q-11.64,-4.68 -22.92,-9.93a18.59,18.59 0 0 1 -10.6,-5.17c-2.19,-1.1 -4.37,-2.24 -6.54,-3.39a26.82,26.82 0 0 1 1.66,-3c4.2,-6.66 10.6,-10.83 17.65,-10.6s13.15,4.78 16.93,11.66a34.37,34.37 0 0 1 4.02,17.67z"/>
    <path stroke="null" id="svg_112" fill="#3f3d56" d="m15403.44104,13905.868397a34.56,34.56 0 0 1 -5.13,17.32c-4.21,6.64 -10.6,10.81 -17.65,10.58c-0.49,0 -1,-0.06 -1.45,-0.1a18.59,18.59 0 0 1 -10.6,-5.17a25.27,25.27 0 0 1 -4.88,-6.37a35.82,35.82 0 0 1 1.1,-35c4.21,-6.66 10.6,-10.83 17.65,-10.6s13.15,4.78 16.93,11.66a34.47,34.47 0 0 1 4.03,17.68z"/>
    <ellipse stroke="null" id="svg_113" fill="#3f3d56" transform="rotate(-88.19000244140625 14841.011718749998,14189.417968749998) " ry="21.87" rx="28.63" cy="14720.698381" cx="15177.191047"/>
    <ellipse stroke="null" id="svg_114" fill="#3f3d56" transform="rotate(-88.19000244140625 14877.031249999998,14156.658203124998) " ry="21.87" rx="28.63" cy="14652.968371" cx="15214.321036"/>
    <ellipse stroke="null" id="svg_115" fill="#3f3d56" transform="rotate(-88.19000244140625 14913.0517578125,14123.8876953125) " ry="21.87" rx="28.63" cy="14585.228412" cx="15251.441041"/>
    <path stroke="null" id="svg_116" fill="#6366ff" d="m15310.56104,13558.328397a105.78,105.78 0 0 1 -7.76,-12.24l57.72,-7.62l-62.08,-1.5a104.92,104.92 0 0 1 0.62,-83l82,45.85l-75.15,-58.95a104.75,104.75 0 1 1 169.22,122.65a105.13,105.13 0 0 1 11.31,19.46l-75.77,36.38l80.33,-24.17a104.85,104.85 0 0 1 -20,97.78a104.75,104.75 0 1 1 -164.56,-5.19a104.73,104.73 0 0 1 4.08,-129.45l0.04,0z"/>
    <path stroke="null" id="svg_117" opacity="0.1" d="m15495.49104,13628.948397a104.29,104.29 0 0 1 -24.44,64a104.75,104.75 0 1 1 -164.61,-5.17c-13.43,-18.25 189.42,-70.58 189.05,-58.83z"/>
   </g>
   <g stroke="null" transform="matrix(0.10781948255909203,0,0,0.12130251621275355,-1626.737254329684,-1622.627501205672) " id="svg_118" opacity="0.2">
    <path stroke="null" id="svg_119" fill="#3f3d56" d="m15894.62104,13866.008397c0,0.67 -0.07,1.32 -0.14,2q-8.31,-3.29 -16.31,-7.06a13.31,13.31 0 0 1 -7.55,-3.68c-1.55,-0.79 -3.11,-1.6 -4.65,-2.41a19.78,19.78 0 0 1 1.18,-2.13c3,-4.74 7.54,-7.7 12.56,-7.54s9.36,3.4 12.05,8.3a24.5,24.5 0 0 1 2.86,12.52z"/>
    <path stroke="null" id="svg_120" fill="#3f3d56" d="m15895.44104,13841.118397a24.56,24.56 0 0 1 -3.65,12.33c-3,4.72 -7.54,7.69 -12.56,7.53l-1,-0.07a13.31,13.31 0 0 1 -7.55,-3.68a18.32,18.32 0 0 1 -3.47,-4.54a25.51,25.51 0 0 1 0.78,-24.88c3,-4.74 7.55,-7.71 12.56,-7.55s9.37,3.4 12.05,8.3a24.55,24.55 0 0 1 2.84,12.56z"/>
    <ellipse stroke="null" id="svg_121" fill="#3f3d56" transform="rotate(-88.19000244140625 15377.710937500002,14634.478515625) " ry="15.56" rx="20.37" cy="15111.348378" cx="16211.901029"/>
    <ellipse stroke="null" id="svg_122" fill="#3f3d56" transform="rotate(-88.19000244140625 15403.341796875,14611.16796875) " ry="15.56" rx="20.37" cy="15063.148442" cx="16238.321034"/>
    <ellipse stroke="null" id="svg_123" fill="#3f3d56" transform="rotate(-88.19000244140625 15428.970703125,14587.84765625) " ry="15.56" rx="20.37" cy="15014.948373" cx="16264.731039"/>
    <path stroke="null" id="svg_124" fill="#6366ff" d="m15829.35104,13593.868397a73.57,73.57 0 0 1 -5.52,-8.71l41.08,-5.42l-44.21,-1.07a74.67,74.67 0 0 1 0.43,-59.07l58.31,32.59l-53.4,-41.93a74.55,74.55 0 1 1 120.4,87.26a74.71,74.71 0 0 1 8.06,13.86l-53.89,25.89l57.17,-17.2a74.55,74.55 0 0 1 -14.22,69.58a74.54,74.54 0 1 1 -117.12,-3.69a74.55,74.55 0 0 1 2.91,-92.09z"/>
    <path stroke="null" id="svg_125" opacity="0.1" d="m15960.96104,13644.088397a74.2,74.2 0 0 1 -17.4,45.56a74.54,74.54 0 1 1 -117.12,-3.69c-9.58,-13 134.78,-50.23 134.52,-41.87z"/>
   </g>
   <g stroke="null" transform="matrix(0.10781948255909203,0,0,0.12130251621275355,-1626.737254329684,-1622.627501205672) " id="svg_126" opacity="0.2">
    <path stroke="null" id="svg_127" fill="#3f3d56" d="m15681.44104,13787.958397c0,0.67 -0.08,1.32 -0.15,2q-8.31,-3.29 -16.31,-7.06a13.28,13.28 0 0 1 -7.54,-3.68c-1.56,-0.79 -3.11,-1.6 -4.65,-2.41a19,19 0 0 1 1.17,-2.13c3,-4.73 7.55,-7.7 12.56,-7.54s9.36,3.4 12.05,8.3a24.5,24.5 0 0 1 2.87,12.52z"/>
    <path stroke="null" id="svg_128" fill="#3f3d56" d="m15682.18104,13763.068397a24.56,24.56 0 0 1 -3.65,12.33c-3,4.72 -7.54,7.69 -12.56,7.53c-0.35,0 -0.68,0 -1,-0.07a13.28,13.28 0 0 1 -7.54,-3.68a18.11,18.11 0 0 1 -3.48,-4.54a25.48,25.48 0 0 1 0.79,-24.88c3,-4.74 7.54,-7.71 12.56,-7.55s9.36,3.4 12,8.3a24.54,24.54 0 0 1 2.88,12.56z"/>
    <ellipse stroke="null" id="svg_129" fill="#3f3d56" transform="matrix(0.03,-1,1,0.03,152.77,960.28) " ry="15.56" rx="20.37" cy="15882.890329" cx="-12300.006288"/>
    <ellipse stroke="null" id="svg_130" fill="#3f3d56" transform="rotate(-88.19000244140625 15274.841796875,14322.4580078125) " ry="15.56" rx="20.37" cy="14696.38842" cx="15896.591034"/>
    <ellipse stroke="null" id="svg_131" fill="#3f3d56" transform="rotate(-88.19000244140625 15300.4814453125,14299.1376953125) " ry="15.56" rx="20.37" cy="14648.188412" cx="15923.021033"/>
    <path stroke="null" id="svg_132" fill="#6366ff" d="m15616.12104,13515.778397a74.87,74.87 0 0 1 -5.52,-8.71l41.08,-5.42l-44.24,-1.07a74.62,74.62 0 0 1 0.44,-59.07l58.33,32.63l-53.39,-41.93a74.54,74.54 0 1 1 120.42,87.26a74.76,74.76 0 0 1 8.07,13.86l-53.87,25.89l57.16,-17.2a74.55,74.55 0 0 1 -14.22,69.58a74.54,74.54 0 1 1 -117.16,-3.73a74.57,74.57 0 0 1 2.9,-92.13l0,0.04z"/>
    <path stroke="null" id="svg_133" opacity="0.1" d="m15747.73104,13566.038397a74.2,74.2 0 0 1 -17.4,45.56a74.54,74.54 0 1 1 -117.11,-3.73c-9.59,-12.95 134.77,-50.19 134.51,-41.83z"/>
   </g>
   <path stroke="null" id="svg_134" fill="#3f3d56" d="m105.796894,61.816598l0,26.411197c-6.314987,1.060184 -12.757201,1.276102 -19.169226,1.489595c-17.884018,0.595595 -35.814398,1.189978 -53.650975,-0.183167c-7.888073,-0.606513 -15.9713,-1.669123 -22.884685,-5.30092l0,-32.538187c0.025877,-22.440965 -0.081943,0 0,-22.508895l0,-8.077535a1.520255,1.710365 0 0 1 1.520255,-1.710365l92.664376,0a1.520255,1.710365 0 0 1 1.520255,1.710365l0,20.455243c0.064692,20.199295 -0.043128,0.063077 0,20.252668z"/>
   <rect stroke="null" transform="matrix(0.10781948255909203,0,0,0.12130251621275355,-1626.737254329684,-1622.627501205672) " id="svg_135" opacity="0.3" fill="#6366ff" rx="5.22" height="28.56" width="368.86" y="13603.247984" x="15440.591244"/>
   <path stroke="null" id="svg_136" fill="#444053" d="m75.126564,29.357258l-0.06577,0l-0.024798,-0.023047a0.549879,0.618643 0 0 0 0.128305,-0.394233a0.532628,0.599234 0 1 0 -0.530472,0.606513a0.548801,0.61743 0 0 0 0.349335,-0.143137l0.02372,0.023047l0,0.070355l0.410792,0.463376l0.122914,-0.138285l-0.414027,-0.464589zm-0.078708,0.464589a0.370899,0.417281 0 1 1 0.369821,-0.417281a0.368743,0.414855 0 0 1 -0.783848,-0.047308l0.414027,0.464589z"/>
   <rect stroke="null" transform="matrix(0.10781948255909203,0,0,0.12130251621275355,-1626.737254329684,-1622.627501205672) " id="svg_137" opacity="0.7" fill="#3f3d56" rx="5" height="11.9" width="34.42" y="13878.697984" x="15319.281244"/>
   <rect stroke="null" transform="matrix(0.10781948255909203,0,0,0.12130251621275355,-1626.737254329684,-1622.627501205672) " id="svg_138" opacity="0.3" fill="#6366ff" rx="5" height="11.9" width="53.54" y="13908.447984" x="15319.281244"/>
   <rect stroke="null" transform="matrix(0.10781948255909203,0,0,0.12130251621275355,-1626.737254329684,-1622.627501205672) " id="svg_139" opacity="0.3" fill="#6366ff" rx="5" height="11.9" width="107.09" y="13893.577984" x="15319.281244"/>
   <path stroke="null" id="svg_140" fill="#6366ff" d="m18.697081,64.457354a0.618884,0.696276 0 0 0 -0.625353,0.690211a0.41834,0.470654 0 0 1 -0.417261,0.459737a1.078195,1.213025 0 0 0 0.833445,0.46095a0.826975,0.93039 0 0 0 0.835601,-0.920686a0.619962,0.697489 0 0 0 -0.626431,-0.690211zm2.860451,-2.154333l-0.280331,-0.309321a0.20917,0.235327 0 0 0 -0.293269,0l-1.86959,2.062143l0.5736,0.633199l1.867433,-2.062143a0.200544,0.225623 0 0 0 0.002156,-0.323878z"/>
   <rect stroke="null" transform="matrix(0.10781948255909203,0,0,0.12130251621275355,-1626.737254329684,-1622.627501205672) " id="svg_141" opacity="0.7" fill="#3f3d56" rx="5" height="11.9" width="34.42" y="13731.157984" x="15319.281244"/>
   <rect stroke="null" transform="matrix(0.10781948255909203,0,0,0.12130251621275355,-1626.737254329684,-1622.627501205672) " id="svg_142" opacity="0.3" fill="#6366ff" rx="5" height="11.9" width="53.54" y="13760.907984" x="15319.281244"/>
   <rect stroke="null" transform="matrix(0.10781948255909203,0,0,0.12130251621275355,-1626.737254329684,-1622.627501205672) " id="svg_143" opacity="0.3" fill="#6366ff" rx="5" height="11.9" width="107.09" y="13746.027984" x="15319.281244"/>
   <path stroke="null" id="svg_144" fill="#6366ff" d="m21.566158,46.937631l-1.6367,-1.853502a1.166607,1.312493 0 0 0 -0.270627,-1.404683a1.186014,1.334328 0 0 0 -1.331571,-0.264439l0.774144,0.875804l-0.539097,0.606513l-0.789239,-0.870952a1.17092,1.317345 0 0 0 0.233968,1.505364a1.149356,1.293085 0 0 0 1.241002,0.305682l1.633465,1.854715a0.173589,0.195297 0 0 0 0.252298,0l0.414027,-0.468228a0.162807,0.183167 0 0 0 0.018329,-0.285061l0,-0.001213z"/>
   <rect stroke="null" transform="matrix(0.10781948255909203,0,0,0.12130251621275355,-1626.737254329684,-1622.627501205672) " id="svg_145" opacity="0.7" fill="#3f3d56" rx="5" height="11.9" width="34.42" y="13878.697984" x="15606.041244"/>
   <rect stroke="null" transform="matrix(0.10781948255909203,0,0,0.12130251621275355,-1626.737254329684,-1622.627501205672) " id="svg_146" opacity="0.3" fill="#6366ff" rx="5" height="11.9" width="53.54" y="13908.447984" x="15606.041244"/>
   <rect stroke="null" transform="matrix(0.10781948255909203,0,0,0.12130251621275355,-1626.737254329684,-1622.627501205672) " id="svg_147" opacity="0.3" fill="#6366ff" rx="5" height="11.9" width="107.09" y="13893.577984" x="15606.041244"/>
   <path stroke="null" id="svg_148" fill="#6366ff" d="m50.489812,64.872208a1.078195,1.213025 0 0 1 -1.066335,0c-0.417261,0.14435 -0.672794,0.61743 -0.767675,1.035923l2.600606,0c-0.093803,-0.418494 -0.348257,-0.891573 -0.766597,-1.035923zm-0.532628,-2.228327a0.936951,1.054119 0 1 0 0.936951,1.052906a0.936951,1.054119 0 0 0 -0.936951,-1.052906zm0,1.855928a0.723469,0.81394 0 0 1 -0.654464,-0.502192l1.308929,0a0.723469,0.81394 0 0 1 -0.654464,0.502192z"/>
   <path stroke="null" id="svg_149" fill="#6366ff" d="m51.853729,64.310578a1.085742,1.221516 0 0 1 -0.905684,0.083699a1.293834,1.45563 0 0 1 -0.247985,0.346925a1.211891,1.36344 0 0 1 0.528315,0.52524l1.39195,0a1.155825,1.300363 0 0 0 -0.766597,-0.955864zm-0.532628,-2.22954a0.939108,1.056545 0 0 0 -0.790317,0.48521a1.162294,1.307641 0 0 1 0.55527,0.8661l0.889511,0a0.724547,0.815153 0 0 1 -0.654464,0.499766a0.646917,0.727815 0 0 1 -0.224265,-0.046095a1.256097,1.413174 0 0 1 -0.058223,0.251096a0.900293,1.012876 0 0 0 0.282487,0.048521a0.936951,1.054119 0 0 0 0,-2.108238l0,0.003639z"/>
   <rect stroke="null" transform="matrix(0.10781948255909203,0,0,0.12130251621275355,-1626.737254329684,-1622.627501205672) " id="svg_150" opacity="0.7" fill="#3f3d56" rx="5" height="11.9" width="34.42" y="13989.357984" x="15319.281244"/>
   <rect stroke="null" transform="matrix(0.10781948255909203,0,0,0.12130251621275355,-1626.737254329684,-1622.627501205672) " id="svg_151" opacity="0.3" fill="#6366ff" rx="5" height="11.9" width="53.54" y="14019.107984" x="15319.281244"/>
   <rect stroke="null" transform="matrix(0.10781948255909203,0,0,0.12130251621275355,-1626.737254329684,-1622.627501205672) " id="svg_152" opacity="0.3" fill="#6366ff" rx="5" height="11.9" width="107.09" y="14004.237984" x="15319.281244"/>
   <path stroke="null" id="svg_153" fill="#6366ff" d="m19.990915,74.77292l-1.058787,0a0.353648,0.397872 0 0 0 -0.357961,0.39302l0,0.084912l-0.066848,0a0.353648,0.397872 0 0 0 -0.357961,0.39302l0,2.866378a0.360117,0.40515 0 0 0 0.357961,0.402724l1.841557,0a0.35257,0.396659 0 0 0 0.348257,-0.402724l0,-0.075208l0.076552,0a0.35257,0.396659 0 0 0 0.348257,-0.402724l0,-1.985722l-1.131026,-1.273676zm1.131026,1.717644l0.737485,0.829709l-0.737485,0l0,-0.829709zm0.424809,3.293363a0.072239,0.081273 0 0 1 -0.066848,0.084912l-2.972583,0a0.078708,0.088551 0 0 1 -0.074395,-0.084912l0,-4.140055a0.072239,0.081273 0 0 1 0.074395,-0.075208l0.066848,0l0,2.547353c0,0.220771 0.092725,0.322665 0.287878,0.322665l1.553679,0l1.131026,1.345245zm0.423731,-0.477932a0.071161,0.08006 0 0 1 -0.06577,0.084912l-2.972583,0a0.078708,0.088551 0 0 1 -0.074395,-0.084912l0,-4.140055a0.072239,0.081273 0 0 1 0.074395,-0.075208l0.775222,0l0,1.274889l1.132105,0l1.131026,2.940373z"/>
   <rect stroke="null" transform="matrix(0.10781948255909203,0,0,0.12130251621275355,-1626.737254329684,-1622.627501205672) " id="svg_154" opacity="0.7" fill="#3f3d56" rx="5" height="11.9" width="34.42" y="13731.157984" x="15606.041244"/>
   <rect stroke="null" transform="matrix(0.10781948255909203,0,0,0.12130251621275355,-1626.737254329684,-1622.627501205672) " id="svg_155" opacity="0.3" fill="#6366ff" rx="5" height="11.9" width="53.54" y="13760.907984" x="15606.041244"/>
   <rect stroke="null" transform="matrix(0.10781948255909203,0,0,0.12130251621275355,-1626.737254329684,-1622.627501205672) " id="svg_156" opacity="0.3" fill="#6366ff" rx="5" height="11.9" width="107.09" y="13746.027984" x="15606.041244"/>
   <path stroke="null" id="svg_157" fill="#6366ff" d="m50.261235,43.931755l-1.226986,0a0.378446,0.425772 0 0 0 -0.377368,0.425772l0,2.335073a0.377368,0.424559 0 0 0 0.377368,0.424559l3.208708,0a0.377368,0.424559 0 0 0 0.377368,-0.424559l0,-1.860781a0.378446,0.425772 0 0 0 -0.377368,-0.424559l-1.604354,0l-0.377368,-0.477932l0,0.002426z"/>
   <rect stroke="null" transform="matrix(0.10781948255909203,0,0,0.12130251621275355,-1626.737254329684,-1622.627501205672) " id="svg_158" opacity="0.7" fill="#3f3d56" rx="5" height="11.9" width="34.42" y="13878.697984" x="15889.231244"/>
   <rect stroke="null" transform="matrix(0.10781948255909203,0,0,0.12130251621275355,-1626.737254329684,-1622.627501205672) " id="svg_159" opacity="0.3" fill="#6366ff" rx="5" height="11.9" width="53.54" y="13908.447984" x="15889.231244"/>
   <rect stroke="null" transform="matrix(0.10781948255909203,0,0,0.12130251621275355,-1626.737254329684,-1622.627501205672) " id="svg_160" opacity="0.3" fill="#6366ff" rx="5" height="11.9" width="107.09" y="13893.577984" x="15889.231244"/>
   <path stroke="null" id="svg_161" fill="#6366ff" d="m83.211947,62.84403l-0.729938,-0.038817l-0.043128,-0.534944a0.183293,0.206214 0 0 0 -0.202701,-0.18438l-2.616779,0.242605a0.180059,0.202575 0 0 0 -0.171433,0.217132l0.186528,2.347204a0.183293,0.206214 0 0 0 0.202701,0.180741l0.132618,-0.010917l-0.020486,0.456097a0.201622,0.226836 0 0 0 0.19731,0.234114l2.92083,0.155267a0.202701,0.228049 0 0 0 0.215639,-0.211066l0.122914,-2.620134a0.200544,0.225623 0 0 0 -0.194075,-0.232901zm-3.139703,0.053373l-0.062535,1.341606l-0.15526,0.242605l-0.142322,-1.77223l0,-0.010917a0.095959,0.107959 0 0 1 0.084099,-0.093403l2.309493,-0.212279a0.087334,0.098255 0 0 1 0.093803,0.077634s0,0 0,0s0,0 0,0l0.022642,0.305682l-1.940751,-0.10432a0.204857,0.230475 0 0 0 -0.20917,0.225623zm2.954254,2.358121l-0.754736,-0.991042l-0.331006,0.342073l-0.611336,-0.804236l-1.085742,1.300363l0.092725,-1.98087l0,0a0.10135,0.114024 0 0 1 0.107819,-0.089764l2.576886,0.140711a0.093803,0.105533 0 0 1 0.091647,0.100681s0,0 0,0l-0.086256,1.982083z"/>
   <path stroke="null" id="svg_162" fill="#6366ff" d="m82.560717,63.997617a0.283565,0.319026 0 1 0 -0.282487,-0.319026a0.284643,0.320239 0 0 0 0.282487,0.319026z"/>
   <rect stroke="null" transform="matrix(0.10781948255909203,0,0,0.12130251621275355,-1626.737254329684,-1622.627501205672) " id="svg_163" opacity="0.7" fill="#3f3d56" rx="5" height="11.9" width="34.42" y="13731.157984" x="15891.611244"/>
   <rect stroke="null" transform="matrix(0.10781948255909203,0,0,0.12130251621275355,-1626.737254329684,-1622.627501205672) " id="svg_164" opacity="0.3" fill="#6366ff" rx="5" height="11.9" width="53.54" y="13760.907984" x="15891.611244"/>
   <rect stroke="null" transform="matrix(0.10781948255909203,0,0,0.12130251621275355,-1626.737254329684,-1622.627501205672) " id="svg_165" opacity="0.3" fill="#6366ff" rx="5" height="11.9" width="107.09" y="13746.027984" x="15891.611244"/>
   <circle stroke="null" transform="matrix(0.10781948255909203,0,0,0.12130251621275355,-1626.737254329684,-1622.627501205672) " id="svg_166" fill="#6366ff" r="5.25" cy="13742.127984" cx="15859.001244"/>
   <path stroke="null" id="svg_167" fill="#6366ff" d="m82.737541,45.078064l-1.123479,0.841839l-1.556913,-1.16693l0,-0.425772l1.556913,1.168143l0.894902,-0.670803a0.796786,0.896426 0 0 1 -0.010782,-0.97042l-2.487395,0a0.379525,0.426985 0 0 0 -0.378446,0.425772l0,2.654099a0.379525,0.426985 0 0 0 0.378446,0.425772l3.208708,0a0.378446,0.425772 0 0 0 0.377368,-0.425772l0,-1.843798a0.79463,0.894 0 0 1 -0.862556,-0.007278l0.003235,-0.004852z"/>
   <ellipse stroke="null" transform="matrix(0.10781948255909203,0,0,0.12130251621275355,-1626.737254329684,-1622.627501205672) " id="svg_168" fill="#6366ff" ry="5.01" rx="26.08" cy="14131.517984" cx="15606.081244"/>
   <ellipse stroke="null" transform="matrix(0.10781948255909203,0,0,0.12130251621275355,-1626.737254329684,-1622.627501205672) " id="svg_169" fill="#3f3d56" ry="3.97" rx="3.04" cy="14129.387984" cx="15605.651244"/>
   <ellipse stroke="null" transform="matrix(0.10781948255909203,0,0,0.12130251621275355,-1626.737254329684,-1622.627501205672) " id="svg_170" fill="#3f3d56" ry="3.97" rx="3.04" cy="14124.527984" cx="15605.651244"/>
   <ellipse stroke="null" transform="matrix(0.10781948255909203,0,0,0.12130251621275355,-1626.737254329684,-1622.627501205672) " id="svg_171" fill="#3f3d56" ry="3.97" rx="3.04" cy="14119.667984" cx="15605.651244"/>
   <ellipse stroke="null" transform="matrix(0.10781948255909203,0,0,0.12130251621275355,-1626.737254329684,-1622.627501205672) " id="svg_172" fill="#3f3d56" ry="3.97" rx="3.04" cy="14114.807984" cx="15605.651244"/>
   <ellipse stroke="null" transform="matrix(0.10781948255909203,0,0,0.12130251621275355,-1626.737254329684,-1622.627501205672) " id="svg_173" fill="#3f3d56" ry="3.97" rx="3.04" cy="14109.957984" cx="15605.651244"/>
   <ellipse stroke="null" transform="matrix(0.10781948255909203,0,0,0.12130251621275355,-1626.737254329684,-1622.627501205672) " id="svg_174" fill="#3f3d56" ry="3.97" rx="3.04" cy="14105.097984" cx="15605.651244"/>
   <ellipse stroke="null" transform="matrix(0.10781948255909203,0,0,0.12130251621275355,-1626.737254329684,-1622.627501205672) " id="svg_175" fill="#3f3d56" ry="3.97" rx="3.04" cy="14100.237984" cx="15605.651244"/>
   <path stroke="null" id="svg_176" fill="#6366ff" d="m57.080817,83.73475a1.465267,1.648501 0 0 0 0.121836,-0.202575l-0.862556,-0.158906l0.929404,0.008491a1.573086,1.769804 0 0 0 0.030189,-1.397405l-1.247471,0.727815l1.150434,-0.952225a1.567695,1.763739 0 1 0 -2.587668,1.974805a1.629152,1.832881 0 0 0 -0.17898,0.321452l1.11701,0.652608l-1.186014,-0.448819a1.566617,1.762526 0 0 0 0.252298,1.655779a1.567695,1.763739 0 1 0 2.464753,0a1.568773,1.764952 0 0 0 0,-2.183445l-0.003235,0.002426z"/>
   <path stroke="null" id="svg_177" opacity="0.1" d="m54.280745,84.825259a1.557992,1.752821 0 0 0 0.335319,1.091723a1.567695,1.763739 0 1 0 2.464753,0c0.210248,-0.30083 -2.800072,-1.289446 -2.800072,-1.091723z"/>
   <path stroke="null" id="svg_178" fill="url(#svg_86)" d="m82.03348,48.402966a1.474971,1.659418 0 0 1 -0.107819,-0.327517c-0.010782,-0.129794 0.034502,-0.30083 -0.067926,-0.363908c-0.057144,-0.035178 -0.136931,-0.008491 -0.187606,-0.054586a0.231812,0.2608 0 0 1 -0.054988,-0.145563a0.44206,0.49734 0 0 0 -0.409714,-0.363908c0.107819,-0.32873 0.504595,-0.408789 0.679263,-0.698702c0.087334,-0.14435 0.059301,-0.410003 -0.094881,-0.411216a0.268471,0.302043 0 0 0 -0.107819,0.030326l-0.574678,0.266866a2.948863,3.317624 0 0 0 -0.323458,0.16861c-0.315911,0.202575 -0.552036,0.531305 -0.76444,0.864887a3.287416,3.698514 0 0 0 -0.475484,0.97042a1.940751,2.183445 0 0 0 -0.10135,0.665951c0,0.023047 0,0.046095 0,0.067929c-0.093803,0.018195 -0.170355,0.06429 -0.268471,0.086125l-0.223186,0.663525a0.747189,0.840626 0 0 1 -0.145556,0.302043a1.3499,1.518708 0 0 1 -0.157416,0.139498a0.911075,1.025006 0 0 0 -0.313755,0.894a0.855008,0.961929 0 0 0 -0.502439,1.186339a1.003799,1.129326 0 0 0 -0.734251,0.727815a0.47764,0.53737 0 0 1 -0.095959,0.228049a0.382759,0.430624 0 0 1 -0.255532,0.088551c-0.252298,0.018195 -0.472249,0.242605 -0.699748,0.121303a1.424295,1.602406 0 0 0 -0.831288,-0.131007a0.622118,0.699916 0 0 1 -0.177902,0.018195a0.47764,0.53737 0 0 1 -0.145556,-0.057012a1.127792,1.268824 0 0 0 -0.329928,-0.146776a0.306207,0.344499 0 0 0 -0.312676,0.135859c-0.079786,-0.098255 -0.127227,-0.225623 -0.199466,-0.331156a0.323458,0.363908 0 0 0 -0.304051,-0.163758c0.075474,-0.076421 0,-0.229262 -0.100272,-0.255948a1.246393,1.402257 0 0 0 -0.302973,0.01213c-0.26308,0 -0.46578,-0.271718 -0.721312,-0.343286c-0.235046,-0.06429 -0.548801,0.013343 -0.669559,-0.22441c-0.037737,-0.076421 -0.048519,-0.175889 -0.107819,-0.232901a0.392463,0.441541 0 0 0 -0.076552,-0.175889c-0.097038,-0.121303 -0.259845,-0.140711 -0.405401,-0.135859a1.690609,1.902023 0 0 0 -0.471171,0.090977c0,-0.020621 -0.009704,-0.043669 -0.016173,-0.067929a1.195718,1.345245 0 0 0 -0.521846,-0.720537a2.15639,2.42605 0 0 0 -0.610258,-0.274144c0,-0.021834 0,-0.042456 0,-0.06429a2.431329,2.735372 0 0 1 0.125071,-0.901278c0.008626,-0.031539 0.019408,-0.063077 0.029111,-0.094616a2.867998,3.226647 0 0 0 1.293834,-5.413731a0.736407,0.828496 0 0 0 -0.022642,-0.194084a0.847461,0.953438 0 0 0 -0.172511,-0.378464c-0.13154,-0.329943 -0.336397,-0.475506 -0.598398,-0.613791c-0.075474,-0.04003 -0.15526,-0.078847 -0.239359,-0.121303c-0.417261,-0.211066 -0.820506,-0.521601 -1.293834,-0.520388c-0.431278,0 -0.847461,0.268079 -1.274426,0.258374l-0.032346,0l-0.031268,0l-0.038815,0c-0.11968,-0.015769 -0.26308,-0.047308 -0.341788,0.055799a0.485188,0.545861 0 0 0 -0.060379,0.13222a0.284643,0.320239 0 0 1 -0.021564,0.044882l0,0a0.474406,0.533731 0 0 1 -0.054988,0.083699l0,0c-0.138009,0.169824 -0.369821,0.242605 -0.560661,0.356629c-0.431278,0.24867 -0.713765,0.755715 -0.825897,1.28702s-0.073317,1.091723 0.010782,1.630306c0.043128,0.269292 0.135853,0.574974 0.306207,0.744797l0,0l0,0s-1.441546,1.153587 -1.178467,1.317345c0.1434,0.089764 0.74072,-0.336008 1.255019,-0.742371c0.005391,0.024261 0.009704,0.049734 0.016173,0.073995a4.744057,5.337311 0 0 0 0.235046,0.758141c0.107819,0.289913 0.26308,0.606513 0.53155,0.690211a0.577912,0.650181 0 0 0 0.182215,0.023047l0.047441,0a4.247009,4.778106 0 0 1 -0.123992,1.318558a0.712687,0.80181 0 0 0 -0.440982,0.137072a0.354726,0.399085 0 0 1 -0.17898,0.106746a0.311598,0.350564 0 0 1 -0.184371,-0.101894a1.045849,1.176634 0 0 0 -1.308929,0.077634c-0.521846,0.554352 -0.462546,1.636371 -1.078195,2.056078c-0.168198,0.115237 -0.383837,0.177102 -0.483031,0.369973a1.23022,1.384062 0 0 1 -0.083021,0.178315a0.436669,0.491275 0 0 1 -0.146634,0.121303a2.85506,3.212091 0 0 0 -0.504595,0.327517a0.724547,0.815153 0 0 0 -0.290034,0.550713a0.928326,1.044415 0 0 0 0.088412,0.462163a3.928942,4.420264 0 0 0 0.336397,0.727815a0.687888,0.77391 0 0 0 -0.135853,0.357842c-0.043128,0.34086 0.10135,0.676868 0.117523,1.021367c0.014017,0.30083 -0.071161,0.594382 -0.118601,0.89036c-0.189762,1.157226 0.173589,2.329008 0.539097,3.428009a1.572008,1.768591 0 0 1 0.129383,0.564057c0.009704,0.363908 -0.172511,0.687785 -0.223186,1.041989c-0.107819,0.744797 0.380603,1.445926 0.391385,2.199215c0,0.348138 -0.092725,0.701129 -0.015095,1.037137c0.050675,0.22441 0.174668,0.417281 0.26308,0.627134c0.15526,0.371186 0.19731,0.792105 0.346101,1.16693a2.487395,2.798449 0 0 0 0.767675,1.028645c0.186528,0.665951 -0.078708,1.470186 0,2.183445q0.152025,-0.067929 0.307286,-0.121303a4.438928,4.994025 0 0 0 0.679263,3.013155c0.16712,0.293552 0.363352,0.567696 0.4895,0.886721a3.693895,4.155824 0 0 1 0.19084,0.702342q0.270627,1.270037 0.539097,2.537649c0.146634,0.685359 0.294347,1.382849 0.250141,2.086403c-0.030189,0.48521 -0.140165,1.039563 0.127227,1.427731a0.917544,1.032284 0 0 1 0.160651,0.249883a0.562818,0.633199 0 0 1 0,0.329943a19.484059,21.920578 0 0 0 -0.267392,2.473358c-0.060379,0.090977 -0.120758,0.183167 -0.175746,0.274144c-0.443138,0.727815 -0.656621,1.602406 -0.829132,2.464867a26.505263,29.819798 0 0 0 -0.556349,5.148079a3.059917,3.442565 0 0 0 -0.56713,0.777549c-0.231812,0.48521 -0.262001,1.055332 -0.2868,1.606045a0.509986,0.573761 0 0 0 0.025877,0.264439a0.483031,0.543435 0 0 0 0.241516,0.203788l0.133696,0.071568c-0.029111,0.121303 -0.054988,0.242605 -0.07763,0.369973c-0.170355,-0.215918 -0.473328,-0.557992 -0.525081,-0.308108a10.973867,12.34617 0 0 0 -0.276018,2.547353a0.19084,0.214705 0 0 0 0.204857,0.257161a12.534015,14.101418 0 0 0 2.243723,0.215918c0.60918,0 1.217282,-0.055799 1.824306,-0.107959l0.622118,-0.053373a13.768548,15.490331 0 0 0 1.90517,-0.265653c0.27494,-0.067929 0.558505,-0.163758 0.765518,-0.38089s0.308364,-0.588317 0.166042,-0.863674l0,0c-0.173589,-0.332369 -0.578991,-0.356629 -0.917544,-0.410003a3.002773,3.378275 0 0 1 -0.96175,-0.344499c-0.067926,-0.038817 -0.133696,-0.082486 -0.199466,-0.121303c0.017251,0 0.03558,-0.009704 0.051753,-0.016982c0.291113,-0.110385 0.522924,-0.363908 0.796786,-0.515536c0.323458,-0.175889 0.680341,-0.215918 1.031832,-0.265653s0.713765,-0.121303 1.005956,-0.346925c0.273861,-0.211066 0.467937,-0.595595 0.404323,-0.957077a0.55527,0.624708 0 0 0 -0.017251,-0.075208c-0.107819,-0.391807 -0.485188,-0.606513 -0.836679,-0.703555s-0.733172,-0.155267 -1.017816,-0.410003l-0.04205,-0.037604c-0.02372,-0.023047 -0.048519,-0.044882 -0.074395,-0.067929a0.605945,0.68172 0 0 0 0.083021,-0.395446c-0.015095,-0.217132 -0.127227,-0.408789 -0.203779,-0.606513c-0.149869,-0.394233 -0.161729,-0.834561 -0.202701,-1.260333c-0.10135,-1.071101 -0.393541,-2.104599 -0.613493,-3.153865c-0.024798,-0.121303 -0.048519,-0.242605 -0.072239,-0.363908a6.777533,7.625076 0 0 1 0.783848,-1.411961a4.09714,4.609496 0 0 0 0.754736,-1.670336c0.045284,-0.186806 0.078708,-0.376038 0.11321,-0.566483q0.584382,-3.286085 1.104072,-6.583088a4.872362,5.481661 0 0 0 0.098116,-0.951012a2.575807,2.897917 0 0 0 0.145556,-0.901278c0.10135,-0.44518 0.203779,-0.912195 0.120758,-1.203321c-0.058223,-0.206214 -0.087334,-0.910982 -0.11968,-1.586637a5.416851,6.094238 0 0 0 -0.058223,-1.083231c-0.009704,-0.061864 -0.020486,-0.121303 -0.032346,-0.183167q-0.009704,-0.054586 -0.019408,-0.090977a2.768804,3.115049 0 0 0 -0.189762,-0.58953a2.547774,2.866378 0 0 0 -0.142322,-0.32873a1.330492,1.496873 0 0 0 -0.107819,-0.179528a6.684808,7.520756 0 0 1 0.670637,0.070355c0.05391,0.008491 0.120758,0.013343 0.154182,-0.036391a0.158495,0.178315 0 0 0 0.019408,-0.093403a1.374698,1.546607 0 0 0 -0.174668,-0.820005c-0.086256,-0.17225 -0.205935,-0.339647 -0.202701,-0.53737a0.704061,0.792105 0 0 1 0.059301,-0.266866l0.29866,-0.902491c0.253376,-0.762993 0.132618,-1.647288 0.264158,-2.447885a12.772296,14.369496 0 0 0 0.196231,-1.893532c0.024798,-0.542222 0.009704,-1.130539 -0.280331,-1.564802a1.588181,1.786786 0 0 1 -0.215639,-0.344499a0.906762,1.020154 0 0 1 -0.051753,-0.411216q-0.007547,-1.274889 0.045284,-2.547353a22.251785,25.034413 0 0 0 3.779073,-0.48521a2.372029,2.668655 0 0 0 0.431278,-0.131007a2.176875,2.449098 0 0 0 0.431278,-0.306895c0.423731,-0.344499 0.85393,-0.695063 1.176311,-1.158439a3.489038,3.925349 0 0 0 0.696514,-1.933562c0.306207,-0.319026 0.469015,-0.772697 0.622118,-1.213025a1.662576,1.870485 0 0 0 0.142322,-0.588317c0.007547,-0.20864 -0.114289,-0.426985 -0.079786,-0.631986a1.485752,1.671549 0 0 1 0.451764,-0.919473a0.295425,0.332369 0 0 0 0.107819,-0.161332a0.228577,0.257161 0 0 0 -0.024798,-0.157693l-0.009704,-0.018195c0.030189,-0.020621 0.058223,-0.042456 0.087334,-0.06429c0.100272,-0.08006 0.196231,-0.16861 0.290034,-0.254735a1.832931,2.062143 0 0 0 0.37629,-0.429411a0.619962,0.697489 0 0 0 0.10135,-0.570122zm-13.834318,46.494041c-0.025877,0 -0.051753,0 -0.076552,0.007278a1.031832,1.160865 0 0 0 -0.273861,0.088551l-0.020486,0.01213c0.118601,-0.2887 0.230734,-0.582252 0.332084,-0.880656c0.01186,-0.035178 0.022642,-0.070355 0.034502,-0.106746l-0.012938,0.198936a2.18011,2.452737 0 0 0 0.017251,0.680507z"/>
   <path stroke="null" id="svg_179" fill="#ee8e9e" d="m69.742059,50.691944c0.010782,0.470654 0.153104,0.926751 0.174668,1.397405c-1.232377,0.069142 -2.449659,-0.606513 -3.665862,-0.397872c0.341788,-0.24867 0.524003,-0.696276 0.631822,-1.136605a4.194178,4.718668 0 0 0 0.11968,-1.747969a0.712687,0.80181 0 0 0 -0.015095,-0.095829c-0.045284,-0.230475 -0.162807,-0.556779 -0.13154,-0.737519c0.04205,-0.242605 0.242594,-0.192871 0.423731,-0.179528a16.22791,18.257242 0 0 1 1.645325,0.242605c0.142322,0.0279 1.523489,0.416068 1.545053,0.376038a6.435745,7.240547 0 0 0 -0.598398,1.386488a2.406531,2.707472 0 0 0 -0.129383,0.892787z"/>
   <path stroke="null" id="svg_180" fill="#ee8e9e" d="m81.931051,49.236314a1.794116,2.018474 0 0 1 -0.37629,0.426985c-0.093803,0.086125 -0.189762,0.174676 -0.290034,0.253522a1.239924,1.394979 0 0 1 -0.616727,0.282635c-0.293269,0.021834 -0.917544,-0.17225 -1.099759,-0.454884a0.729938,0.821218 0 0 1 -0.107819,-0.474293a1.927812,2.168889 0 0 1 0.10135,-0.662312a3.279869,3.690023 0 0 1 0.475484,-0.97042c0.215639,-0.332369 0.448529,-0.658673 0.76444,-0.860035a2.948863,3.317624 0 0 1 0.323458,-0.16861l0.574678,-0.264439a0.269549,0.303256 0 0 1 0.107819,-0.031539c0.154182,0 0.182215,0.266866 0.094881,0.410003c-0.174668,0.2887 -0.568209,0.363908 -0.679263,0.695063a0.440982,0.496127 0 0 1 0.409714,0.357842a0.227499,0.255948 0 0 0 0.054988,0.14435c0.050675,0.044882 0.130462,0.019408 0.187606,0.054586c0.102429,0.060651 0.057144,0.231688 0.067926,0.363908a1.455563,1.637584 0 0 0 0.107819,0.325091a0.613493,0.690211 0 0 1 -0.100272,0.572548z"/>
   <path stroke="null" id="svg_181" fill="#65617d" d="m64.93331,96.465449c0.094881,-0.106746 0.250141,-0.088551 0.382759,-0.065503a14.232172,16.011932 0 0 0 2.150999,0.195297c0.090568,-0.494914 -0.171433,-0.97042 -0.255532,-1.472613a1.160138,1.305215 0 0 0 -0.086256,-0.373612c-0.10135,-0.218345 -0.329928,-0.319026 -0.544488,-0.363908c-0.387072,-0.09219 -0.993017,-0.253522 -1.209735,0.186806c-0.259845,0.522814 -0.342866,1.304002 -0.437747,1.893532z"/>
   <path stroke="null" id="svg_182" fill="#3f3d56" d="m72.813836,94.593751c-0.292191,0.22441 -0.654464,0.293552 -1.005956,0.344499s-0.712687,0.089764 -1.031832,0.265653c-0.273861,0.152841 -0.505673,0.402724 -0.796786,0.511897a1.650716,1.857142 0 0 1 -0.826975,0.014556c-0.323458,-0.069142 -0.67495,-0.202575 -0.850696,-0.520388c-0.157416,-0.281422 -0.141244,-0.639264 -0.11968,-0.97042c0.025877,-0.374825 0.050675,-0.752076 0.074395,-1.128113a0.474406,0.533731 0 0 1 0.062535,-0.271718c0.236125,-0.388168 0.810803,0.161332 1.118088,0.161332c0.487344,0 1.010269,-0.298404 1.360682,-0.661099a0.419418,0.471867 0 0 1 0.107819,-0.089764c0.139087,-0.070355 0.278174,0.059438 0.401088,0.17225l0.04205,0.037604c0.284643,0.253522 0.666324,0.305682 1.017816,0.408789s0.727782,0.309321 0.836679,0.699916a0.492735,0.554352 0 0 1 0.017251,0.073995c0.061457,0.357842 -0.135853,0.739945 -0.406479,0.951012z"/>
   <path stroke="null" id="svg_183" fill="#434175" d="m72.813836,94.593751c-0.292191,0.22441 -0.654464,0.293552 -1.005956,0.344499s-0.712687,0.089764 -1.031832,0.265653c-0.273861,0.152841 -0.505673,0.402724 -0.796786,0.511897a1.650716,1.857142 0 0 1 -0.826975,0.014556c-0.323458,-0.069142 -0.67495,-0.202575 -0.850696,-0.520388c-0.157416,-0.281422 -0.141244,-0.639264 -0.11968,-0.97042c0.025877,-0.374825 0.050675,-0.752076 0.074395,-1.128113a0.474406,0.533731 0 0 1 0.062535,-0.271718c0.236125,-0.388168 0.810803,0.161332 1.118088,0.161332c0.487344,0 1.010269,-0.298404 1.360682,-0.661099a0.419418,0.471867 0 0 1 0.107819,-0.089764c0.139087,-0.070355 0.278174,0.059438 0.401088,0.17225l0.04205,0.037604c0.284643,0.253522 0.666324,0.305682 1.017816,0.408789s0.727782,0.309321 0.836679,0.699916a0.492735,0.554352 0 0 1 0.017251,0.073995c0.061457,0.357842 -0.135853,0.739945 -0.406479,0.951012z"/>
   <path stroke="null" id="svg_184" fill="#e8eaf2" d="m72.813836,94.719906c-0.292191,0.22441 -0.654464,0.294765 -1.005956,0.345712s-0.712687,0.088551 -1.031832,0.264439c-0.273861,0.152841 -0.505673,0.402724 -0.796786,0.511897a1.650716,1.857142 0 0 1 -0.826975,0.014556a1.358525,1.528412 0 0 1 -0.850696,-0.646542c-0.157416,-0.281422 -0.141244,-0.639264 -0.11968,-0.97042c0.025877,-0.374825 0.050675,-0.752076 0.074395,-1.128113a0.474406,0.533731 0 0 1 0.062535,-0.271718c0.236125,-0.388168 0.810803,0.161332 1.118088,0.161332c0.487344,0 1.010269,-0.298404 1.360682,-0.661099a0.419418,0.471867 0 0 1 0.107819,-0.089764c0.139087,-0.070355 0.278174,0.059438 0.401088,0.17225a2.846434,3.202386 0 0 1 -0.341788,0.795745a1.46958,1.653353 0 0 1 -1.078195,0.754502c-0.215639,0.018195 -0.440982,-0.030326 -0.646917,0.032752s-0.406479,0.305682 -0.332084,0.536157s0.329928,0.272931 0.539097,0.286274a2.413,2.71475 0 0 0 0.885198,-0.070355c0.172511,-0.06429 0.331006,-0.171037 0.498126,-0.249883c0.713765,-0.332369 1.617292,-0.146776 2.205987,-0.70962a1.401653,1.576933 0 0 1 0.180059,-0.155267c0.156338,0.362695 -0.13154,0.872165 -0.402167,1.077166z"/>
   <path stroke="null" id="svg_185" opacity="0.05" d="m72.813836,94.719906c-0.292191,0.22441 -0.654464,0.294765 -1.005956,0.345712s-0.712687,0.088551 -1.031832,0.264439c-0.273861,0.152841 -0.505673,0.402724 -0.796786,0.511897a1.650716,1.857142 0 0 1 -0.826975,0.014556a1.358525,1.528412 0 0 1 -0.850696,-0.646542c-0.157416,-0.281422 -0.141244,-0.639264 -0.11968,-0.97042c0.025877,-0.374825 0.050675,-0.752076 0.074395,-1.128113a0.474406,0.533731 0 0 1 0.062535,-0.271718c0.236125,-0.388168 0.810803,0.161332 1.118088,0.161332c0.487344,0 1.010269,-0.298404 1.360682,-0.661099a0.419418,0.471867 0 0 1 0.107819,-0.089764c0.139087,-0.070355 0.278174,0.059438 0.401088,0.17225a2.846434,3.202386 0 0 1 -0.341788,0.795745a1.46958,1.653353 0 0 1 -1.078195,0.754502c-0.215639,0.018195 -0.440982,-0.030326 -0.646917,0.032752s-0.406479,0.305682 -0.332084,0.536157s0.329928,0.272931 0.539097,0.286274a2.413,2.71475 0 0 0 0.885198,-0.070355c0.172511,-0.06429 0.331006,-0.171037 0.498126,-0.249883c0.713765,-0.332369 1.617292,-0.146776 2.205987,-0.70962a1.401653,1.576933 0 0 1 0.180059,-0.155267c0.156338,0.362695 -0.13154,0.872165 -0.402167,1.077166z"/>
   <path stroke="null" id="svg_186" fill="#696791" d="m65.067006,70.14159a4.3958,4.945504 0 0 0 0.601633,3.639075c0.16712,0.291126 0.363352,0.56527 0.4895,0.881869a3.641064,4.096386 0 0 1 0.19084,0.699916l0.539097,2.523092c0.146634,0.68172 0.294347,1.375571 0.250141,2.075486c-0.030189,0.48521 -0.140165,1.03471 0.127227,1.420452a0.912153,1.026219 0 0 1 0.160651,0.24867a0.55527,0.624708 0 0 1 0,0.327517c-0.273861,1.832881 -0.47764,3.748248 0.017251,5.520478c0.449607,1.607258 0.475484,3.387979 0.857165,5.015859a0.996252,1.120835 0 0 0 0.236125,0.556779a0.783848,0.881869 0 0 0 0.355804,0.189232c0.562818,0.151628 1.156903,-0.025474 1.680906,-0.298404c0.368743,-0.192871 0.765518,-0.530092 0.734251,-0.984976c-0.015095,-0.217132 -0.127227,-0.407576 -0.203779,-0.606513c-0.149869,-0.391807 -0.161729,-0.828496 -0.202701,-1.253055c-0.10135,-1.065036 -0.393541,-2.093681 -0.613493,-3.134457s-0.370899,-2.131285 -0.184371,-3.181765a24.775839,27.874105 0 0 1 1.818915,-6.295601a0.676028,0.760567 0 0 1 0.16712,-0.281422a1.817836,2.04516 0 0 0 0.236125,-0.180741a0.718078,0.807875 0 0 0 0.107819,-0.329943c0.081943,-0.332369 0.323458,-0.578613 0.488422,-0.869739c0.412949,-0.737519 0.282487,-1.682466 0.267392,-2.553418c-0.015095,-0.849118 0.092725,-1.698235 -0.030189,-2.537649s-0.54341,-1.690957 -1.26041,-1.948118c-0.354726,-0.129794 -0.738563,-0.099468 -1.109462,-0.058225c-1.965549,0.218345 -3.87611,0.619856 -5.72198,1.4156z"/>
   <path stroke="null" id="svg_187" opacity="0.1" d="m65.067006,70.262892a4.3958,4.945504 0 0 0 0.601633,3.639075c0.16712,0.291126 0.363352,0.56527 0.4895,0.881869a3.641064,4.096386 0 0 1 0.19084,0.699916l0.539097,2.523092c0.146634,0.68172 0.294347,1.375571 0.250141,2.075486c-0.030189,0.48521 -0.140165,1.03471 0.127227,1.420452a0.912153,1.026219 0 0 1 0.160651,0.24867a0.55527,0.624708 0 0 1 0,0.327517c-0.273861,1.832881 -0.47764,3.748248 0.017251,5.520478c0.449607,1.607258 0.475484,3.387979 0.857165,5.015859a0.996252,1.120835 0 0 0 0.236125,0.556779a0.783848,0.881869 0 0 0 0.355804,0.189232c0.562818,0.151628 1.156903,-0.025474 1.680906,-0.298404c0.368743,-0.192871 0.765518,-0.530092 0.734251,-0.984976c-0.015095,-0.217132 -0.127227,-0.407576 -0.203779,-0.606513c-0.149869,-0.391807 -0.161729,-0.828496 -0.202701,-1.253055c-0.10135,-1.065036 -0.393541,-2.093681 -0.613493,-3.134457s-0.370899,-2.131285 -0.184371,-3.181765a24.775839,27.874105 0 0 1 1.818915,-6.295601a0.676028,0.760567 0 0 1 0.16712,-0.281422a1.817836,2.04516 0 0 0 0.236125,-0.180741a0.718078,0.807875 0 0 0 0.107819,-0.329943c0.081943,-0.332369 0.323458,-0.578613 0.488422,-0.869739c0.412949,-0.737519 0.282487,-1.682466 0.267392,-2.553418c-0.015095,-0.849118 0.092725,-1.698235 -0.030189,-2.537649s-0.54341,-1.690957 -1.26041,-1.948118c-0.354726,-0.129794 -0.738563,-0.099468 -1.109462,-0.058225c-1.965549,0.218345 -3.87611,0.619856 -5.72198,1.4156z"/>
   <path stroke="null" id="svg_188" fill="#696791" d="m73.075837,75.453427a4.744057,5.337311 0 0 1 -0.098116,0.978911q-0.520768,3.275168 -1.108384,6.550336c-0.034502,0.189232 -0.067926,0.378464 -0.11321,0.564057a4.07342,4.582809 0 0 1 -0.754736,1.661844c-1.633465,2.291405 -1.774709,5.618733 -2.660985,8.382004c-0.060379,0.186806 -0.11968,0.374825 -0.183293,0.559205a12.480105,14.040766 0 0 1 -0.546645,1.371931a0.347179,0.390594 0 0 1 -0.107819,0.163758a0.332084,0.373612 0 0 1 -0.177902,0.04003a5.208759,5.860125 0 0 1 -2.303024,-0.58953a0.483031,0.543435 0 0 1 -0.24475,-0.229262a0.502439,0.56527 0 0 1 -0.025877,-0.263226c0.024798,-0.547074 0.054988,-1.11477 0.2868,-1.596341a3.042666,3.423157 0 0 1 0.56713,-0.77391a26.13113,29.398878 0 0 1 0.556349,-5.121392c0.172511,-0.858822 0.385994,-1.726135 0.829132,-2.451524c0.323458,-0.536157 0.795708,-1.065036 0.737485,-1.711579c-0.024798,-0.283848 -0.130462,-0.636838 0.074395,-0.803023c0.08949,-0.073995 0.222108,-0.083699 0.283565,-0.188019a0.323458,0.363908 0 0 0 0.039893,-0.160119a3.521384,3.96174 0 0 0 -0.073317,-1.325837a6.338707,7.131375 0 0 1 -0.175746,-0.864887a0.970375,1.091723 0 0 1 0.192997,-0.834561c0.010782,-0.590743 0,-1.203321 0.007547,-1.792851a2.928377,3.294576 0 0 0 -0.074395,-1.000746c-0.038815,-0.154054 -0.100272,-0.302043 -0.130462,-0.459737c-0.107819,-0.566483 0.163886,-1.245777 -0.161729,-1.698235c-0.135853,-0.186806 -0.345022,-0.280209 -0.522924,-0.414855a1.909483,2.148268 0 0 1 -0.718078,-1.160865a5.670227,6.379299 0 0 1 -0.204857,-1.424092a1.216204,1.368292 0 0 1 0,-0.306895a0.469015,0.527666 0 0 1 0.036659,-0.154054c0.10135,-0.255948 0.373055,-0.355416 0.615649,-0.42092a19.962777,22.459161 0 0 1 4.702008,-0.618643c0.586538,-0.448819 0.915387,-0.287487 1.16445,0.186806a4.430303,4.98432 0 0 1 0.331006,0.910982c0.107819,0.385742 0.120758,2.547353 0.230734,2.931882c0.140165,0.503405 -0.27494,1.534477 -0.269549,2.063356z"/>
   <path stroke="null" id="svg_189" fill="#434175" d="m62.483651,55.809697c-0.043128,0.339647 0.10135,0.673229 0.117523,1.016515c0.014017,0.299617 -0.071161,0.591956 -0.118601,0.886721c-0.189762,1.149948 0.173589,2.315665 0.539097,3.409814a1.552601,1.746756 0 0 1 0.129383,0.560418c0.009704,0.356629 -0.172511,0.684146 -0.223186,1.037137c-0.107819,0.741158 0.380603,1.437435 0.391385,2.183445c0,0.345712 -0.092725,0.697489 -0.015095,1.031071c0.050675,0.223197 0.174668,0.416068 0.262001,0.623495c0.156338,0.363908 0.198388,0.788466 0.347179,1.160865c0.268471,0.673229 0.845305,1.113557 1.395184,1.517494c0.311598,-0.121303 0.646917,-0.255948 0.821584,-0.572548a1.253941,1.410748 0 0 0 0.1434,-0.502192c0.118601,-0.767845 0.114289,-1.551459 0.107819,-2.330221a12.786312,14.385265 0 0 0 -0.08949,-2.006344c-0.107819,-0.849118 -0.354726,-1.661844 -0.530472,-2.495193c-0.215639,-1.049267 -0.333162,-2.133711 -0.677106,-3.141735c-0.302973,-0.884295 -0.773066,-1.678827 -1.269035,-2.440607c-0.188684,-0.289913 -0.338553,-0.704768 -0.705139,-0.638051a0.768753,0.864887 0 0 0 -0.626431,0.699916z"/>
   <path stroke="null" id="svg_190" opacity="0.05" d="m62.483651,55.567092c-0.043128,0.339647 0.10135,0.673229 0.117523,1.016515c0.014017,0.299617 -0.071161,0.591956 -0.118601,0.886721c-0.189762,1.149948 0.173589,2.315665 0.539097,3.409814a1.552601,1.746756 0 0 1 0.129383,0.560418c0.009704,0.356629 -0.172511,0.684146 -0.223186,1.037137c-0.107819,0.741158 0.380603,1.437435 0.391385,2.183445c0,0.345712 -0.092725,0.697489 -0.015095,1.031071c0.050675,0.223197 0.174668,0.416068 0.262001,0.623495c0.156338,0.363908 0.198388,0.788466 0.347179,1.160865c0.268471,0.673229 0.845305,1.113557 1.395184,1.517494c0.311598,-0.121303 0.646917,-0.255948 0.821584,-0.572548a1.253941,1.410748 0 0 0 0.1434,-0.502192c0.118601,-0.767845 0.114289,-1.551459 0.107819,-2.330221a12.786312,14.385265 0 0 0 -0.08949,-2.006344c-0.107819,-0.849118 -0.354726,-1.661844 -0.530472,-2.495193c-0.215639,-1.049267 -0.333162,-2.133711 -0.677106,-3.141735c-0.302973,-0.884295 -0.773066,-1.678827 -1.269035,-2.440607c-0.188684,-0.289913 -0.338553,-0.704768 -0.705139,-0.638051a0.768753,0.864887 0 0 0 -0.626431,0.699916z"/>
   <path stroke="null" id="svg_191" opacity="0.1" d="m70.460137,48.409031a6.435745,7.240547 0 0 0 -0.598398,1.386488a2.823792,3.176913 0 0 1 -0.679263,0.09219c-0.889511,0 -1.518098,-0.568909 -2.041023,-1.288233c-0.045284,-0.230475 -0.323458,-0.44518 -0.295425,-0.625921c0.04205,-0.242605 0.242594,-0.192871 0.423731,-0.179528a16.22791,18.257242 0 0 1 1.645325,0.242605c0.142322,0.019408 1.523489,0.412429 1.545053,0.372399z"/>
   <circle stroke="null" transform="matrix(0.10781948255909203,0,0,0.12130251621275355,-1626.737254329684,-1622.627501205672) " id="svg_192" fill="#ee8e9e" r="26.41" cy="13760.837984" cx="15729.251244"/>
   <path stroke="null" id="svg_193" opacity="0.1" d="m72.780412,69.549633c-0.492735,-0.032752 -0.989783,-0.009704 -1.483596,0.01213a5.083689,5.719414 0 0 0 -0.921857,0.106746c-0.374134,0.095829 -0.723469,0.287487 -1.092211,0.407576c-0.590851,0.192871 -1.214047,0.201362 -1.825384,0.269292a10.173846,11.446105 0 0 0 -1.195718,0.211066a0.469015,0.527666 0 0 1 0.036659,-0.154054c0.10135,-0.255948 0.373055,-0.355416 0.615649,-0.42092a19.962777,22.459161 0 0 1 4.702008,-0.618643c0.586538,-0.442754 0.915387,-0.287487 1.16445,0.186806z"/>
   <path stroke="null" id="svg_194" fill="#434175" d="m70.839661,51.841892c-0.123992,0.161332 -0.291113,0.339647 -0.474406,0.287487a0.655542,0.737519 0 0 1 -0.18545,-0.111598c-0.323458,-0.242605 -0.731016,-0.293552 -1.11701,-0.363908a16.431689,18.486503 0 0 1 -2.300868,-0.582252a2.364481,2.660164 0 0 0 -0.681419,-0.155267c-0.481953,0 -0.909996,0.363908 -1.211891,0.78604s-0.517534,0.91826 -0.814037,1.346458c-0.215639,0.305682 -0.463624,0.574974 -0.660933,0.891573c-0.498126,0.799384 -0.605945,1.842585 -0.476562,2.808153s0.471171,1.87655 0.811881,2.775402a8.460595,9.518608 0 0 0 0.662012,1.511429c-0.114289,0.727815 -0.05391,1.576933 0.25661,2.231966c0.100272,0.214705 0.224265,0.423346 0.257689,0.663525a1.4933,1.68004 0 0 1 -0.017251,0.48521l-0.145556,1.159652c-0.044206,0.35299 -0.088412,0.705981 -0.145556,1.057758c-0.107819,0.64169 -0.245828,1.334328 0.018329,1.919006c0.315911,0.696276 -0.016173,1.58785 0.066848,2.364186a10.544745,11.863386 0 0 1 2.775273,-0.741158c0.611336,-0.067929 1.234533,-0.076421 1.825384,-0.269292c0.368743,-0.121303 0.718078,-0.311747 1.092211,-0.408789a5.067516,5.701218 0 0 1 0.921857,-0.105533c0.682497,-0.030326 1.369307,-0.061864 2.04857,0.050947c0.05391,0.009704 0.120758,0.014556 0.154182,-0.035178a0.158495,0.178315 0 0 0 0.020486,-0.090977a1.36176,1.532051 0 0 0 -0.174668,-0.815153c-0.086256,-0.171037 -0.205935,-0.338434 -0.202701,-0.534944a0.69867,0.78604 0 0 1 0.059301,-0.265653l0.29866,-0.897639c0.253376,-0.758141 0.132618,-1.638797 0.264158,-2.434542a12.664476,14.248194 0 0 0 0.196231,-1.883828c0.024798,-0.539796 0.009704,-1.124474 -0.280331,-1.556311a1.581712,1.779508 0 0 1 -0.215639,-0.343286a0.899214,1.011663 0 0 1 -0.051753,-0.408789q-0.009704,-1.620602 0.078708,-3.241203c-0.252298,-0.510684 -0.516455,-1.032284 -0.768753,-1.542968c-0.294347,-0.594382 -0.591929,-1.200895 -0.71053,-1.868059c-0.078708,-0.440328 -0.076552,-0.895213 -0.132618,-1.340393a0.528315,0.594382 0 0 0 -0.100272,-0.314174a0.505673,0.568909 0 0 0 -0.405401,-0.134646a1.772552,1.994213 0 0 0 -0.534785,0.106746z"/>
   <path stroke="null" id="svg_195" opacity="0.1" d="m81.264727,49.916821a1.239924,1.394979 0 0 1 -0.616727,0.282635c-0.293269,0.021834 -0.917544,-0.17225 -1.099759,-0.454884a0.729938,0.821218 0 0 1 -0.107819,-0.474293a0.529394,0.595595 0 0 1 0.122914,-0.026687a3.221646,3.624519 0 0 1 0.955281,0.043669c0.31052,0.084912 0.610258,0.297191 0.74072,0.625921l0.005391,0.003639z"/>
   <path stroke="null" id="svg_196" fill="#434175" d="m71.790629,56.845621c0.173589,0.242605 0.353648,0.492488 0.599476,0.636838c0.283565,0.164971 0.616727,0.16861 0.934795,0.161332a22.426452,25.230923 0 0 0 3.9063,-0.48521a2.459362,2.76691 0 0 0 0.431278,-0.129794a2.221081,2.498832 0 0 0 0.431278,-0.305682c0.423731,-0.342073 0.85393,-0.691424 1.176311,-1.153587a3.455614,3.887746 0 0 0 0.696514,-1.922645c0.306207,-0.3166 0.469015,-0.769058 0.622118,-1.204534a1.643169,1.84865 0 0 0 0.142322,-0.584678c0.007547,-0.207427 -0.114289,-0.424559 -0.079786,-0.628347a1.470658,1.654566 0 0 1 0.451764,-0.914621a0.295425,0.332369 0 0 0 0.107819,-0.161332a0.226421,0.254735 0 0 0 -0.024798,-0.15648c-0.13154,-0.32873 -0.431278,-0.539796 -0.741798,-0.625921a3.192535,3.591768 0 0 0 -0.956359,-0.043669a2.162859,2.433328 0 0 0 -0.312676,0.094616l-0.223186,0.658673a0.741798,0.834561 0 0 1 -0.145556,0.30083a1.3499,1.518708 0 0 1 -0.157416,0.139498a0.903527,1.016515 0 0 0 -0.313755,0.889147a0.849618,0.955864 0 0 0 -0.502439,1.17906a1.002721,1.128113 0 0 0 -0.734251,0.727815a0.479797,0.539796 0 0 1 -0.095959,0.226836a0.394619,0.443967 0 0 1 -0.252298,0.09219c-0.252298,0.016982 -0.472249,0.242605 -0.699748,0.121303a1.432921,1.61211 0 0 0 -0.831288,-0.131007a0.622118,0.699916 0 0 1 -0.177902,0.018195a0.47764,0.53737 0 0 1 -0.145556,-0.057012a1.155825,1.300363 0 0 0 -0.329928,-0.145563a0.306207,0.344499 0 0 0 -0.312676,0.135859c-0.079786,-0.098255 -0.127227,-0.22441 -0.199466,-0.329943a0.323458,0.363908 0 0 0 -0.304051,-0.163758c0.075474,-0.075208 0,-0.226836 -0.100272,-0.254735a1.364995,1.53569 0 0 0 -0.302973,0.01213c-0.26308,0 -0.46578,-0.270505 -0.721312,-0.34086c-0.235046,-0.06429 -0.548801,0.013343 -0.669559,-0.223197c-0.04205,-0.083699 -0.050675,-0.197723 -0.122914,-0.242605a0.237203,0.266866 0 0 0 -0.159573,-0.020621a1.535349,1.727348 0 0 0 -0.479797,0.163758c-0.246907,1.091723 -0.117523,2.212558 0.070083,3.311559a2.595215,2.919752 0 0 0 0.527237,1.356162z"/>
   <path stroke="null" id="svg_197" opacity="0.1" d="m71.783082,60.733367l-1.225908,2.78268c0.132618,-0.258374 0.41187,-0.363908 0.6329,-0.522814a1.675515,1.885041 0 0 0 0.600555,-0.914621a5.08261,5.718201 0 0 0 0.231812,-1.1269c0.024798,-0.175889 0.076552,-0.423346 0,-0.583465c-0.135853,0.032752 -0.181137,0.235327 -0.239359,0.365121z"/>
   <path stroke="null" id="svg_198" opacity="0.1" d="m68.255228,63.097553c-0.277096,0.308108 -0.615649,0.534944 -0.9197,0.807875c-0.711609,0.638051 -1.21836,1.511429 -1.713252,2.369038a3.317605,3.732478 0 0 0 -0.350413,0.718111c0.058223,0.055799 0.144478,0 0.202701,-0.059438l0.962828,-0.951012a2.176875,2.449098 0 0 0 0.323458,-0.363908c0.16712,-0.253522 0.241516,-0.568909 0.393541,-0.834561a2.893875,3.25576 0 0 1 0.58546,-0.670803c0.22103,-0.213492 1.236689,-1.180273 0.989783,-1.556311c-0.182215,0.097042 -0.328849,0.376038 -0.474406,0.541009z"/>
   <path stroke="null" id="svg_199" fill="#434175" d="m70.358786,51.037656a2.887406,3.248481 0 0 0 -1.018894,-0.377251a2.15639,2.42605 0 0 0 -0.646917,-0.05216c-0.200544,0.0279 -0.393541,0.115237 -0.595164,0.121303c-0.283565,0.018195 -0.554192,-0.111598 -0.828054,-0.195297s-0.589773,-0.121303 -0.819428,0.069142a0.354726,0.399085 0 0 1 -0.17898,0.106746a0.323458,0.363908 0 0 1 -0.184371,-0.101894a1.050162,1.181487 0 0 0 -1.308929,0.077634c-0.521846,0.550713 -0.462546,1.626667 -1.078195,2.04516c-0.168198,0.121303 -0.383837,0.175889 -0.483031,0.363908a1.293834,1.45563 0 0 1 -0.083021,0.177102a0.431278,0.48521 0 0 1 -0.146634,0.121303a2.849669,3.206026 0 0 0 -0.504595,0.326304a0.718078,0.807875 0 0 0 -0.290034,0.547074a0.9197,1.03471 0 0 0 0.088412,0.459737a3.84053,4.320796 0 0 0 3.731632,2.684425a0.584382,0.65746 0 0 0 0.391385,-0.137072a0.747189,0.840626 0 0 0 0.136931,-0.253522c0.287878,-0.678081 0.828054,-1.17906 1.17092,-1.819538c0.203779,-0.384529 0.335319,-0.815153 0.548801,-1.193617c0.323458,-0.573761 0.812959,-0.99832 1.293834,-1.409535c0.271705,-0.231688 0.572521,-0.475506 0.913231,-0.459737c0.302973,0.014556 0.524003,0.032752 0.41187,-0.384529a1.186014,1.334328 0 0 0 -0.520768,-0.715685z"/>
   <path stroke="null" id="svg_200" opacity="0.05" d="m70.358786,51.037656a2.887406,3.248481 0 0 0 -1.018894,-0.377251a2.15639,2.42605 0 0 0 -0.646917,-0.05216c-0.200544,0.0279 -0.393541,0.115237 -0.595164,0.121303c-0.283565,0.018195 -0.554192,-0.111598 -0.828054,-0.195297s-0.589773,-0.121303 -0.819428,0.069142a0.354726,0.399085 0 0 1 -0.17898,0.106746a0.323458,0.363908 0 0 1 -0.184371,-0.101894a1.050162,1.181487 0 0 0 -1.308929,0.077634c-0.521846,0.550713 -0.462546,1.626667 -1.078195,2.04516c-0.168198,0.121303 -0.383837,0.175889 -0.483031,0.363908a1.293834,1.45563 0 0 1 -0.083021,0.177102a0.431278,0.48521 0 0 1 -0.146634,0.121303a2.849669,3.206026 0 0 0 -0.504595,0.326304a0.718078,0.807875 0 0 0 -0.290034,0.547074a0.9197,1.03471 0 0 0 0.088412,0.459737a3.84053,4.320796 0 0 0 3.731632,2.684425a0.584382,0.65746 0 0 0 0.391385,-0.137072a0.747189,0.840626 0 0 0 0.136931,-0.253522c0.287878,-0.678081 0.828054,-1.17906 1.17092,-1.819538c0.203779,-0.384529 0.335319,-0.815153 0.548801,-1.193617c0.323458,-0.573761 0.812959,-0.99832 1.293834,-1.409535c0.271705,-0.231688 0.572521,-0.475506 0.913231,-0.459737c0.302973,0.014556 0.524003,0.032752 0.41187,-0.384529a1.186014,1.334328 0 0 0 -0.520768,-0.715685z"/>
   <path stroke="null" id="svg_201" fill="#434175" d="m71.841304,97.469834c-0.207013,0.217132 -0.490579,0.311747 -0.765518,0.378464a13.768548,15.490331 0 0 1 -1.90517,0.265653l-0.622118,0.053373c-0.607024,0.05216 -1.215126,0.10432 -1.824306,0.106746a12.633209,14.213016 0 0 1 -2.244802,-0.218345a0.245828,0.27657 0 0 1 -0.177902,-0.097042a0.241516,0.271718 0 0 1 -0.026955,-0.158906a10.861735,12.220015 0 0 1 0.276018,-2.535223c0.070083,-0.34086 0.614571,0.424559 0.63937,0.45731a0.62104,0.698702 0 0 0 0.494891,0.294765c0.626431,0.038817 1.328336,-0.389381 1.825384,-0.770271a2.391436,2.69049 0 0 1 0.338553,-0.23654a0.990861,1.11477 0 0 1 0.273861,-0.087338a1.647482,1.853502 0 0 1 0.93156,0.212279c0.374134,0.20864 0.701905,0.508258 1.078195,0.727815a3.025415,3.403749 0 0 0 0.96175,0.342073c0.338553,0.05216 0.743954,0.077634 0.917544,0.407576l0,0c0.138009,0.272931 0.034502,0.64169 -0.170355,0.857609z"/>
   <path stroke="null" id="svg_202" fill="#e8eaf2" d="m71.841304,97.595988c-0.207013,0.217132 -0.490579,0.311747 -0.765518,0.378464a13.768548,15.490331 0 0 1 -1.90517,0.265653l-0.622118,0.053373c-0.607024,0.05216 -1.215126,0.10432 -1.824306,0.106746a12.532937,14.100204 0 0 1 -2.244802,-0.218345a0.24475,0.275357 0 0 1 -0.177902,-0.095829a0.998408,1.123261 0 0 1 -0.139087,-0.286274c0.012938,-0.849118 0.215639,-1.7043 0.38815,-2.535223c0.070083,-0.34086 0.614571,0.424559 0.63937,0.45731a0.62104,0.698702 0 0 0 0.494891,0.294765c0.626431,0.038817 1.328336,-0.389381 1.825384,-0.770271a2.391436,2.69049 0 0 1 0.338553,-0.23654a0.990861,1.11477 0 0 1 0.273861,-0.087338c-0.080865,0.507045 -0.726703,1.119622 -1.060944,1.306428c-0.67495,0.377251 -1.477127,0.188019 -2.229707,0.232901a0.323458,0.363908 0 0 0 -0.158495,0.042456c-0.08949,0.067929 -0.094881,0.212279 -0.092725,0.333582c0.006469,0.201362 0.029111,0.439115 0.18545,0.541009a0.532628,0.599234 0 0 0 0.250141,0.059438a35.35293,39.773882 0 0 0 5.560251,-0.219558a3.043744,3.42437 0 0 0 0.905684,-0.226836a2.31165,2.600726 0 0 0 0.525081,-0.38089c0.237203,0.20864 0.038815,0.769058 -0.166042,0.984976z"/>
   <path stroke="null" id="svg_203" fill="#434175" d="m70.29086,46.562807c-0.010782,0.331156 0.189762,0.97042 -0.361195,0.794531c-0.323458,-0.106746 -0.420496,-0.544648 -0.836679,-0.447606s-0.513221,0.675655 -0.653386,1.052906a1.788725,2.012409 0 0 1 -1.293834,1.17906a0.782769,0.880656 0 0 1 -0.356882,0c-0.268471,-0.086125 -0.421574,-0.397872 -0.53155,-0.686572a4.752683,5.347015 0 0 1 -0.235046,-0.754502a2.728911,3.070167 0 0 1 -0.085177,-0.553139l0,0a2.100324,2.362973 0 0 1 0,-0.382103c0.049597,-0.753289 0.431278,-1.439861 0.918622,-1.959036s1.078195,-0.895213 1.665811,-1.265185a2.469066,2.777828 0 0 1 0.614571,-0.308108a2.071212,2.330221 0 0 1 0.646917,-0.029113a2.248036,2.529157 0 0 1 0.825897,0.218345a1.154747,1.29915 0 0 1 0.290034,0.229262a0.874416,0.983763 0 0 1 0.252298,0.471867c0.107819,0.48521 -0.170355,0.925538 -0.394619,1.310067c-0.204857,0.34086 -0.451764,0.702342 -0.46578,1.129326z"/>
   <path stroke="null" id="svg_204" opacity="0.1" d="m79.553632,53.672347c-0.117523,-0.333582 -0.611336,-1.256694 -0.469015,-1.576933a3.641064,4.096386 0 0 1 0.37629,0.756928c0.092725,0.2608 0.019408,0.607726 0.092725,0.820005z"/>
   <path stroke="null" id="svg_205" opacity="0.1" d="m70.763109,45.432267c0.224265,-0.384529 0.500282,-0.823644 0.394619,-1.310067a0.900293,1.012876 0 0 0 -0.323458,-0.538583a0.783848,0.881869 0 0 1 0.081943,0.226836c0.107819,0.48521 -0.170355,0.924325 -0.394619,1.310067c-0.199466,0.342073 -0.446373,0.704768 -0.461467,1.130539c-0.010782,0.331156 0.19084,0.97042 -0.360117,0.794531c-0.323458,-0.106746 -0.420496,-0.544648 -0.837757,-0.447606s-0.512143,0.674442 -0.653386,1.052906a1.786569,2.009983 0 0 1 -1.293834,1.17906a0.782769,0.880656 0 0 1 -0.356882,0a0.544488,0.612578 0 0 1 -0.168198,-0.093403a0.72886,0.820005 0 0 0 0.406479,0.40515a0.802177,0.902491 0 0 0 0.357961,0a1.793038,2.017261 0 0 0 1.293834,-1.180273c0.141244,-0.378464 0.23289,-0.953438 0.653386,-1.051693s0.508908,0.339647 0.837757,0.446393c0.550958,0.179528 0.349335,-0.463376 0.360117,-0.794531c0.017251,-0.424559 0.265236,-0.787253 0.463624,-1.129326z"/>
   <path stroke="null" id="svg_206" opacity="0.1" d="m70.884945,44.773594a2.354777,2.649247 0 0 1 -0.168198,0.271718a2.865842,3.224221 0 0 1 -0.389228,0.453671c-0.085177,0.082486 -0.172511,0.158906 -0.26308,0.231688a4.147815,4.666508 0 0 1 -0.53155,0.357842a9.862248,11.095541 0 0 1 -1.701391,0.685359l-1.136417,0.372399c-0.140165,0.121303 -0.395698,0.332369 -0.677106,0.554352a2.728911,3.070167 0 0 1 -0.085177,-0.553139l0,0a2.100324,2.362973 0 0 1 0,-0.382103c0.049597,-0.753289 0.431278,-1.439861 0.918622,-1.959036s1.078195,-0.895213 1.665811,-1.265185a2.469066,2.777828 0 0 1 0.614571,-0.308108a2.071212,2.330221 0 0 1 0.646917,-0.029113a2.248036,2.529157 0 0 1 0.825897,0.218345a1.154747,1.29915 0 0 1 0.290034,0.229262a1.09329,1.230008 0 0 1 0.145556,0.346925c0.071161,0.2608 -0.028033,0.539796 -0.15526,0.775123z"/>
   <path stroke="null" id="svg_207" fill="#6366ff" d="m70.884945,44.68747a2.354777,2.649247 0 0 1 -0.168198,0.271718a2.865842,3.224221 0 0 1 -0.389228,0.453671c-0.085177,0.082486 -0.172511,0.158906 -0.26308,0.231688a4.275042,4.809645 0 0 1 -0.53155,0.357842a9.862248,11.095541 0 0 1 -1.701391,0.685359l-1.136417,0.371186c-0.396776,0.338434 -1.725112,1.444713 -1.948298,1.306428c-0.26308,-0.162545 1.178467,-1.31128 1.178467,-1.31128l0.06577,0.057012c-0.215639,-0.149202 -0.323458,-0.494914 -0.368743,-0.794531c-0.084099,-0.536157 -0.123992,-1.091723 -0.010782,-1.621815s0.395698,-1.032284 0.825897,-1.279742c0.19084,-0.111598 0.422652,-0.185593 0.560661,-0.355416a0.474406,0.533731 0 0 0 0.054988,-0.083699a0.224265,0.252309 0 0 0 0.021564,-0.043669a0.46578,0.524027 0 0 1 0.060379,-0.13222c0.078708,-0.101894 0.222108,-0.071568 0.341788,-0.054586l0.038815,0a0.612415,0.688998 0 0 0 0.063613,0c0.431278,0.010917 0.84207,-0.257161 1.274426,-0.257161c0.473328,0 0.876572,0.308108 1.293834,0.519175c0.084099,0.042456 0.163886,0.081273 0.239359,0.121303c0.301895,0.157693 0.528315,0.326304 0.646917,0.77391c0.07763,0.271718 -0.021564,0.551926 -0.148791,0.784827z"/>
   <path stroke="null" id="svg_208" opacity="0.1" d="m67.5792,42.752695a0.194075,0.218345 0 0 1 -0.045284,0.281422a0.345022,0.388168 0 0 1 -0.17898,0.071568a1.207578,1.358588 0 0 1 -0.140165,0.01213a0.385994,0.434263 0 0 1 -0.184371,-0.035178a0.237203,0.266866 0 0 1 -0.032346,-0.023047a0.474406,0.533731 0 0 0 0.054988,-0.083699c0.010782,0.009704 0.021564,0.007278 0.063613,0a0.984392,1.107492 0 0 0 0.230734,-0.043669a0.25661,0.2887 0 0 0 0.086256,-0.047308a0.267392,0.30083 0 0 0 0.081943,-0.139498l0.063613,0.007278z"/>
   <path stroke="null" id="svg_209" opacity="0.1" d="m65.953282,47.041952a0.525081,0.590743 0 0 0 0.19731,0.082486a0.893824,1.005598 0 0 0 0.152025,0.0279a0.845305,0.951012 0 0 0 0.371977,-0.121303"/>
  </g>
 </g>
</svg>