<svg width="119.99999999999999" height="100" xmlns="http://www.w3.org/2000/svg">
 <!-- Created with Method Draw - http://github.com/duopixel/Method-Draw/ -->

 <g>
  <title>background</title>
  <rect fill="#fff" id="canvas_background" height="102" width="122" y="-1" x="-1"/>
  <g display="none" overflow="visible" y="0" x="0" height="100%" width="100%" id="canvasGrid">
   <rect fill="url(#gridpattern)" stroke-width="0" y="0" x="0" height="100%" width="100%"/>
  </g>
 </g>
 <g>
  <title>Layer 1</title>


  <g stroke="null" id="svg_252">
   <ellipse stroke="null" transform="matrix(0.13218546962031597,0,0,0.1820498918642698,-3494.523713498639,-4080.628328082422) " id="svg_215" fill="#e6e6e6" ry="14.58952" rx="122" cy="22943.975351" cx="26571.971962"/>
   <path stroke="null" id="svg_216" fill="#2f2e41" d="m22.01664,25.910578c-0.008221,0.056592 -0.01644,0.111575 -0.025834,0.168167c-0.429724,2.525802 -0.334621,5.082329 0.1996,7.664734l-8.923292,0l1.408941,-8.875888a3.29157,4.533252 0 0 1 1.130676,-3.423253c0.05988,-0.072767 0.122105,-0.143918 0.18668,-0.208604a3.278583,4.515365 0 0 1 1.983087,-0.913616l0.765527,0a3.429068,4.722618 0 0 1 1.342016,0.373534c0.071621,0.042054 0.142072,0.087317 0.210166,0.135826c1.479392,0.70826 2.370544,2.805554 2.190908,4.972371c-0.213691,2.577548 0.097454,5.101743 0.845366,7.580645l-0.466128,0.074386c-0.745562,-2.467595 -1.056707,-4.980457 -0.847712,-7.5483z"/>
   <path stroke="null" id="svg_217" fill="#fbbebe" d="m16.613349,27.194498s0.704471,4.20428 -0.704471,4.527688s3.639765,1.293625 3.639765,1.293625s-0.352235,-3.395766 0.469655,-4.527688l-3.40495,-1.293625z"/>
   <path stroke="null" id="svg_218" fill="#fbbebe" d="m10.735253,56.290713s-0.287794,4.944499 0.937071,5.010978s0.54448,-4.86856 0.54448,-4.86856l-1.481551,-0.142418z"/>
   <path stroke="null" id="svg_219" fill="#fbbebe" d="m27.062999,58.72661s1.174119,4.68939 0,5.174501s-1.408941,-4.527688 -1.408941,-4.527688l1.408941,-0.646812z"/>
   <polygon stroke="null" id="svg_220" fill="#6366ff" points="20.840270089859587,35.44139632235469 22.492708386046615,35.093760508298644 23.18841991775207,35.764727630491095 23.775467117492553,38.19019221561898 25.184544075361373,48.05417776503377 26.241114719757206,54.52239507732479 27.884966390310183,59.04999293944415 25.184544075361373,60.666965280802785 22.60138570836807,49.0244874901196 20.840270089859587,35.44139632235469 "/>
   <path stroke="null" id="svg_221" fill="#2f2e41" d="m14.323819,47.488242s-0.704471,6.468125 -0.234824,7.76175c0,0 -0.873898,7.508948 -1.526354,12.451142l-0.939294,7.114938l-2.113412,10.834111l3.404942,1.293625l6.927296,-26.519315l1.996001,14.876689l0.352236,10.672407l3.639765,-0.161704l-0.469647,-18.595861s2.113413,-12.289438 -1.526354,-16.817126s-4.226825,-4.527688 -4.226825,-4.527688l-5.283531,1.617033z"/>
   <path stroke="null" id="svg_222" fill="#2f2e41" d="m24.714764,85.326777l0.939294,4.365984l0.587059,3.880876s2.113412,4.365984 0,3.880874s-2.348237,-2.102141 -2.348237,-2.102141l0,-0.970219l-0.587059,-0.485108l0,-1.617033s-0.821882,-0.808515 0,-2.102141l-0.352235,-4.527686l1.761177,-0.323406z"/>
   <path stroke="null" id="svg_223" fill="#2f2e41" d="m10.390524,85.326777l-0.939294,4.365984l-0.587059,3.880876s-2.113412,4.365984 0,3.880874s2.348237,-2.102141 2.348237,-2.102141l0,-0.970219l0.587058,-0.485108l0,-1.617033s0.821883,-0.808515 0,-2.102141l0.352236,-4.527686l-1.761177,-0.323406z"/>
   <circle stroke="null" transform="matrix(0.13218546962031597,0,0,0.1820498918642698,-3494.523713498639,-4080.628328082422) " id="svg_224" fill="#fbbebe" r="22.205881" cy="22554.498931" cx="26579.077842"/>
   <path stroke="null" id="svg_225" fill="#6366ff" d="m15.908879,30.913674s3.052707,1.778735 3.874589,1.455329s1.056707,1.131921 1.056707,1.131921l2.348237,2.263845l-0.704471,5.497907s0.587058,2.910656 -0.117412,4.851094c0,0 1.878589,0.808515 1.174118,2.102141c0,0 1.29153,0.970219 0.587059,2.910656c0,0 -3.522354,-1.293625 -3.874589,-3.719172l-3.639767,0.646812l-2.583059,2.748953s-1.29153,-0.161704 -0.821883,-2.748953a6.69722,9.223618 0 0 0 -0.117412,-4.851094l-1.29153,-11.31922l4.109414,-0.970219z"/>
   <path stroke="null" id="svg_226" fill="#6366ff" d="m12.188283,31.733929l-0.468805,0.171185a0.833958,1.148553 0 0 0 -0.419808,0.363277l-0.151927,0.24442a1.077405,1.483836 0 0 0 -0.256325,0.861642l-0.104466,2.061393l-0.165186,10.036139l0.148027,6.626693l-0.771883,4.949227l2.907967,0.63834l0.393022,-12.161963l-0.726856,-13.414175a0.306148,0.421637 0 0 0 -0.38376,-0.376177z"/>
   <path stroke="null" id="svg_227" fill="#2f2e41" d="m19.419495,33.282614c-0.482017,-1.607359 -1.196355,-3.306179 -1.667873,-4.831049c-0.325398,-1.78154 -0.407164,-3.306545 0.329374,-4.086873c0,-1.715667 0.043443,-2.834661 -0.946338,-3.669044a3.293201,4.535498 0 0 0 -0.670832,0.540675l-0.000768,-0.000593c-0.039171,0.039243 -0.077187,0.081247 -0.114631,0.124158c-0.015837,0.017983 -0.031266,0.036537 -0.046852,0.054915c-0.008328,0.009938 -0.016955,0.019521 -0.025197,0.029528l0.00076,0.000712a3.29073,4.532094 0 0 0 -1.131436,3.422538l0,8.552482l3.639765,0c-0.120379,-0.722385 -0.280609,-1.470972 -0.446563,-2.217004c0.262764,0.722354 0.521193,1.449594 0.734224,2.158791l0.346367,-0.079237z"/>
   <path stroke="null" id="svg_228" fill="#2f2e41" d="m22.19041,24.364693c-1.590728,0.614293 -3.38,0.513046 -5.283531,0l0,-3.234064l2.935297,0a2.348234,3.23406 0 0 1 2.348234,3.23406l0,0.000004z"/>
   <rect stroke="null" transform="matrix(0.13218546962031597,0,0,0.1820498918642698,-3494.523713498639,-4080.628328082422) " id="svg_229" fill="#e6e6e6" height="343.11355" width="551" y="22456.451321" x="26785.971962"/>
   <rect stroke="null" transform="matrix(0.13218546962031597,0,0,0.1820498918642698,-3494.523713498639,-4080.628328082422) " id="svg_230" fill="#fff" height="65.59524" width="100.91575" y="22522.551141" x="26822.920892"/>
   <rect stroke="null" transform="matrix(0.13218546962031597,0,0,0.1820498918642698,-3494.523713498639,-4080.628328082422) " id="svg_231" fill="#fff" height="65.59524" width="100.91575" y="22522.551141" x="26948.316352"/>
   <rect stroke="null" transform="matrix(0.13218546962031597,0,0,0.1820498918642698,-3494.523713498639,-4080.628328082422) " id="svg_232" fill="#fff" height="65.59524" width="100.91575" y="22522.551141" x="27073.711822"/>
   <rect stroke="null" transform="matrix(0.13218546962031597,0,0,0.1820498918642698,-3494.523713498639,-4080.628328082422) " id="svg_233" fill="#fff" height="65.59524" width="100.91575" y="22522.551141" x="27199.107282"/>
   <rect stroke="null" transform="matrix(0.13218546962031597,0,0,0.1820498918642698,-3494.523713498639,-4080.628328082422) " id="svg_234" fill="#fff" height="65.59524" width="100.91575" y="22615.393631" x="26822.920892"/>
   <rect stroke="null" transform="matrix(0.13218546962031597,0,0,0.1820498918642698,-3494.523713498639,-4080.628328082422) " id="svg_235" fill="#fff" height="65.59524" width="100.91575" y="22615.393631" x="26948.316352"/>
   <rect stroke="null" transform="matrix(0.13218546962031597,0,0,0.1820498918642698,-3494.523713498639,-4080.628328082422) " id="svg_236" fill="#fff" height="65.59524" width="100.91575" y="22615.393631" x="27073.711822"/>
   <rect stroke="null" transform="matrix(0.13218546962031597,0,0,0.1820498918642698,-3494.523713498639,-4080.628328082422) " id="svg_237" fill="#fff" height="65.59524" width="100.91575" y="22615.393631" x="27199.107282"/>
   <rect stroke="null" transform="matrix(0.13218546962031597,0,0,0.1820498918642698,-3494.523713498639,-4080.628328082422) " id="svg_238" fill="#fff" height="65.59524" width="100.91575" y="22708.236121" x="26822.920892"/>
   <rect stroke="null" transform="matrix(0.13218546962031597,0,0,0.1820498918642698,-3494.523713498639,-4080.628328082422) " id="svg_239" fill="#fff" height="65.59524" width="100.91575" y="22708.236121" x="26948.316352"/>
   <rect stroke="null" transform="matrix(0.13218546962031597,0,0,0.1820498918642698,-3494.523713498639,-4080.628328082422) " id="svg_240" fill="#fff" height="65.59524" width="100.91575" y="22708.236121" x="27073.711822"/>
   <rect stroke="null" transform="matrix(0.13218546962031597,0,0,0.1820498918642698,-3494.523713498639,-4080.628328082422) " id="svg_241" fill="#fff" height="65.59524" width="100.91575" y="22708.236121" x="27199.107282"/>
   <circle stroke="null" transform="matrix(0.13218546962031597,0,0,0.1820498918642698,-3494.523713498639,-4080.628328082422) " id="svg_242" fill="#fff" r="15.13736" cy="22481.680261" cx="26930.281482"/>
   <circle stroke="null" transform="matrix(0.13218546962031597,0,0,0.1820498918642698,-3494.523713498639,-4080.628328082422) " id="svg_243" fill="#fff" r="15.13736" cy="22481.680261" cx="27180.552552"/>
   <rect stroke="null" y="22416.085021" transform="matrix(0.13218546962031597,0,0,0.1820498918642698,-3494.523713498639,-4080.628328082422) " id="svg_244" fill="#e6e6e6" height="69.63187" width="12.10989" x="26924.226542"/>
   <rect stroke="null" y="22416.085021" transform="matrix(0.13218546962031597,0,0,0.1820498918642698,-3494.523713498639,-4080.628328082422) " id="svg_245" fill="#e6e6e6" height="69.63187" width="12.10989" x="27174.497602"/>
   <path stroke="null" id="svg_246" fill="#6366ff" d="m110.489422,25.570475a3.008088,4.142831 0 1 1 -0.466197,-2.219265a3.016262,4.154089 0 0 1 0.466197,2.219265z"/>
   <path stroke="null" id="svg_247" fill="#fff" d="m110.023225,23.35121l-2.9694,4.088793c-0.186629,-0.397925 -1.226372,-2.247211 -1.226372,-2.247211a4.207448,5.794626 0 0 1 0.425611,-0.517428l0.862189,1.583246l2.560242,-3.526044a3.004065,4.137291 0 0 1 0.34773,0.618644z"/>
   <path stroke="null" id="svg_248" fill="#6366ff" d="m77.338507,42.47244a3.008088,4.142831 0 1 1 -0.466197,-2.219265a3.016262,4.154089 0 0 1 0.466197,2.219265z"/>
   <path stroke="null" id="svg_249" fill="#fff" d="m76.872308,40.253175l-2.9694,4.088793c-0.186629,-0.397925 -1.226372,-2.247211 -1.226372,-2.247211a4.207448,5.794626 0 0 1 0.425611,-0.517428l0.862189,1.583248l2.560242,-3.526046a3.004133,4.137384 0 0 1 0.34773,0.618644z"/>
   <path stroke="null" id="svg_250" fill="#6366ff" d="m60.763046,42.47244a3.008101,4.142849 0 1 1 -0.466197,-2.219265a3.016262,4.154089 0 0 1 0.466197,2.219265z"/>
   <path stroke="null" id="svg_251" fill="#fff" d="m60.296849,40.253175l-2.9694,4.088793c-0.186629,-0.397925 -1.226371,-2.247211 -1.226371,-2.247211a4.207448,5.794626 0 0 1 0.425611,-0.517428l0.862188,1.583248l2.560244,-3.526046a3.004124,4.137371 0 0 1 0.347728,0.618644z"/>
  </g>
 </g>
</svg>