<?xml version="1.0" standalone="no"?><!DOCTYPE svg PUBLIC "-//W3C//DTD SVG 1.1//EN" "http://www.w3.org/Graphics/SVG/1.1/DTD/svg11.dtd"><svg t="1592740688684" class="icon" viewBox="0 0 1398 1024" version="1.1" xmlns="http://www.w3.org/2000/svg" p-id="16024" xmlns:xlink="http://www.w3.org/1999/xlink" width="43.6875" height="32"><defs><style type="text/css"></style></defs><path d="M316.83757835 867.36499391h678.41503513a17.63469686 17.63469686 0 0 1 19.96922885 19.96922884 17.63469686 17.63469686 0 0 1-19.96922885 19.96922809H316.83757835A17.63469686 17.63469686 0 0 1 296.86835028 887.33422275a17.63469686 17.63469686 0 0 1 19.96922807-19.96922884z" fill="#F9BA5E" p-id="16025"></path><path d="M197.09403859 117.11820143h917.86619914A71.18527201 71.18527201 0 0 1 1194.76532057 198.324003v527.96341908a71.18527201 71.18527201 0 0 1-79.80508283 81.20580156H197.09403859A71.18527201 71.18527201 0 0 1 117.28895575 726.28742208v-527.96341908A71.18527201 71.18527201 0 0 1 197.09403859 117.11820143z" fill="#FF9800" p-id="16026"></path><path d="M859.77791887 377.93931303l-34.1200851 19.53823811a165.75178093 165.75178093 0 0 1 4.38173758 112.52444845l29.91792661 17.34736969a31.31864611 31.31864611 0 0 1-31.31864611 54.26889306l-27.15240466-15.76707112a171.60606904 171.60606904 0 0 1-104.37154387 64.03801171v18.74808921a31.24681432 31.24681432 0 1 1-62.45771312 0v-18.85583651a171.60606904 171.60606904 0 0 1-104.1560485-63.85843262l-26.93690929 15.55157575a31.10315074 31.10315074 0 0 1-42.70397965-11.38533353 31.49822596 31.49822596 0 0 1 11.56491263-42.88355951l29.52285293-17.16778986a170.38492939 170.38492939 0 0 1-7.9733255-49.67166084 173.11453582 173.11453582 0 0 1 15.55157576-70.43103864l-21.33403208-12.35506229a31.31864611 31.31864611 0 1 1 31.31864611-54.26889228l25.93126502 15.15650053a169.37928435 169.37928435 0 0 1 89.17912706-47.48079167v-18.74808844a31.24681432 31.24681432 0 1 1 62.45771313 0v18.74808844a170.92366742 170.92366742 0 0 1 95.17707873 53.26324799l36.13137442-20.75937776a31.10315074 31.10315074 0 0 1 42.70397965 11.38533355 31.53414147 31.53414147 0 0 1-11.31350175 43.06313858z m-193.73025077-11.38533354a93.77635924 93.77635924 0 1 0 66.37254446 27.54747912 93.9918546 93.9918546 0 0 0-66.40845997-27.51156284z" fill="#FFFFFF" p-id="16027"></path></svg>