<svg data-v-fde0c5aa="" xmlns="http://www.w3.org/2000/svg" viewBox="0 0 300 300" class="iconAboveSlogan"><!----><defs data-v-fde0c5aa=""><!----></defs><rect data-v-fde0c5aa="" fill="transparent" x="0" y="0" width="300px" height="300px" class="logo-background-square"></rect><defs data-v-fde0c5aa=""><!----></defs><g data-v-fde0c5aa="" id="ec17c0eb-97d6-4803-88ce-dd109ad6667c" fill="#EFEFEF" transform="matrix(3.015891459936563,0,0,3.015891459936563,15.687275010958238,140.22552213055877)"><path d="M11.77 6.21L11.77 6.21L11.77 6.21Q11.68 6.26 11.62 6.34L11.62 6.34L11.62 6.34Q11.57 6.43 11.55 6.51L11.55 6.51L11.55 6.51Q11.52 6.60 11.50 6.71L11.50 6.71L11.50 6.71Q11.50 6.79 11.49 7.07L11.49 7.07L11.49 7.07Q11.48 7.35 11.46 7.78L11.46 7.78L11.46 7.78Q11.44 8.20 11.43 8.73L11.43 8.73L11.43 8.73Q11.41 9.26 11.39 9.83L11.39 9.83L11.39 9.83Q11.37 10.40 11.35 10.96L11.35 10.96L11.35 10.96Q11.33 11.53 11.32 12.03L11.32 12.03L11.32 12.03Q11.30 12.53 11.29 12.92L11.29 12.92L11.29 12.92Q11.28 13.32 11.27 13.54L11.27 13.54L11.27 13.54Q11.26 13.97 11.23 14.25L11.23 14.25L11.23 14.25Q11.20 14.53 11.16 14.71L11.16 14.71L11.16 14.71Q11.11 14.90 11.04 15.03L11.04 15.03L11.04 15.03Q10.97 15.16 10.89 15.30L10.89 15.30L10.89 15.30Q10.83 15.43 10.71 15.66L10.71 15.66L10.71 15.66Q10.60 15.86 10.41 16.19L10.41 16.19L10.41 16.19Q10.22 16.52 9.93 17.02L9.93 17.02L9.93 17.02Q9.82 16.72 9.60 16.39L9.60 16.39L9.60 16.39Q9.38 16.06 9.15 15.78L9.15 15.78L9.15 15.78Q8.87 15.45 8.57 15.13L8.57 15.13L8.57 15.13Q8.20 14.77 7.44 14.01L7.44 14.01L7.44 14.01Q7.11 13.69 6.67 13.26L6.67 13.26L6.67 13.26Q6.22 12.82 5.63 12.25L5.63 12.25L5.63 12.25Q5.04 11.68 4.31 10.95L4.31 10.95L4.31 10.95Q3.57 10.23 2.66 9.33L2.66 9.33L2.66 9.33Q2.65 10.17 2.64 10.83L2.64 10.83L2.64 10.83Q2.63 11.50 2.62 12.03L2.62 12.03L2.62 12.03Q2.61 12.56 2.60 12.96L2.60 12.96L2.60 12.96Q2.60 13.35 2.60 13.64L2.60 13.64L2.60 13.64Q2.59 14.31 2.59 14.59L2.59 14.59L2.59 14.59Q2.58 14.81 2.63 14.99L2.63 14.99L2.63 14.99Q2.68 15.18 2.78 15.31L2.78 15.31L2.78 15.31Q2.88 15.44 3.05 15.52L3.05 15.52L3.05 15.52Q3.21 15.59 3.45 15.59L3.45 15.59L3.45 15.59Q3.68 15.59 3.98 15.51L3.98 15.51L3.98 15.51Q4.28 15.44 4.66 15.26L4.66 15.26L4.66 15.26Q4.33 15.59 4.03 15.83L4.03 15.83L4.03 15.83Q3.73 16.06 3.47 16.24L3.47 16.24L3.47 16.24Q3.21 16.41 2.98 16.52L2.98 16.52L2.98 16.52Q2.76 16.63 2.58 16.69L2.58 16.69L2.58 16.69Q2.16 16.84 1.85 16.81L1.85 16.81L1.85 16.81Q1.59 16.75 1.51 16.60L1.51 16.60L1.51 16.60Q1.43 16.45 1.43 16.17L1.43 16.17L1.43 16.17Q1.43 14.01 1.50 11.89L1.50 11.89L1.50 11.89Q1.58 9.78 1.58 7.67L1.58 7.67L1.58 7.67Q1.58 7.35 1.58 7.14L1.58 7.14L1.58 7.14Q1.58 6.92 1.57 6.83L1.57 6.83L1.57 6.83Q1.62 6.65 1.79 6.43L1.79 6.43L1.79 6.43Q1.93 6.23 2.20 5.95L2.20 5.95L2.20 5.95Q2.47 5.68 2.94 5.33L2.94 5.33L2.94 5.33Q2.88 5.48 2.86 5.61L2.86 5.61L2.86 5.61Q2.84 5.75 2.84 5.87L2.84 5.87L2.84 5.87Q2.84 6.07 2.88 6.22L2.88 6.22L2.88 6.22Q2.92 6.38 2.97 6.49L2.97 6.49L2.97 6.49Q3.04 6.61 3.11 6.71L3.11 6.71L3.11 6.71Q3.34 7 3.71 7.38L3.71 7.38L3.71 7.38Q4.08 7.77 4.57 8.25L4.57 8.25L4.57 8.25Q5.06 8.73 5.65 9.31L5.65 9.31L5.65 9.31Q6.23 9.89 6.90 10.58L6.90 10.58L6.90 10.58Q7.38 11.03 7.92 11.56L7.92 11.56L7.92 11.56Q8.37 12.01 8.96 12.62L8.96 12.62L8.96 12.62Q9.54 13.22 10.15 13.91L10.15 13.91L10.15 13.91Q10.17 12.65 10.17 11.74L10.17 11.74L10.17 11.74Q10.18 10.82 10.18 10.14L10.18 10.14L10.18 10.14Q10.18 9.52 10.18 9.12L10.18 9.12L10.18 9.12Q10.17 8.71 10.17 8.46L10.17 8.46L10.17 8.46Q10.16 8.18 10.15 8.02L10.15 8.02L10.15 8.02Q10.15 7.79 10.08 7.63L10.08 7.63L10.08 7.63Q10.01 7.47 9.91 7.38L9.91 7.38L9.91 7.38Q9.80 7.29 9.67 7.26L9.67 7.26L9.67 7.26Q9.53 7.22 9.39 7.22L9.39 7.22L9.39 7.22Q9.24 7.22 9.09 7.25L9.09 7.25L9.09 7.25Q8.95 7.29 8.87 7.34L8.87 7.34L8.87 7.34Q9.16 7.10 9.44 6.88L9.44 6.88L9.44 6.88Q9.72 6.67 10.01 6.51L10.01 6.51L10.01 6.51Q10.30 6.35 10.62 6.26L10.62 6.26L10.62 6.26Q10.94 6.17 11.30 6.17L11.30 6.17L11.30 6.17Q11.54 6.17 11.77 6.21ZM17.25 11.66L22.26 10.02L22.26 10.02Q21.48 10.40 20.81 10.70L20.81 10.70L20.81 10.70Q20.13 11.00 19.62 11.20L19.62 11.20L19.62 11.20Q19.02 11.44 18.53 11.63L18.53 11.63L18.53 11.63Q18.22 11.76 17.85 11.89L17.85 11.89L17.85 11.89Q17.47 12.02 17.07 12.15L17.07 12.15L17.07 12.15Q16.67 12.28 16.25 12.40L16.25 12.40L16.25 12.40Q15.83 12.53 15.42 12.65L15.42 12.65L15.42 12.79L15.42 12.79Q15.42 13.49 15.64 14.05L15.64 14.05L15.64 14.05Q15.86 14.62 16.26 15.01L16.26 15.01L16.26 15.01Q16.65 15.40 17.21 15.61L17.21 15.61L17.21 15.61Q17.76 15.82 18.43 15.82L18.43 15.82L18.43 15.82Q18.78 15.82 19.12 15.76L19.12 15.76L19.12 15.76Q19.47 15.71 19.78 15.62L19.78 15.62L19.78 15.62Q20.09 15.52 20.36 15.39L20.36 15.39L20.36 15.39Q20.64 15.26 20.85 15.11L20.85 15.11L20.85 15.11Q20.33 15.58 19.78 15.89L19.78 15.89L19.78 15.89Q19.23 16.21 18.68 16.40L18.68 16.40L18.68 16.40Q18.13 16.60 17.59 16.69L17.59 16.69L17.59 16.69Q17.06 16.78 16.56 16.78L16.56 16.78L16.56 16.78Q16.06 16.80 15.58 16.63L15.58 16.63L15.58 16.63Q15.10 16.46 14.70 16.12L14.70 16.12L14.70 16.12Q14.31 15.78 14.03 15.27L14.03 15.27L14.03 15.27Q13.76 14.76 13.68 14.08L13.68 14.08L13.68 14.08Q13.64 13.84 13.65 13.62L13.65 13.62L13.65 13.62Q13.65 13.40 13.69 13.18L13.69 13.18L13.69 13.18Q13.45 13.27 13.26 13.34L13.26 13.34L13.26 13.34Q13.06 13.42 12.94 13.49L12.94 13.49L12.94 13.49Q13.14 13.36 13.34 13.24L13.34 13.24L13.34 13.24Q13.54 13.12 13.73 13.02L13.73 13.02L13.73 13.02Q13.84 12.48 14.13 12.00L14.13 12.00L14.13 12.00Q14.41 11.51 14.81 11.09L14.81 11.09L14.81 11.09Q15.21 10.68 15.70 10.34L15.70 10.34L15.70 10.34Q16.19 10.00 16.72 9.76L16.72 9.76L16.72 9.76Q17.25 9.52 17.80 9.39L17.80 9.39L17.80 9.39Q18.35 9.26 18.86 9.26L18.86 9.26L18.86 9.26Q19.20 9.26 19.44 9.37L19.44 9.37L19.44 9.37Q19.67 9.47 19.76 9.73L19.76 9.73L19.76 9.73Q19.80 10.00 19.56 10.32L19.56 10.32L19.56 10.32Q19.46 10.45 19.28 10.61L19.28 10.61L19.28 10.61Q19.11 10.76 18.83 10.93L18.83 10.93L18.83 10.93Q18.55 11.10 18.17 11.29L18.17 11.29L18.17 11.29Q17.78 11.47 17.25 11.66L17.25 11.66ZM16.84 11.68L16.84 11.68L16.84 11.68Q17.14 11.55 17.37 11.40L17.37 11.40L17.37 11.40Q17.61 11.25 17.74 11.09L17.74 11.09L17.74 11.09Q17.88 10.92 17.88 10.75L17.88 10.75L17.88 10.75Q17.89 10.57 17.74 10.37L17.74 10.37L17.74 10.37Q17.64 10.22 17.46 10.16L17.46 10.16L17.46 10.16Q17.27 10.10 17.08 10.10L17.08 10.10L17.08 10.10Q16.91 10.10 16.74 10.14L16.74 10.14L16.74 10.14Q16.58 10.18 16.45 10.24L16.45 10.24L16.45 10.24Q16.37 10.29 16.23 10.45L16.23 10.45L16.23 10.45Q16.08 10.61 15.93 10.87L15.93 10.87L15.93 10.87Q15.78 11.12 15.65 11.46L15.65 11.46L15.65 11.46Q15.52 11.80 15.46 12.20L15.46 12.20L15.46 12.20Q15.89 12.04 16.24 11.92L16.24 11.92L16.24 11.92Q16.58 11.80 16.84 11.68ZM26.07 15.50L26.07 15.50L24.55 16.86L24.55 16.86Q24.40 16.22 24.19 15.55L24.19 15.55L24.19 15.55Q23.99 14.88 23.79 14.31L23.79 14.31L23.79 14.31Q23.56 13.67 23.32 13.04L23.32 13.04L23.32 13.04Q23.13 12.41 22.91 11.94L22.91 11.94L22.91 11.94Q22.70 11.48 22.45 11.18L22.45 11.18L22.45 11.18Q22.21 10.88 21.94 10.73L21.94 10.73L21.94 10.73Q21.66 10.58 21.35 10.58L21.35 10.58L21.35 10.58Q20.99 10.58 20.60 10.75L20.60 10.75L20.60 10.75Q20.81 10.58 21.11 10.33L21.11 10.33L21.11 10.33Q21.41 10.08 21.74 9.85L21.74 9.85L21.74 9.85Q22.07 9.62 22.40 9.45L22.40 9.45L22.40 9.45Q22.73 9.29 23.00 9.29L23.00 9.29L23.00 9.29Q23.19 9.29 23.38 9.38L23.38 9.38L23.38 9.38Q23.56 9.47 23.73 9.68L23.73 9.68L23.73 9.68Q23.85 9.84 24.03 10.14L24.03 10.14L24.03 10.14Q24.21 10.44 24.42 10.82L24.42 10.82L24.42 10.82Q24.62 11.20 24.84 11.65L24.84 11.65L24.84 11.65Q25.05 12.10 25.25 12.57L25.25 12.57L25.25 12.57Q25.44 13.05 25.60 13.53L25.60 13.53L25.60 13.53Q25.76 14.01 25.86 14.46L25.86 14.46L25.86 14.46Q26.10 14.16 26.30 13.88L26.30 13.88L26.30 13.88Q26.50 13.60 26.65 13.38L26.65 13.38L26.65 13.38Q26.83 13.13 26.97 12.91L26.97 12.91L26.97 12.91Q27.32 12.33 27.51 11.85L27.51 11.85L27.51 11.85Q27.71 11.37 27.71 10.99L27.71 10.99L27.71 10.99Q27.71 10.79 27.65 10.63L27.65 10.63L27.65 10.63Q27.60 10.47 27.47 10.34L27.47 10.34L29.09 9.26L29.09 9.26Q29.22 9.39 29.27 9.55L29.27 9.55L29.27 9.55Q29.32 9.71 29.32 9.88L29.32 9.88L29.32 9.88Q29.32 10.23 29.18 10.61L29.18 10.61L29.18 10.61Q29.03 10.99 28.80 11.38L28.80 11.38L28.80 11.38Q28.56 11.78 28.26 12.18L28.26 12.18L28.26 12.18Q27.97 12.58 27.65 12.97L27.65 12.97L27.65 12.97Q27.34 13.36 27.05 13.73L27.05 13.73L27.05 13.73Q26.76 14.10 26.53 14.43L26.53 14.43L26.53 14.43Q26.30 14.75 26.17 15.03L26.17 15.03L26.17 15.03Q26.04 15.30 26.07 15.50ZM34.00 11.66L39.01 10.02L39.01 10.02Q38.23 10.40 37.55 10.70L37.55 10.70L37.55 10.70Q36.88 11.00 36.37 11.20L36.37 11.20L36.37 11.20Q35.77 11.44 35.27 11.63L35.27 11.63L35.27 11.63Q34.97 11.76 34.59 11.89L34.59 11.89L34.59 11.89Q34.22 12.02 33.82 12.15L33.82 12.15L33.82 12.15Q33.41 12.28 32.99 12.40L32.99 12.40L32.99 12.40Q32.57 12.53 32.16 12.65L32.16 12.65L32.16 12.79L32.16 12.79Q32.16 13.49 32.39 14.05L32.39 14.05L32.39 14.05Q32.61 14.62 33.00 15.01L33.00 15.01L33.00 15.01Q33.40 15.40 33.95 15.61L33.95 15.61L33.95 15.61Q34.51 15.82 35.18 15.82L35.18 15.82L35.18 15.82Q35.53 15.82 35.87 15.76L35.87 15.76L35.87 15.76Q36.22 15.71 36.53 15.62L36.53 15.62L36.53 15.62Q36.84 15.52 37.11 15.39L37.11 15.39L37.11 15.39Q37.39 15.26 37.60 15.11L37.60 15.11L37.60 15.11Q37.08 15.58 36.53 15.89L36.53 15.89L36.53 15.89Q35.98 16.21 35.43 16.40L35.43 16.40L35.43 16.40Q34.88 16.60 34.34 16.69L34.34 16.69L34.34 16.69Q33.80 16.78 33.31 16.78L33.31 16.78L33.31 16.78Q32.81 16.80 32.33 16.63L32.33 16.63L32.33 16.63Q31.85 16.46 31.45 16.12L31.45 16.12L31.45 16.12Q31.06 15.78 30.78 15.27L30.78 15.27L30.78 15.27Q30.51 14.76 30.43 14.08L30.43 14.08L30.43 14.08Q30.39 13.84 30.40 13.62L30.40 13.62L30.40 13.62Q30.40 13.40 30.44 13.18L30.44 13.18L30.44 13.18Q30.20 13.27 30.01 13.34L30.01 13.34L30.01 13.34Q29.81 13.42 29.69 13.49L29.69 13.49L29.69 13.49Q29.89 13.36 30.08 13.24L30.08 13.24L30.08 13.24Q30.28 13.12 30.47 13.02L30.47 13.02L30.47 13.02Q30.59 12.48 30.87 12.00L30.87 12.00L30.87 12.00Q31.16 11.51 31.56 11.09L31.56 11.09L31.56 11.09Q31.96 10.68 32.45 10.34L32.45 10.34L32.45 10.34Q32.94 10.00 33.47 9.76L33.47 9.76L33.47 9.76Q34.00 9.52 34.55 9.39L34.55 9.39L34.55 9.39Q35.10 9.26 35.61 9.26L35.61 9.26L35.61 9.26Q35.95 9.26 36.19 9.37L36.19 9.37L36.19 9.37Q36.42 9.47 36.50 9.73L36.50 9.73L36.50 9.73Q36.54 10.00 36.31 10.32L36.31 10.32L36.31 10.32Q36.20 10.45 36.03 10.61L36.03 10.61L36.03 10.61Q35.85 10.76 35.58 10.93L35.58 10.93L35.58 10.93Q35.30 11.10 34.91 11.29L34.91 11.29L34.91 11.29Q34.53 11.47 34.00 11.66L34.00 11.66ZM33.59 11.68L33.59 11.68L33.59 11.68Q33.89 11.55 34.12 11.40L34.12 11.40L34.12 11.40Q34.36 11.25 34.49 11.09L34.49 11.09L34.49 11.09Q34.62 10.92 34.63 10.75L34.63 10.75L34.63 10.75Q34.64 10.57 34.49 10.37L34.49 10.37L34.49 10.37Q34.38 10.22 34.20 10.16L34.20 10.16L34.20 10.16Q34.02 10.10 33.83 10.10L33.83 10.10L33.83 10.10Q33.65 10.10 33.49 10.14L33.49 10.14L33.49 10.14Q33.33 10.18 33.20 10.24L33.20 10.24L33.20 10.24Q33.12 10.29 32.98 10.45L32.98 10.45L32.98 10.45Q32.83 10.61 32.68 10.87L32.68 10.87L32.68 10.87Q32.53 11.12 32.40 11.46L32.40 11.46L32.40 11.46Q32.27 11.80 32.20 12.20L32.20 12.20L32.20 12.20Q32.63 12.04 32.98 11.92L32.98 11.92L32.98 11.92Q33.33 11.80 33.59 11.68ZM41.13 11.01L41.13 11.01L41.13 11.01Q41.45 10.71 41.83 10.40L41.83 10.40L41.83 10.40Q42.21 10.09 42.60 9.84L42.60 9.84L42.60 9.84Q42.99 9.59 43.39 9.43L43.39 9.43L43.39 9.43Q43.78 9.28 44.13 9.28L44.13 9.28L44.13 9.28Q44.37 9.28 44.60 9.33L44.60 9.33L44.60 9.33Q44.83 9.38 45.05 9.44L45.05 9.44L45.05 9.44Q45.27 9.51 45.49 9.56L45.49 9.56L45.49 9.56Q45.71 9.61 45.94 9.61L45.94 9.61L45.94 9.61Q46.07 9.61 46.22 9.59L46.22 9.59L46.22 9.59Q46.38 9.57 46.57 9.52L46.57 9.52L46.57 9.52Q46.14 9.84 45.81 10.08L45.81 10.08L45.81 10.08Q45.49 10.32 45.21 10.48L45.21 10.48L45.21 10.48Q44.93 10.63 44.66 10.70L44.66 10.70L44.66 10.70Q44.38 10.77 44.04 10.76L44.04 10.76L44.04 10.76Q43.70 10.75 43.40 10.69L43.40 10.69L43.40 10.69Q43.11 10.63 42.86 10.56L42.86 10.56L42.86 10.56Q42.62 10.50 42.44 10.47L42.44 10.47L42.44 10.47Q42.26 10.44 42.16 10.49L42.16 10.49L42.16 10.49Q41.91 10.62 41.73 10.94L41.73 10.94L41.73 10.94Q41.54 11.27 41.42 11.72L41.42 11.72L41.42 11.72Q41.29 12.17 41.21 12.70L41.21 12.70L41.21 12.70Q41.13 13.23 41.09 13.75L41.09 13.75L41.09 13.75Q41.06 14.28 41.06 14.76L41.06 14.76L41.06 14.76Q41.06 15.23 41.08 15.58L41.08 15.58L41.08 15.58Q40.57 15.91 40.24 16.15L40.24 16.15L40.24 16.15Q39.90 16.39 39.70 16.54L39.70 16.54L39.70 16.54Q39.47 16.73 39.35 16.86L39.35 16.86L39.35 16.86Q39.35 16.45 39.37 15.87L39.37 15.87L39.37 15.87Q39.38 15.29 39.39 14.64L39.39 14.64L39.39 14.64Q39.40 14 39.41 13.37L39.41 13.37L39.41 13.37Q39.42 12.74 39.42 12.23L39.42 12.23L39.42 12.23Q39.42 11.91 39.40 11.58L39.40 11.58L39.40 11.58Q39.38 11.25 39.29 10.97L39.29 10.97L39.29 10.97Q39.19 10.70 38.99 10.53L38.99 10.53L38.99 10.53Q38.79 10.36 38.42 10.36L38.42 10.36L38.42 10.36Q38.27 10.36 38.12 10.39L38.12 10.39L38.12 10.39Q37.97 10.42 37.82 10.49L37.82 10.49L37.82 10.49Q38.10 10.30 38.39 10.10L38.39 10.10L38.39 10.10Q38.68 9.91 38.97 9.74L38.97 9.74L38.97 9.74Q39.26 9.58 39.55 9.48L39.55 9.48L39.55 9.48Q39.84 9.39 40.14 9.39L40.14 9.39L40.14 9.39Q40.50 9.39 40.70 9.54L40.70 9.54L40.70 9.54Q40.91 9.70 41.00 9.94L41.00 9.94L41.00 9.94Q41.09 10.18 41.11 10.47L41.11 10.47L41.11 10.47Q41.13 10.75 41.13 11.01ZM60.72 15.46L60.72 15.46L60.72 15.46Q60.43 15.75 60.13 16.01L60.13 16.01L60.13 16.01Q59.82 16.27 59.52 16.46L59.52 16.46L59.52 16.46Q59.22 16.65 58.93 16.75L58.93 16.75L58.93 16.75Q58.63 16.85 58.36 16.81L58.36 16.81L58.36 16.81Q58.08 16.77 57.93 16.58L57.93 16.58L57.93 16.58Q57.78 16.39 57.70 16.10L57.70 16.10L57.70 16.10Q57.63 15.80 57.60 15.42L57.60 15.42L57.60 15.42Q57.57 15.03 57.54 14.59L57.54 14.59L57.54 14.59Q57.51 14.23 57.45 13.47L57.45 13.47L57.45 13.47Q57.42 13.15 57.38 12.70L57.38 12.70L57.38 12.70Q57.35 12.26 57.30 11.69L57.30 11.69L57.30 11.69Q57.26 11.11 57.20 10.39L57.20 10.39L57.20 10.39Q57.13 9.67 57.07 8.77L57.07 8.77L57.07 8.77Q56.72 9.21 56.33 9.70L56.33 9.70L56.33 9.70Q55.94 10.20 55.56 10.73L55.56 10.73L55.56 10.73Q55.18 11.27 54.83 11.83L54.83 11.83L54.83 11.83Q54.48 12.39 54.20 12.95L54.20 12.95L54.20 12.95Q53.92 13.51 53.74 14.06L53.74 14.06L53.74 14.06Q53.55 14.62 53.51 15.13L53.51 15.13L51.99 16.71L51.99 16.71Q52.00 16.47 51.97 16.24L51.97 16.24L51.97 16.24Q51.95 16.00 51.91 15.82L51.91 15.82L51.91 15.82Q51.86 15.60 51.79 15.41L51.79 15.41L51.79 15.41Q51.47 14.61 51.11 13.84L51.11 13.84L51.11 13.84Q50.74 13.06 50.35 12.30L50.35 12.30L50.35 12.30Q49.96 11.55 49.56 10.80L49.56 10.80L49.56 10.80Q49.16 10.06 48.78 9.30L48.78 9.30L48.78 9.30Q48.62 9.99 48.50 10.56L48.50 10.56L48.50 10.56Q48.38 11.13 48.28 11.55L48.28 11.55L48.28 11.55Q48.17 12.04 48.09 12.44L48.09 12.44L48.09 12.44Q47.53 15.03 47.74 15.30L47.74 15.30L47.74 15.30Q47.80 15.36 47.92 15.40L47.92 15.40L47.92 15.40Q48.04 15.45 48.22 15.45L48.22 15.45L48.22 15.45Q48.43 15.45 48.69 15.36L48.69 15.36L48.69 15.36Q48.95 15.28 49.24 15.06L49.24 15.06L49.24 15.06Q48.80 15.47 48.44 15.82L48.44 15.82L48.44 15.82Q48.08 16.17 47.76 16.41L47.76 16.41L47.76 16.41Q47.45 16.65 47.18 16.75L47.18 16.75L47.18 16.75Q46.91 16.85 46.66 16.77L46.66 16.77L46.66 16.77Q46.46 16.70 46.38 16.53L46.38 16.53L46.38 16.53Q46.30 16.36 46.30 16.08L46.30 16.08L46.30 16.08Q46.30 15.69 46.43 15.10L46.43 15.10L46.43 15.10Q46.57 14.52 46.72 13.75L46.72 13.75L46.72 13.75Q46.82 13.33 46.94 12.77L46.94 12.77L46.94 12.77Q47.07 12.20 47.20 11.58L47.20 11.58L47.20 11.58Q47.34 10.96 47.48 10.31L47.48 10.31L47.48 10.31Q47.61 9.67 47.74 9.08L47.74 9.08L47.74 9.08Q47.87 8.50 47.96 8.03L47.96 8.03L47.96 8.03Q48.06 7.55 48.13 7.25L48.13 7.25L48.13 7.25Q48.15 7.16 48.33 6.97L48.33 6.97L48.33 6.97Q48.41 6.89 48.52 6.78L48.52 6.78L48.52 6.78Q48.63 6.67 48.79 6.51L48.79 6.51L48.79 6.51Q48.95 6.36 49.17 6.17L49.17 6.17L49.17 6.17Q49.38 5.97 49.66 5.74L49.66 5.74L49.66 5.74Q49.61 5.99 49.65 6.28L49.65 6.28L49.65 6.28Q49.69 6.56 49.76 6.81L49.76 6.81L49.76 6.81Q49.83 7.10 49.96 7.38L49.96 7.38L49.96 7.38Q50.05 7.59 50.27 8.03L50.27 8.03L50.27 8.03Q50.50 8.47 50.79 9.03L50.79 9.03L50.79 9.03Q51.08 9.58 51.41 10.22L51.41 10.22L51.41 10.22Q51.75 10.85 52.06 11.46L52.06 11.46L52.06 11.46Q52.37 12.08 52.64 12.63L52.64 12.63L52.64 12.63Q52.90 13.19 53.06 13.58L53.06 13.58L53.06 13.58Q53.36 13.04 53.73 12.51L53.73 12.51L53.73 12.51Q54.09 11.98 54.48 11.46L54.48 11.46L54.48 11.46Q54.87 10.93 55.25 10.40L55.25 10.40L55.25 10.40Q55.64 9.87 55.98 9.32L55.98 9.32L55.98 9.32Q56.33 8.78 56.62 8.20L56.62 8.20L56.62 8.20Q56.90 7.63 57.09 7.02L57.09 7.02L57.09 7.02Q57.27 6.81 57.52 6.57L57.52 6.57L57.52 6.57Q57.72 6.36 58.02 6.10L58.02 6.10L58.02 6.10Q58.32 5.83 58.71 5.52L58.71 5.52L58.71 5.52Q58.63 5.74 58.60 6.01L58.60 6.01L58.60 6.01Q58.58 6.28 58.56 6.53L58.56 6.53L58.56 6.53Q58.55 6.82 58.56 7.11L58.56 7.11L58.56 7.11Q58.57 7.30 58.60 7.71L58.60 7.71L58.60 7.71Q58.63 8.12 58.67 8.66L58.67 8.66L58.67 8.66Q58.71 9.21 58.77 9.85L58.77 9.85L58.77 9.85Q58.83 10.49 58.89 11.15L58.89 11.15L58.89 11.15Q58.95 11.81 59.01 12.44L59.01 12.44L59.01 12.44Q59.07 13.07 59.12 13.59L59.12 13.59L59.12 13.59Q59.18 14.12 59.23 14.49L59.23 14.49L59.23 14.49Q59.27 14.87 59.31 15.02L59.31 15.02L59.31 15.02Q59.34 15.19 59.42 15.31L59.42 15.31L59.42 15.31Q59.51 15.43 59.62 15.50L59.62 15.50L59.62 15.50Q59.73 15.57 59.85 15.60L59.85 15.60L59.85 15.60Q59.98 15.63 60.11 15.63L60.11 15.63L60.11 15.63Q60.29 15.63 60.45 15.58L60.45 15.58L60.45 15.58Q60.61 15.53 60.72 15.46ZM70.03 12.56L70.03 12.56L70.03 12.56Q70.03 13.13 69.87 13.60L69.87 13.60L69.87 13.60Q69.71 14.06 69.49 14.41L69.49 14.41L69.49 14.41Q69.28 14.76 69.05 14.99L69.05 14.99L69.05 14.99Q68.82 15.22 68.69 15.33L68.69 15.33L68.69 15.33Q68.29 15.61 67.87 15.89L67.87 15.89L67.87 15.89Q67.46 16.16 67.02 16.38L67.02 16.38L67.02 16.38Q66.58 16.59 66.11 16.72L66.11 16.72L66.11 16.72Q65.65 16.85 65.15 16.85L65.15 16.85L65.15 16.85Q64.42 16.85 63.77 16.67L63.77 16.67L63.77 16.67Q63.12 16.48 62.63 16.11L62.63 16.11L62.63 16.11Q62.14 15.74 61.85 15.18L61.85 15.18L61.85 15.18Q61.57 14.62 61.57 13.87L61.57 13.87L61.57 13.87Q61.57 13.21 61.80 12.62L61.80 12.62L61.80 12.62Q62.03 12.04 62.42 11.55L62.42 11.55L62.42 11.55Q62.80 11.05 63.32 10.66L63.32 10.66L63.32 10.66Q63.84 10.27 64.42 9.99L64.42 9.99L64.42 9.99Q65.00 9.72 65.62 9.58L65.62 9.58L65.62 9.58Q66.23 9.43 66.81 9.43L66.81 9.43L66.81 9.43Q67.52 9.43 68.11 9.67L68.11 9.67L68.11 9.67Q68.70 9.91 69.13 10.33L69.13 10.33L69.13 10.33Q69.56 10.75 69.79 11.32L69.79 11.32L69.79 11.32Q70.03 11.89 70.03 12.56ZM65.31 10.23L65.31 10.23L65.31 10.23Q64.96 10.23 64.67 10.35L64.67 10.35L64.67 10.35Q64.39 10.48 64.17 10.69L64.17 10.69L64.17 10.69Q63.94 10.91 63.78 11.19L63.78 11.19L63.78 11.19Q63.62 11.48 63.52 11.79L63.52 11.79L63.52 11.79Q63.41 12.10 63.36 12.42L63.36 12.42L63.36 12.42Q63.31 12.74 63.31 13.02L63.31 13.02L63.31 13.02Q63.31 13.65 63.54 14.20L63.54 14.20L63.54 14.20Q63.77 14.75 64.18 15.16L64.18 15.16L64.18 15.16Q64.59 15.57 65.13 15.80L65.13 15.80L65.13 15.80Q65.67 16.04 66.29 16.04L66.29 16.04L66.29 16.04Q66.67 16.04 67.03 15.89L67.03 15.89L67.03 15.89Q67.39 15.74 67.67 15.43L67.67 15.43L67.67 15.43Q67.94 15.11 68.11 14.60L68.11 14.60L68.11 14.60Q68.28 14.10 68.28 13.39L68.28 13.39L68.28 13.39Q68.28 12.77 68.04 12.20L68.04 12.20L68.04 12.20Q67.81 11.62 67.41 11.18L67.41 11.18L67.41 11.18Q67.01 10.75 66.47 10.49L66.47 10.49L66.47 10.49Q65.93 10.23 65.31 10.23ZM74.07 11.01L74.07 11.01L74.07 11.01Q74.40 10.71 74.77 10.40L74.77 10.40L74.77 10.40Q75.15 10.09 75.55 9.84L75.55 9.84L75.55 9.84Q75.94 9.59 76.34 9.43L76.34 9.43L76.34 9.43Q76.73 9.28 77.08 9.28L77.08 9.28L77.08 9.28Q77.32 9.28 77.55 9.33L77.55 9.33L77.55 9.33Q77.78 9.38 78.00 9.44L78.00 9.44L78.00 9.44Q78.22 9.51 78.44 9.56L78.44 9.56L78.44 9.56Q78.66 9.61 78.89 9.61L78.89 9.61L78.89 9.61Q79.02 9.61 79.17 9.59L79.17 9.59L79.17 9.59Q79.32 9.57 79.52 9.52L79.52 9.52L79.52 9.52Q79.08 9.84 78.76 10.08L78.76 10.08L78.76 10.08Q78.44 10.32 78.16 10.48L78.16 10.48L78.16 10.48Q77.88 10.63 77.60 10.70L77.60 10.70L77.60 10.70Q77.33 10.77 76.99 10.76L76.99 10.76L76.99 10.76Q76.65 10.75 76.35 10.69L76.35 10.69L76.35 10.69Q76.06 10.63 75.81 10.56L75.81 10.56L75.81 10.56Q75.57 10.50 75.39 10.47L75.39 10.47L75.39 10.47Q75.21 10.44 75.11 10.49L75.11 10.49L75.11 10.49Q74.86 10.62 74.68 10.94L74.68 10.94L74.68 10.94Q74.49 11.27 74.36 11.72L74.36 11.72L74.36 11.72Q74.24 12.17 74.16 12.70L74.16 12.70L74.16 12.70Q74.08 13.23 74.04 13.75L74.04 13.75L74.04 13.75Q74.01 14.28 74.01 14.76L74.01 14.76L74.01 14.76Q74.01 15.23 74.03 15.58L74.03 15.58L74.03 15.58Q73.52 15.91 73.19 16.15L73.19 16.15L73.19 16.15Q72.85 16.39 72.65 16.54L72.65 16.54L72.65 16.54Q72.42 16.73 72.30 16.86L72.30 16.86L72.30 16.86Q72.30 16.45 72.32 15.87L72.32 15.87L72.32 15.87Q72.33 15.29 72.34 14.64L72.34 14.64L72.34 14.64Q72.35 14 72.36 13.37L72.36 13.37L72.36 13.37Q72.37 12.74 72.37 12.23L72.37 12.23L72.37 12.23Q72.37 11.91 72.35 11.58L72.35 11.58L72.35 11.58Q72.33 11.25 72.24 10.97L72.24 10.97L72.24 10.97Q72.14 10.70 71.94 10.53L71.94 10.53L71.94 10.53Q71.74 10.36 71.37 10.36L71.37 10.36L71.37 10.36Q71.22 10.36 71.07 10.39L71.07 10.39L71.07 10.39Q70.92 10.42 70.77 10.49L70.77 10.49L70.77 10.49Q71.05 10.30 71.34 10.10L71.34 10.10L71.34 10.10Q71.63 9.91 71.92 9.74L71.92 9.74L71.92 9.74Q72.21 9.58 72.50 9.48L72.50 9.48L72.50 9.48Q72.79 9.39 73.09 9.39L73.09 9.39L73.09 9.39Q73.45 9.39 73.65 9.54L73.65 9.54L73.65 9.54Q73.86 9.70 73.95 9.94L73.95 9.94L73.95 9.94Q74.04 10.18 74.06 10.47L74.06 10.47L74.06 10.47Q74.07 10.75 74.07 11.01ZM82.63 11.66L87.64 10.02L87.64 10.02Q86.86 10.40 86.18 10.70L86.18 10.70L86.18 10.70Q85.51 11.00 85.00 11.20L85.00 11.20L85.00 11.20Q84.40 11.44 83.90 11.63L83.90 11.63L83.90 11.63Q83.60 11.76 83.22 11.89L83.22 11.89L83.22 11.89Q82.85 12.02 82.45 12.15L82.45 12.15L82.45 12.15Q82.04 12.28 81.62 12.40L81.62 12.40L81.62 12.40Q81.20 12.53 80.79 12.65L80.79 12.65L80.79 12.79L80.79 12.79Q80.79 13.49 81.02 14.05L81.02 14.05L81.02 14.05Q81.24 14.62 81.63 15.01L81.63 15.01L81.63 15.01Q82.03 15.40 82.58 15.61L82.58 15.61L82.58 15.61Q83.14 15.82 83.81 15.82L83.81 15.82L83.81 15.82Q84.16 15.82 84.50 15.76L84.50 15.76L84.50 15.76Q84.85 15.71 85.16 15.62L85.16 15.62L85.16 15.62Q85.47 15.52 85.74 15.39L85.74 15.39L85.74 15.39Q86.02 15.26 86.23 15.11L86.23 15.11L86.23 15.11Q85.71 15.58 85.16 15.89L85.16 15.89L85.16 15.89Q84.61 16.21 84.06 16.40L84.06 16.40L84.06 16.40Q83.51 16.60 82.97 16.69L82.97 16.69L82.97 16.69Q82.43 16.78 81.94 16.78L81.94 16.78L81.94 16.78Q81.44 16.80 80.96 16.63L80.96 16.63L80.96 16.63Q80.48 16.46 80.08 16.12L80.08 16.12L80.08 16.12Q79.69 15.78 79.41 15.27L79.41 15.27L79.41 15.27Q79.14 14.76 79.06 14.08L79.06 14.08L79.06 14.08Q79.02 13.84 79.03 13.62L79.03 13.62L79.03 13.62Q79.03 13.40 79.07 13.18L79.07 13.18L79.07 13.18Q78.83 13.27 78.64 13.34L78.64 13.34L78.64 13.34Q78.44 13.42 78.32 13.49L78.32 13.49L78.32 13.49Q78.52 13.36 78.72 13.24L78.72 13.24L78.72 13.24Q78.91 13.12 79.11 13.02L79.11 13.02L79.11 13.02Q79.22 12.48 79.51 12.00L79.51 12.00L79.51 12.00Q79.79 11.51 80.19 11.09L80.19 11.09L80.19 11.09Q80.59 10.68 81.08 10.34L81.08 10.34L81.08 10.34Q81.57 10.00 82.10 9.76L82.10 9.76L82.10 9.76Q82.63 9.52 83.18 9.39L83.18 9.39L83.18 9.39Q83.73 9.26 84.24 9.26L84.24 9.26L84.24 9.26Q84.58 9.26 84.82 9.37L84.82 9.37L84.82 9.37Q85.05 9.47 85.13 9.73L85.13 9.73L85.13 9.73Q85.18 10.00 84.94 10.32L84.94 10.32L84.94 10.32Q84.83 10.45 84.66 10.61L84.66 10.61L84.66 10.61Q84.49 10.76 84.21 10.93L84.21 10.93L84.21 10.93Q83.93 11.10 83.55 11.29L83.55 11.29L83.55 11.29Q83.16 11.47 82.63 11.66L82.63 11.66ZM82.22 11.68L82.22 11.68L82.22 11.68Q82.52 11.55 82.75 11.40L82.75 11.40L82.75 11.40Q82.99 11.25 83.12 11.09L83.12 11.09L83.12 11.09Q83.25 10.92 83.26 10.75L83.26 10.75L83.26 10.75Q83.27 10.57 83.12 10.37L83.12 10.37L83.12 10.37Q83.02 10.22 82.83 10.16L82.83 10.16L82.83 10.16Q82.65 10.10 82.46 10.10L82.46 10.10L82.46 10.10Q82.28 10.10 82.12 10.14L82.12 10.14L82.12 10.14Q81.96 10.18 81.83 10.24L81.83 10.24L81.83 10.24Q81.75 10.29 81.61 10.45L81.61 10.45L81.61 10.45Q81.46 10.61 81.31 10.87L81.31 10.87L81.31 10.87Q81.16 11.12 81.03 11.46L81.03 11.46L81.03 11.46Q80.90 11.80 80.83 12.20L80.83 12.20L80.83 12.20Q81.27 12.04 81.61 11.92L81.61 11.92L81.61 11.92Q81.96 11.80 82.22 11.68Z"></path></g><defs data-v-fde0c5aa=""><!----></defs><g data-v-fde0c5aa="" id="1a5332bc-a59f-4fea-b780-cde94b124ee4" stroke="none" fill="#0076DD" transform="matrix(0.7951523326603985,0,0,0.7951523326603985,110.24238336698006,68.72439579077424)"><path d="M68.9 55.1c-7.7 0-14.2 5.4-15.8 12.7-2.4-.4-4.6-.3-6.1 0-1.6-7.3-8.1-12.7-15.8-12.7-8.9 0-16.2 7.3-16.2 16.2 0 8.9 7.3 16.2 16.2 16.2 8 0 14.7-5.9 16-13.5 1-.3 3.4-.8 5.8 0 1.3 7.7 7.9 13.5 16 13.5 8.9 0 16.2-7.3 16.2-16.2-.1-8.9-7.4-16.2-16.3-16.2zM31.1 81.4c-5.6 0-10.1-4.6-10.1-10.1 0-5.6 4.6-10.1 10.1-10.1 5.6 0 10.1 4.6 10.1 10.1.1 5.6-4.5 10.1-10.1 10.1zm37.8 0c-5.6 0-10.1-4.6-10.1-10.1 0-5.6 4.6-10.1 10.1-10.1 5.6 0 10.1 4.6 10.1 10.1 0 5.6-4.5 10.1-10.1 10.1zM94.7 45.6c-.4-1.6-2-2.6-3.6-2.2-3.5.8-7 1.5-10.5 2.2v-16c-.3-4.7-3.5-9-9.2-12.1-5.9-3.2-13.4-5-21.4-5s-15.5 1.7-21.2 4.9c-5.7 3.2-9 7.5-9.2 12.1v16C16 45 12.5 44.2 9 43.4c-1.6-.4-3.3.6-3.7 2.2-.3 1.7.7 3.3 2.3 3.7 14.1 3.3 28.2 5 42.4 5s28.3-1.7 42.4-5c1.6-.4 2.6-2 2.3-3.7z"></path></g><defs data-v-fde0c5aa=""><!----></defs><g data-v-fde0c5aa="" id="60beaf06-5608-4010-8a28-64ddcd7b1f55" fill="#EFEFEF" transform="matrix(1.5064894647871383,0,0,1.5064894647871383,33.83459501407525,197.5035394127652)"><path d="M12.39 2.80L12.39 12.60L12.81 12.60L12.81 7.56L17.25 12.60L17.84 12.60L13.24 7.39L17.63 2.80L17.05 2.80L12.81 7.24L12.81 2.80ZM30.70 9.06L25.86 9.06C25.88 8.38 26.13 7.77 26.61 7.25C27.09 6.73 27.67 6.47 28.35 6.47C29.03 6.47 29.59 6.72 30.03 7.24C30.47 7.75 30.69 8.36 30.70 9.06ZM25.83 9.48L31.14 9.48C31.15 9.43 31.15 9.38 31.15 9.32C31.15 8.33 30.89 7.53 30.37 6.94C29.85 6.34 29.18 6.05 28.35 6.05C27.50 6.05 26.80 6.36 26.24 6.99C25.68 7.61 25.40 8.41 25.40 9.38C25.40 10.33 25.69 11.13 26.28 11.76C26.87 12.39 27.56 12.71 28.35 12.71C29.58 12.71 30.50 12.13 31.11 10.96L30.74 10.74C30.20 11.76 29.41 12.28 28.38 12.28C27.69 12.28 27.09 12.01 26.60 11.47C26.11 10.92 25.85 10.26 25.83 9.48ZM44.72 9.06L39.87 9.06C39.89 8.38 40.14 7.77 40.62 7.25C41.10 6.73 41.68 6.47 42.36 6.47C43.05 6.47 43.61 6.72 44.04 7.24C44.48 7.75 44.71 8.36 44.72 9.06ZM39.84 9.48L45.15 9.48C45.16 9.43 45.16 9.38 45.16 9.32C45.16 8.33 44.91 7.53 44.39 6.94C43.87 6.34 43.19 6.05 42.36 6.05C41.51 6.05 40.81 6.36 40.25 6.99C39.69 7.61 39.41 8.41 39.41 9.38C39.41 10.33 39.70 11.13 40.29 11.76C40.88 12.39 41.57 12.71 42.36 12.71C43.60 12.71 44.52 12.13 45.12 10.96L44.76 10.74C44.22 11.76 43.43 12.28 42.39 12.28C41.70 12.28 41.11 12.01 40.61 11.47C40.12 10.92 39.86 10.26 39.84 9.48ZM60.07 9.38C60.07 8.37 59.78 7.56 59.19 6.96C58.59 6.35 57.85 6.05 56.95 6.05C56.34 6.05 55.80 6.23 55.34 6.59C54.87 6.96 54.54 7.44 54.33 8.04L54.33 6.16L53.91 6.16L53.91 15.68L54.33 15.68L54.33 10.72C54.54 11.32 54.87 11.80 55.34 12.17C55.80 12.53 56.34 12.71 56.95 12.71C57.85 12.71 58.59 12.41 59.19 11.80C59.78 11.20 60.07 10.39 60.07 9.38ZM59.64 9.38C59.64 10.28 59.37 10.99 58.84 11.51C58.30 12.03 57.68 12.29 56.99 12.29C56.23 12.29 55.59 12.01 55.09 11.45C54.59 10.89 54.33 10.20 54.33 9.38C54.33 8.56 54.59 7.87 55.09 7.31C55.59 6.75 56.23 6.47 56.99 6.47C57.68 6.47 58.30 6.73 58.84 7.25C59.37 7.77 59.64 8.48 59.64 9.38ZM88.84 7.63L84.78 7.63L84.78 8.11L88.37 8.11C88.28 9.32 87.89 10.32 87.18 11.09C86.47 11.87 85.53 12.26 84.36 12.26C83.08 12.26 82.04 11.82 81.24 10.94C80.45 10.06 80.05 8.98 80.05 7.70C80.05 6.40 80.46 5.32 81.26 4.45C82.07 3.57 83.10 3.14 84.36 3.14C85.11 3.14 85.80 3.31 86.44 3.65C87.08 4.00 87.59 4.47 87.98 5.05L88.37 4.75C87.93 4.11 87.37 3.61 86.69 3.24C86.01 2.87 85.23 2.69 84.36 2.69C83.01 2.69 81.88 3.17 80.97 4.13C80.06 5.09 79.60 6.28 79.60 7.70C79.60 9.12 80.06 10.31 80.97 11.27C81.88 12.23 83.01 12.71 84.36 12.71C85.74 12.71 86.83 12.22 87.63 11.23C88.44 10.25 88.84 9.05 88.84 7.63ZM97.24 9.38C97.24 10.36 97.53 11.16 98.11 11.78C98.68 12.40 99.40 12.71 100.28 12.71C101.16 12.71 101.89 12.40 102.46 11.78C103.03 11.16 103.32 10.36 103.32 9.38C103.32 8.40 103.03 7.60 102.46 6.98C101.89 6.36 101.16 6.05 100.28 6.05C99.40 6.05 98.68 6.36 98.11 6.98C97.53 7.60 97.24 8.40 97.24 9.38ZM97.66 9.38C97.66 8.52 97.91 7.82 98.41 7.28C98.90 6.74 99.53 6.47 100.28 6.47C101.04 6.47 101.66 6.74 102.16 7.28C102.65 7.82 102.90 8.52 102.90 9.38C102.90 10.24 102.65 10.94 102.16 11.48C101.66 12.02 101.04 12.29 100.28 12.29C99.53 12.29 98.90 12.02 98.41 11.48C97.91 10.94 97.66 10.24 97.66 9.38ZM112.14 3.15C112.14 3.26 112.17 3.36 112.25 3.43C112.31 3.50 112.41 3.54 112.53 3.54C112.65 3.54 112.75 3.50 112.82 3.43C112.89 3.36 112.92 3.26 112.92 3.15C112.92 3.04 112.89 2.94 112.82 2.87C112.75 2.80 112.65 2.76 112.53 2.76C112.41 2.76 112.31 2.80 112.25 2.87C112.17 2.94 112.14 3.04 112.14 3.15ZM112.32 6.16L112.32 12.60L112.74 12.60L112.74 6.16ZM122.72 8.68C122.72 8.12 122.93 7.61 123.33 7.15C123.74 6.70 124.25 6.47 124.85 6.47C125.91 6.47 126.43 7.16 126.43 8.54L126.43 12.60L126.85 12.60L126.85 8.40C126.85 7.68 126.70 7.11 126.38 6.68C126.06 6.26 125.60 6.05 124.99 6.05C124.40 6.05 123.92 6.19 123.54 6.46C123.15 6.74 122.88 7.12 122.72 7.62L122.72 6.16L122.30 6.16L122.30 12.60L122.72 12.60ZM136.11 9.38C136.11 8.48 136.38 7.77 136.91 7.25C137.45 6.73 138.06 6.47 138.75 6.47C139.52 6.47 140.15 6.75 140.66 7.31C141.16 7.87 141.41 8.56 141.41 9.38C141.41 10.20 141.16 10.89 140.66 11.45C140.15 12.01 139.52 12.29 138.75 12.29C138.06 12.29 137.45 12.03 136.91 11.51C136.38 10.99 136.11 10.28 136.11 9.38ZM135.87 13.02C135.87 13.86 136.13 14.54 136.64 15.05C137.15 15.56 137.84 15.82 138.71 15.82C139.63 15.82 140.38 15.53 140.96 14.95C141.54 14.36 141.83 13.53 141.83 12.46L141.83 6.16L141.41 6.16L141.41 8.04C141.21 7.44 140.88 6.96 140.41 6.59C139.95 6.23 139.41 6.05 138.80 6.05C137.90 6.05 137.16 6.35 136.56 6.96C135.97 7.56 135.67 8.37 135.67 9.38C135.67 10.39 135.97 11.20 136.56 11.80C137.16 12.41 137.90 12.71 138.80 12.71C139.41 12.71 139.95 12.53 140.41 12.17C140.88 11.80 141.21 11.32 141.41 10.72L141.41 12.46C141.41 13.40 141.16 14.13 140.64 14.64C140.13 15.15 139.49 15.40 138.71 15.40C137.97 15.40 137.39 15.18 136.95 14.74C136.51 14.30 136.29 13.73 136.29 13.02Z"></path></g></svg>